<?xml version='1.0' encoding='UTF-8'?>
<svg xmlns="http://www.w3.org/2000/svg" xmlns:svg="http://www.w3.org/2000/svg" version="1.1" viewBox="0 0 50 43.060001" id="fuxaWidget" style="border: none !important; outline: none !important; box-shadow: none !important; margin: 0; padding: 0; background: transparent;" width="100%" height="100%">
  <g id="fuxaSymbol">
    <defs id="defs1"/>
    <g data-cell-id="gQ551Ar7PwXLAaA90adm-577" id="g10" transform="translate(-0.5,-10.5)">
      <g id="cell-gQ551Ar7PwXLAaA90adm-577">
        <g transform="translate(0.5,0.5)" id="g9">
          <path d="M 2.98,10 C 1.34,10 0,11.34 0,12.98 v 37.1 c 0,1.64 1.34,2.98 2.98,2.98 h 44.04 c 1.64,0 2.98,-1.34 2.98,-2.98 V 12.98 C 50,11.34 48.66,10 47.02,10 Z m 0,1.05 h 44.04 c 1.08,0 1.93,0.85 1.93,1.93 v 5.27 H 24.19 L 22.24,16.44 C 22.14,16.35 22.01,16.3 21.88,16.3 H 1.05 v -3.32 c 0,-1.08 0.85,-1.93 1.93,-1.93 z m 32.36,1.52 c -1.04,0 -1.88,0.85 -1.88,1.88 0,1.03 0.84,1.88 1.88,1.88 1.03,0 1.87,-0.85 1.87,-1.88 0,-1.03 -0.84,-1.88 -1.87,-1.88 z m 4.81,0 c -1.03,0 -1.88,0.85 -1.88,1.88 0,1.03 0.85,1.88 1.88,1.88 1.03,0 1.88,-0.85 1.88,-1.88 0,-1.03 -0.85,-1.88 -1.88,-1.88 z m 4.81,0 c -1.03,0 -1.87,0.85 -1.87,1.88 0,1.03 0.84,1.88 1.87,1.88 1.04,0 1.88,-0.85 1.88,-1.88 0,-1.03 -0.84,-1.88 -1.88,-1.88 z M 4.62,13.51 c -0.14,0 -0.28,0.05 -0.37,0.15 -0.1,0.1 -0.16,0.23 -0.16,0.37 0,0.29 0.24,0.53 0.53,0.53 h 4.17 c 0.29,0 0.53,-0.24 0.53,-0.53 0,-0.29 -0.24,-0.52 -0.53,-0.52 z m 30.72,0.11 c 0.46,0 0.82,0.37 0.82,0.83 0,0.47 -0.36,0.83 -0.82,0.83 -0.47,0 -0.83,-0.36 -0.83,-0.83 0,-0.46 0.36,-0.83 0.83,-0.83 z m 4.81,0 c 0.46,0 0.83,0.37 0.83,0.83 0,0.47 -0.37,0.83 -0.83,0.83 -0.46,0 -0.83,-0.36 -0.83,-0.83 0,-0.46 0.37,-0.83 0.83,-0.83 z m 4.81,0 c 0.47,0 0.83,0.37 0.83,0.83 0,0.47 -0.36,0.83 -0.83,0.83 -0.46,0 -0.83,-0.36 -0.83,-0.83 0,-0.46 0.37,-0.83 0.83,-0.83 z M 1.05,17.35 h 20.63 l 1.94,1.81 c 0.1,0.09 0.23,0.14 0.36,0.14 h 24.97 v 30.78 c 0,1.07 -0.85,1.93 -1.93,1.93 H 2.98 c -1.08,0 -1.93,-0.86 -1.93,-1.93 z m 4.38,4.96 c -0.29,0 -0.52,0.23 -0.52,0.52 v 12.54 c 0,0.29 0.23,0.52 0.52,0.52 h 39.44 c 0.29,0 0.52,-0.23 0.52,-0.52 V 22.83 c 0,-0.29 -0.23,-0.52 -0.52,-0.52 z m 0.53,1.05 h 38.38 v 4.18 l -1.29,-1.61 c -0.01,-0.01 -0.01,-0.02 -0.02,-0.02 -0.41,-0.46 -0.99,-0.62 -1.53,-0.6 v 0 c -0.54,0.01 -1.07,0.18 -1.43,0.61 l -3.49,3.73 C 36.25,29.95 36,30.02 35.75,30.01 35.5,30 35.21,29.88 34.89,29.64 l 0.02,0.01 c -0.81,-0.67 -2,-0.67 -2.8,0.02 l 0.02,-0.02 -1.89,1.46 c -0.42,0.32 -0.78,0.45 -1.07,0.46 -0.29,0.02 -0.53,-0.07 -0.81,-0.34 0,0 0,0 -0.01,0 l -2.62,-2.47 c -0.34,-0.34 -0.79,-0.43 -1.2,-0.43 -0.42,0.01 -0.81,0.11 -1.14,0.29 -0.01,0.01 -0.02,0.01 -0.02,0.02 -0.57,0.35 -1.17,0.32 -1.6,-0.12 l -2.32,-2.45 c -0.86,-1 -2.41,-0.96 -3.26,0.05 0,0 -0.01,0 -0.01,0 l -2.54,3.09 c -0.16,0.16 -0.42,0.26 -0.7,0.27 -0.28,0.01 -0.56,-0.08 -0.7,-0.19 -0.02,-0.01 -0.03,-0.02 -0.04,-0.03 L 11.39,28.73 C 11,28.42 10.52,28.35 10.04,28.36 9.55,28.37 9.05,28.47 8.66,28.85 l -2.7,2.53 z m 35.57,3 c 0.3,-0.01 0.58,0.09 0.72,0.25 l 2.09,2.6 v 5.63 H 5.96 V 32.82 L 9.39,29.6 c 0.01,0 0.01,0 0.01,-0.01 0.05,-0.05 0.35,-0.17 0.67,-0.18 0.31,0 0.64,0.11 0.7,0.16 0.01,0.01 0.02,0.02 0.04,0.03 l 0.81,0.53 -0.04,-0.02 c 0.4,0.31 0.9,0.44 1.4,0.42 0.51,-0.02 1.03,-0.19 1.42,-0.59 0.01,-0.01 0.02,-0.02 0.03,-0.04 l 2.56,-3.11 c 0.47,-0.56 1.22,-0.57 1.67,-0.02 0.01,0.01 0.02,0.01 0.02,0.02 l 2.33,2.45 c 0,0.01 0,0.01 0.01,0.01 0.78,0.8 1.98,0.84 2.9,0.28 l -0.02,0.01 c 0.15,-0.08 0.41,-0.16 0.64,-0.16 0.23,0 0.39,0.06 0.46,0.13 0,0 0.01,0 0.01,0 l 2.62,2.48 c 0.45,0.42 1,0.65 1.58,0.63 0.57,-0.02 1.13,-0.27 1.67,-0.68 l 1.89,-1.45 c 0,-0.01 0.01,-0.01 0.02,-0.02 0.42,-0.36 1.02,-0.36 1.45,-0.01 0,0.01 0.01,0.01 0.02,0.02 0.42,0.32 0.91,0.56 1.44,0.58 0.54,0.03 1.1,-0.2 1.59,-0.64 0.01,-0.01 0.02,-0.02 0.03,-0.03 l 3.53,-3.78 c 0,0 0.01,-0.01 0.01,-0.01 0.09,-0.1 0.37,-0.24 0.67,-0.24 z M 5.01,38.34 c -0.29,0 -0.52,0.24 -0.52,0.53 v 9.47 c 0,0.29 0.23,0.52 0.52,0.52 h 39.85 c 0.29,0 0.52,-0.23 0.52,-0.52 v -9.47 c 0,-0.29 -0.23,-0.53 -0.52,-0.53 z m 0.53,1.05 h 38.79 v 8.42 h -2.08 v -1.44 c 0,-0.29 -0.24,-0.53 -0.53,-0.53 -0.29,0 -0.52,0.24 -0.52,0.53 v 1.44 h -2.4 v -7.42 c 0,-0.29 -0.24,-0.53 -0.53,-0.53 -0.29,0 -0.52,0.24 -0.52,0.53 v 7.42 h -2.4 V 42.3 c 0,-0.14 -0.06,-0.27 -0.16,-0.37 -0.1,-0.1 -0.23,-0.16 -0.37,-0.16 -0.29,0 -0.52,0.24 -0.52,0.53 v 5.51 h -2.4 v -3.66 c 0,-0.29 -0.24,-0.52 -0.53,-0.52 -0.29,0 -0.52,0.23 -0.52,0.52 v 3.66 h -2.4 v -1.68 c 0,-0.29 -0.24,-0.53 -0.53,-0.53 -0.29,0 -0.52,0.24 -0.52,0.53 v 1.68 H 25 v -5.6 c 0,-0.14 -0.06,-0.27 -0.16,-0.37 -0.1,-0.1 -0.23,-0.15 -0.37,-0.15 -0.14,0 -0.27,0.05 -0.37,0.15 -0.1,0.1 -0.15,0.23 -0.15,0.37 v 5.6 h -2.4 v -7.2 c 0,-0.14 -0.06,-0.27 -0.16,-0.37 -0.1,-0.1 -0.23,-0.15 -0.37,-0.15 -0.29,0 -0.52,0.23 -0.52,0.52 v 7.2 h -2.4 v -5.48 c 0,-0.29 -0.24,-0.53 -0.53,-0.53 -0.29,0 -0.52,0.24 -0.52,0.53 v 5.48 h -2.4 v -1.72 c 0,-0.29 -0.24,-0.53 -0.53,-0.53 -0.29,0 -0.52,0.24 -0.52,0.53 v 1.72 h -2.41 v -3.68 c 0,-0.29 -0.23,-0.52 -0.52,-0.52 -0.14,0 -0.27,0.05 -0.37,0.15 -0.1,0.1 -0.16,0.23 -0.16,0.37 v 3.68 H 7.74 V 42.02 C 7.75,41.73 7.51,41.5 7.22,41.5 6.93,41.5 6.7,41.73 6.7,42.02 v 5.79 H 5.54 Z" fill="#000000" stroke="none" pointer-events="all" id="path8"/>
        </g>
      </g>
    </g>
  </g>
  <script type="text/javascript"><![CDATA[/*
    # =============================================
    # ===             How to Use                ===
    # =============================================

    Variables with the following prefix:

    _pb_ = bool   parameter ( true or false )
    _pn_ = number parameter ( Int, Float, Real etc )
    _ps_ = string parameter ( string can be entered directly )
    _pc_ = color parameter in hex color code ( #00ff00ff )

    Indicate variable type to be used in Fuxa Properties and binding of Tags, Important! they have to be place within:

    //!export-start
    let _pn_setState = 0;
    //!export-end

    There are 2x Functions to handle sending and receiving data between Fuxa and the SVG

    // Recieve Variables From Fuxa
    function putValue(id, value) { } 
    
    // Send Variables To Fuxa
    function postValue(id, value) {
      console.error('Not defined!');
    }

    The ID is the name of the variable _pn_setState for example and value is the value to be sent or received from Fuxa


    This SVG uses an INT/Number Variable to change the State and State of the SVG:

    0 = Off
    1 = Run
    2 = Warning
    3 = Fault
    4 = Invalid
    5 = Spare

    You can also use the bool field and this will change the state between 0 = off and 1 = run 

    You can also set the color for each state in Fuxa using HEX color code #b4b4b4
    The Default Blink Interval for On and Off is 500ms but can also be changed in Fuxa in MS resolution

    <svg>
      SVG Content Here
      <script>
        JS Script Content Here
      </script>
    </svg>

    */

	  // Global Parameters and Variables

    //!export-start
    let _pn_setState = 0;                     // 0=Off, 1=Run, 2=Warn, 3=Fault, 4=Invalid, 5=Spare
    let _pb_boolState = false;                // true = Run, false = Off
    let _pn_setIntervalOn = 500;              // ms fault color is ON
    let _pn_setIntervalOff = 500;             // ms fault color is OFF
    let _pn_strokeWidth = 1;                  // Global stroke width for all states
    let _pc_fill_0 = 'none';                  // Off
    let _pc_fill_1 = 'none';                  // Run
    let _pc_fill_2 = 'none';                  // Warn
    let _pc_fill_3 = 'none';                  // Fault
    let _pc_fill_4 = 'none';                  // Invalid
    let _pc_fill_5 = 'none';                  // Spare
    let _pc_stroke_0 = '#7f7f7f';             // Off
    let _pc_stroke_1 = '#00ff00';             // Run
    let _pc_stroke_2 = '#ff9500';             // Warn
    let _pc_stroke_3 = '#ff0000';             // Fault
    let _pc_stroke_4 = '#3c3c3c';             // Invalid
    let _pc_stroke_5 = '#dcdcdc';             // Spare
    let _pb_preserveAspectRatio = true;       // true = preserve aspect ratio, false = stretch
    let _pn_rotateAngle = 0;                  // degrees, 0 = no rotation
    let _pn_rotateOffsetX = 0;                // offset from center (0 = center)
    let _pn_rotateOffsetY = 0;                // offset from center (0 = center)
    let _pb_flipHorizontal = false;           // true = flip X
    let _pb_flipVertical = false;             // true = flip Y
    let _pn_flipOffsetX = 0;                  // offset from center (0 = center)
    let _pn_flipOffsetY = 0;                  // offset from center (0 = center)
    let _pn_padding = 0;                      // padding around SVG (default 0)
    //!export-end

    let stateNumber = 0;
    let blinkInterval = null;
    let blinkTimer = null;
    let blinkObserver = null;
    let originalViewBox = null;

    // Get dynamic center from SVG viewBox (uses originalViewBox if available)
    function getCenter() {
      const svg = document.getElementById('fuxaWidget');
      const symbol = document.getElementById('fuxaSymbol');
      if (!svg) return { x: 25.5, y: 25.5 };
      if (symbol && typeof symbol.getBBox === 'function') {
        const bb = symbol.getBBox();
        return { x: bb.x + bb.width / 2, y: bb.y + bb.height / 2 };
      }
      const vbString = originalViewBox || svg.getAttribute('viewBox') || '0 0 51 51';
      const vb = vbString.split(/\s+/).map(parseFloat);
      return { x: (vb[0] + vb[2]) / 2, y: (vb[1] + vb[3]) / 2 };
    }

    // Apply transform to symbol group
    function applyTransform() {
      const symbol = document.getElementById('fuxaSymbol');
      if (!symbol) return;
      const center = getCenter();
      const cx = center.x + _pn_rotateOffsetX + _pn_flipOffsetX;
      const cy = center.y + _pn_rotateOffsetY + _pn_flipOffsetY;
      let transform = '';
      if (_pb_flipHorizontal || _pb_flipVertical) {
        const scaleX = _pb_flipHorizontal ? -1 : 1;
        const scaleY = _pb_flipVertical ? -1 : 1;
        transform += `scale(${scaleX}, ${scaleY}) translate(${scaleX === -1 ? -cx * 2 : 0}, ${scaleY === -1 ? -cy * 2 : 0}) `;
      }
      if (_pn_rotateAngle !== 0) {
        transform += `rotate(${_pn_rotateAngle}, ${cx}, ${cy}) `;
      }
      symbol.setAttribute('transform', transform.trim() || '');
    }

    // Update viewBox with padding
    function updatePadding() {
      const svg = document.getElementById('fuxaWidget');
      const symbol = document.getElementById('fuxaSymbol');
      if (!svg) return;
      const pad = Math.max(0, _pn_padding || 0);
      // Prefer persisted original viewBox (stable) — if not present, persist a computed one using getBBox
      const persisted = svg.getAttribute('data-fuxa-orig-viewbox');
      if (persisted) {
        const vb = persisted.split(/\s+/).map(parseFloat);
        const width = vb[2] - vb[0];
        const height = vb[3] - vb[1];
        const padded = Math.max(width, height);
        const size = padded + 2 * pad;
        const offsetX = (padded - width) / 2;
        const offsetY = (padded - height) / 2;
        svg.setAttribute('viewBox', `${vb[0] - pad - offsetX} ${vb[1] - pad - offsetY} ${size} ${size}`);
        return;
      }
      if (symbol && typeof symbol.getBBox === 'function') {
        // Use the actual content bounds to compute the original viewBox and persist it
        const bb = symbol.getBBox();
        const contentSize = Math.max(bb.width, bb.height);
        const size = contentSize + 2 * pad;
        const cx = bb.x + bb.width / 2;
        const cy = bb.y + bb.height / 2;
        const x = cx - size / 2;
        const y = cy - size / 2;
        const vbString = `${x} ${y} ${size} ${size}`;
        svg.setAttribute('data-fuxa-orig-viewbox', vbString);
        originalViewBox = vbString;
        svg.setAttribute('viewBox', vbString);
        return;
      }
      // Fallback to original viewBox if getBBox is not available
      const vbString = originalViewBox || svg.getAttribute('viewBox') || '0 0 51 51';
      const vb = vbString.split(/\s+/).map(parseFloat);
      const width = vb[2] - vb[0];
      const height = vb[3] - vb[1];
      const padded = Math.max(width, height);
      const size = padded + 2 * pad;
      const offsetX = (padded - width) / 2;
      const offsetY = (padded - height) / 2;
      svg.setAttribute('viewBox', `${vb[0] - pad - offsetX} ${vb[1] - pad - offsetY} ${size} ${size}`);
    }

    // Function to update preserveAspectRatio
    function updatePreserveAspectRatio() {
      const svg = document.getElementById('fuxaWidget');
      if (!svg) return;
      if (_pb_preserveAspectRatio) {
        svg.setAttribute('preserveAspectRatio', 'xMidYMid meet');
      } else {
        svg.setAttribute('preserveAspectRatio', 'none');
      }
    }

    // Function to update the color based on the set state
    function logic() {
      switch (stateNumber) {
        case 0: // off
          setBaseColor(_pc_stroke_0, _pc_fill_0);
          clearBlinking();
          break;
        case 1: // run
          setBaseColor(_pc_stroke_1, _pc_fill_1);
          clearBlinking();
          break;
        case 2: // warning
          setBaseColor(_pc_stroke_2, _pc_fill_2);
          clearBlinking();
          break;
        case 3: // fault
          const onRaw = +_pn_setIntervalOn;
          const offRaw = +_pn_setIntervalOff;
          const on = (onRaw > 0) ? Math.max(50, onRaw) : 0;
          const off = (offRaw > 0) ? Math.max(50, offRaw) : 0;

          if (on === 0 || off === 0) {
            setBaseColor(_pc_stroke_3, _pc_fill_3);
            clearBlinking();
          } else {
            startDualBlinking(_pc_stroke_0, _pc_stroke_3, _pc_fill_0, _pc_fill_3, on, off);
          }
          break;
        case 4: // invalid
          setBaseColor(_pc_stroke_4, _pc_fill_4);
          clearBlinking();
          break;
        case 5: // spare
          setBaseColor(_pc_stroke_5, _pc_fill_5);
          clearBlinking();
          break;
        default:
          console.log('Undefined State');
          clearBlinking();
      }
    }

    // Initial setup
    function init() {
      // ensure no residual timers from previous initializations
      clearBlinking();
      const svg = document.getElementById('fuxaWidget');
      if (svg) {
        // Use or persist the original viewBox to prevent cumulative padding growth
        if (!svg.getAttribute('data-fuxa-orig-viewbox')) {
          svg.setAttribute('data-fuxa-orig-viewbox', svg.getAttribute('viewBox') || '0 0 51 51');
        }
        originalViewBox = svg.getAttribute('data-fuxa-orig-viewbox');
      }
      updatePadding();
      updatePreserveAspectRatio();
      applyTransform();
      logic();
    }

    // Function to update values from Fuxa
    function putValue(id, value) {
      let needsTransform = false;

      if (id === '_pn_setState') {
        stateNumber = value;
        logic();
      }
      if (id === '_pb_boolState') {
        _pb_boolState = value;
        if (_pb_boolState === true) {
          stateNumber = 1;
        } else if (_pb_boolState === false) {
          stateNumber = 0;
        }
        logic();
      }
      if (id === '_pn_setIntervalOn') {
        _pn_setIntervalOn = value;
        if (stateNumber === 3) logic();
      }
      if (id === '_pn_setIntervalOff') {
        _pn_setIntervalOff = value;
        if (stateNumber === 3) logic();
      }
      if (id === '_pn_strokeWidth') _pn_strokeWidth = value;
      if (id === '_pc_fill_0') _pc_fill_0 = value;
      if (id === '_pc_fill_1') _pc_fill_1 = value;
      if (id === '_pc_fill_2') _pc_fill_2 = value;
      if (id === '_pc_fill_3') _pc_fill_3 = value;
      if (id === '_pc_fill_4') _pc_fill_4 = value;
      if (id === '_pc_fill_5') _pc_fill_5 = value;
      if (id === '_pc_stroke_0') _pc_stroke_0 = value;
      if (id === '_pc_stroke_1') _pc_stroke_1 = value;
      if (id === '_pc_stroke_2') _pc_stroke_2 = value;
      if (id === '_pc_stroke_3') _pc_stroke_3 = value;
      if (id === '_pc_stroke_4') _pc_stroke_4 = value;
      if (id === '_pc_stroke_5') _pc_stroke_5 = value;

      // ROTATE
      if (id === '_pn_rotateAngle') { _pn_rotateAngle = value; needsTransform = true; }
      if (id === '_pn_rotateOffsetX') { _pn_rotateOffsetX = value; needsTransform = true; }
      if (id === '_pn_rotateOffsetY') { _pn_rotateOffsetY = value; needsTransform = true; }

      // FLIP
      if (id === '_pb_flipHorizontal') {
        _pb_flipHorizontal = (value === true || value === 1 || value === '1');
        needsTransform = true;
      }
      if (id === '_pb_flipVertical') {
        _pb_flipVertical = (value === true || value === 1 || value === '1');
        needsTransform = true;
      }
      if (id === '_pn_flipOffsetX') { _pn_flipOffsetX = value; needsTransform = true; }
      if (id === '_pn_flipOffsetY') { _pn_flipOffsetY = value; needsTransform = true; }

      // PADDING
      if (id === '_pn_padding') {
        _pn_padding = Math.max(0, +value || 0);
        updatePadding();
        needsTransform = true;
      }

      // PRESERVE ASPECT RATIO
      if (id === '_pb_preserveAspectRatio') {
        _pb_preserveAspectRatio = (value === true || value === 1 || value === '1');
        updatePreserveAspectRatio();
      }

      if (needsTransform) {
        applyTransform();
      }
    }

    // Function to send values back to Fuxa (placeholder)
    function postValue(id, value) {
      console.log('Not defined!');
    }

    // Make postValue globally available only if not already set by Fuxa
    if (!window.postValue) {
      window.postValue = postValue;
    }

    // Initialize the SVG
    init();

    // Re-run init when the page becomes visible (e.g., returning from editor)
    document.addEventListener('visibilitychange', function() {
      if (document.visibilityState === 'visible') {
        setTimeout(() => init(), 10);
      }
    });

    // Function to update the color for the base shape group
    function setBaseColor(strokeColor, fillColor) {
      const symbol = document.getElementById('fuxaSymbol');
      if (!symbol) return;
      symbol.querySelectorAll('*').forEach(function(elem) {
        try {
          // Set both presentation attributes and inline styles so existing style attributes
          // (e.g., style="fill:none") are overridden by the inline style setting.
          if (fillColor !== undefined && fillColor !== null) {
            elem.setAttribute('fill', fillColor);
            elem.style.fill = fillColor;
          }
          if (strokeColor !== undefined && strokeColor !== null) {
            elem.setAttribute('stroke', strokeColor);
            elem.style.stroke = strokeColor;
          }
          elem.setAttribute('stroke-width', _pn_strokeWidth);
          elem.style.strokeWidth = String(_pn_strokeWidth);
        } catch (e) {
          // Ignore if an element doesn't accept a property
        }
      });
      applyTransform();
    }

    // DUAL BLINK: onTime (fault), offTime (off) - simple top-level tick-by-id function
    // This follows the original approach — a named top-level tick function that schedules itself.
    function fuxa_blink_tick(svgId) {
      const svg = document.getElementById(svgId);
      if (!svg) {
        clearBlinking();
        return;
      }
      if (!svg || !svg._fuxa_blink_params) return;
      const p = svg._fuxa_blink_params;
      if (svg._fuxa_blink_state) {
        setBaseColor(p.strokeOn, p.fillOn);
        svg._fuxa_blink_state = false;
        svg._fuxa_blink_timer = setTimeout(function() { fuxa_blink_tick(svgId); }, p.onTime);
      } else {
        setBaseColor(p.strokeOff, p.fillOff);
        svg._fuxa_blink_state = true;
        svg._fuxa_blink_timer = setTimeout(function() { fuxa_blink_tick(svgId); }, p.offTime);
      }
    }

    function startDualBlinking(strokeOff, strokeOn, fillOff, fillOn, onTime, offTime) {
      clearBlinking();
      // Ensure values are numbers
      onTime = Number(onTime) || 0;
      offTime = Number(offTime) || 0;
      const id = 'fuxaWidget';
      const svg = document.getElementById(id);
      if (!svg) return;
      svg._fuxa_blink_params = { strokeOff, strokeOn, fillOff, fillOn, onTime, offTime };
      svg._fuxa_blink_state = true;
      // start the tick by id (named function) for reliability
      fuxa_blink_tick(id);

      blinkObserver = new MutationObserver((mutations) => {
        mutations.forEach((mutation) => {
          mutation.removedNodes.forEach((node) => {
            if (node && node.id === 'fuxaWidget') {
              clearBlinking();
              if (blinkObserver) {
                blinkObserver.disconnect();
                blinkObserver = null;
              }
            }
          });
        });
      });
      blinkObserver.observe(document.body, { childList: true, subtree: true });
    }

    // FULL CLEAR BLINKING
    function clearBlinking() {
      if (blinkInterval) {
        clearInterval(blinkInterval);
        blinkInterval = null;
      }
      if (blinkTimer) {
        clearTimeout(blinkTimer);
        blinkTimer = null;
      }
      if (blinkObserver) {
        blinkObserver.disconnect();
        blinkObserver = null;
      }
      const svg = document.getElementById('fuxaWidget');
      if (svg) {
        if (svg._fuxa_blink_timer) { clearTimeout(svg._fuxa_blink_timer); svg._fuxa_blink_timer = null; }
        if (svg._fuxa_blink_params) { svg._fuxa_blink_params = null; }
        if (svg._fuxa_blink_state !== undefined) { svg._fuxa_blink_state = null; }
      }
    }]]></script>
</svg>
