<?xml version='1.0' encoding='UTF-8'?>
<svg xmlns="http://www.w3.org/2000/svg" xmlns:svg="http://www.w3.org/2000/svg" version="1.1" viewBox="0 0 50 34.82" id="fuxaWidget" style="border: none !important; outline: none !important; box-shadow: none !important; margin: 0; padding: 0; background: transparent;" width="100%" height="100%">
  <g id="fuxaSymbol">
    <defs id="defs1"/>
    <g data-cell-id="gQ551Ar7PwXLAaA90adm-594" id="g44" transform="translate(-0.5,-10.5)">
      <g id="cell-gQ551Ar7PwXLAaA90adm-594">
        <g transform="translate(0.5,0.5)" id="g43">
          <path d="m 41.63,10 c -2.57,0 -4.36,2.13 -4.36,4.26 v 1.43 c -1.09,0.26 -1.91,1.25 -1.91,2.42 v 5.62 c 0,1.37 1.12,2.48 2.48,2.48 h 7.5 c 1.36,0 2.48,-1.11 2.48,-2.48 v -5.62 c 0,-1.15 -0.79,-2.12 -1.85,-2.4 V 14.26 C 45.97,12.09 44.14,10 41.63,10 Z m 0,1.2 c 1.84,0 3.15,1.57 3.15,3.06 v 1.37 h -6.31 v -1.37 c 0,-1.45 1.26,-3.06 3.16,-3.06 z m -18.8,2.55 c -2.41,0 -4.37,1.96 -4.37,4.37 v 13.15 c 0,2.4 1.96,4.36 4.37,4.36 h 5.82 l -0.71,2.57 h -2.32 c -0.15,0 -0.31,0.06 -0.42,0.18 -0.11,0.11 -0.17,0.26 -0.17,0.42 0,0.33 0.26,0.6 0.59,0.6 h 15.05 c 0.33,0 0.59,-0.27 0.59,-0.6 0,-0.33 -0.26,-0.6 -0.59,-0.6 h -2.35 l -0.64,-2.57 h 5.8 c 2.41,0 4.36,-1.96 4.36,-4.36 v -1.9 c 0,-0.33 -0.26,-0.6 -0.59,-0.6 -0.33,0 -0.6,0.27 -0.6,0.6 V 30.7 H 19.66 V 18.12 c 0,-1.77 1.4,-3.17 3.17,-3.17 h 9.37 c 0.16,0 0.31,-0.07 0.42,-0.18 0.12,-0.11 0.18,-0.26 0.18,-0.42 0,-0.16 -0.06,-0.31 -0.18,-0.43 -0.11,-0.11 -0.26,-0.17 -0.42,-0.17 z m 15.01,3.07 h 7.5 c 0.72,0 1.28,0.57 1.28,1.29 v 5.62 c 0,0.72 -0.56,1.28 -1.28,1.28 h -7.5 c -0.72,0 -1.28,-0.56 -1.28,-1.28 v -5.62 c 0,-0.72 0.56,-1.29 1.28,-1.29 z m -7.31,1 c -0.03,0 -0.07,0 -0.1,0.01 -0.15,0.01 -0.3,0.09 -0.4,0.21 l -4.23,5.08 -1.28,-1.81 c -0.1,-0.13 -0.24,-0.22 -0.39,-0.24 -0.16,-0.03 -0.32,0.01 -0.45,0.1 -0.27,0.19 -0.33,0.56 -0.14,0.83 l 1.73,2.45 c 0.11,0.15 0.28,0.24 0.47,0.25 0.19,0.01 0.36,-0.07 0.48,-0.21 l 4.73,-5.69 c 0.21,-0.25 0.18,-0.63 -0.08,-0.84 -0.09,-0.08 -0.22,-0.13 -0.34,-0.14 z m -4.72,0.58 c -2.6,0 -4.71,2.12 -4.71,4.71 0,2.6 2.11,4.71 4.71,4.71 2.59,0 4.7,-2.11 4.7,-4.71 0,-0.66 -0.13,-1.3 -0.38,-1.87 -0.14,-0.3 -0.49,-0.44 -0.79,-0.31 -0.3,0.13 -0.44,0.48 -0.31,0.79 0.18,0.42 0.29,0.89 0.29,1.39 0,1.95 -1.57,3.51 -3.51,3.51 -1.95,0 -3.52,-1.56 -3.52,-3.51 0,-1.94 1.57,-3.51 3.52,-3.51 0.65,0 1.26,0.18 1.78,0.49 0.14,0.08 0.3,0.1 0.46,0.07 0.15,-0.04 0.28,-0.14 0.36,-0.28 0.09,-0.14 0.11,-0.3 0.07,-0.45 -0.04,-0.16 -0.14,-0.29 -0.27,-0.37 -0.71,-0.42 -1.53,-0.66 -2.4,-0.66 z m 15.77,1.5 c -0.59,0 -1.06,0.47 -1.06,1.06 0,0.58 0.47,1.06 1.06,1.06 0.58,0 1.06,-0.48 1.06,-1.06 0,-0.59 -0.48,-1.06 -1.06,-1.06 z M 4.85,30.88 C 2.17,30.88 0,33.05 0,35.73 v 4.24 c 0,2.68 2.17,4.85 4.85,4.85 h 40.3 c 2.68,0 4.85,-2.17 4.85,-4.85 v -4.24 c 0,-0.93 -0.27,-1.81 -0.72,-2.55 -0.17,0.49 -0.39,0.96 -0.66,1.38 0.12,0.37 0.18,0.76 0.18,1.17 v 4.24 c 0,2.03 -1.62,3.65 -3.65,3.65 H 4.85 C 2.82,43.62 1.2,42 1.2,39.97 v -4.24 c 0,-2.03 1.62,-3.65 3.65,-3.65 H 16.76 C 16.72,31.81 16.7,31.54 16.7,31.27 v -0.39 z m 14.87,1.02 h 26.87 c -0.29,1.46 -1.56,2.54 -3.11,2.54 H 22.83 c -1.55,0 -2.82,-1.08 -3.11,-2.54 z m 10.17,3.73 h 6.55 l 0.64,2.57 h -7.9 z M 9.62,36.74 c -0.29,0 -0.58,0.12 -0.78,0.32 -0.21,0.21 -0.33,0.5 -0.33,0.79 0,0.61 0.5,1.11 1.11,1.11 0.61,0 1.11,-0.5 1.11,-1.11 0,-0.29 -0.12,-0.58 -0.32,-0.78 C 10.2,36.86 9.92,36.74 9.62,36.74 Z m 7.42,0 c -0.29,0 -0.58,0.12 -0.78,0.32 -0.21,0.21 -0.33,0.5 -0.33,0.79 0,0.61 0.5,1.11 1.11,1.11 0.61,0 1.11,-0.5 1.11,-1.11 0,-0.29 -0.12,-0.58 -0.32,-0.78 -0.21,-0.21 -0.49,-0.33 -0.79,-0.33 z" fill="#000000" stroke="none" pointer-events="all" id="path42"/>
        </g>
      </g>
    </g>
  </g>
  <script type="text/javascript"><![CDATA[/*
    # =============================================
    # ===             How to Use                ===
    # =============================================

    Variables with the following prefix:

    _pb_ = bool   parameter ( true or false )
    _pn_ = number parameter ( Int, Float, Real etc )
    _ps_ = string parameter ( string can be entered directly )
    _pc_ = color parameter in hex color code ( #00ff00ff )

    Indicate variable type to be used in Fuxa Properties and binding of Tags, Important! they have to be place within:

    //!export-start
    let _pn_setState = 0;
    //!export-end

    There are 2x Functions to handle sending and receiving data between Fuxa and the SVG

    // Recieve Variables From Fuxa
    function putValue(id, value) { } 
    
    // Send Variables To Fuxa
    function postValue(id, value) {
      console.error('Not defined!');
    }

    The ID is the name of the variable _pn_setState for example and value is the value to be sent or received from Fuxa


    This SVG uses an INT/Number Variable to change the State and State of the SVG:

    0 = Off
    1 = Run
    2 = Warning
    3 = Fault
    4 = Invalid
    5 = Spare

    You can also use the bool field and this will change the state between 0 = off and 1 = run 

    You can also set the color for each state in Fuxa using HEX color code #b4b4b4
    The Default Blink Interval for On and Off is 500ms but can also be changed in Fuxa in MS resolution

    <svg>
      SVG Content Here
      <script>
        JS Script Content Here
      </script>
    </svg>

    */

	  // Global Parameters and Variables

    //!export-start
    let _pn_setState = 0;                     // 0=Off, 1=Run, 2=Warn, 3=Fault, 4=Invalid, 5=Spare
    let _pb_boolState = false;                // true = Run, false = Off
    let _pn_setIntervalOn = 500;              // ms fault color is ON
    let _pn_setIntervalOff = 500;             // ms fault color is OFF
    let _pn_strokeWidth = 1;                  // Global stroke width for all states
    let _pc_fill_0 = 'none';                  // Off
    let _pc_fill_1 = 'none';                  // Run
    let _pc_fill_2 = 'none';                  // Warn
    let _pc_fill_3 = 'none';                  // Fault
    let _pc_fill_4 = 'none';                  // Invalid
    let _pc_fill_5 = 'none';                  // Spare
    let _pc_stroke_0 = '#7f7f7f';             // Off
    let _pc_stroke_1 = '#00ff00';             // Run
    let _pc_stroke_2 = '#ff9500';             // Warn
    let _pc_stroke_3 = '#ff0000';             // Fault
    let _pc_stroke_4 = '#3c3c3c';             // Invalid
    let _pc_stroke_5 = '#dcdcdc';             // Spare
    let _pb_preserveAspectRatio = true;       // true = preserve aspect ratio, false = stretch
    let _pn_rotateAngle = 0;                  // degrees, 0 = no rotation
    let _pn_rotateOffsetX = 0;                // offset from center (0 = center)
    let _pn_rotateOffsetY = 0;                // offset from center (0 = center)
    let _pb_flipHorizontal = false;           // true = flip X
    let _pb_flipVertical = false;             // true = flip Y
    let _pn_flipOffsetX = 0;                  // offset from center (0 = center)
    let _pn_flipOffsetY = 0;                  // offset from center (0 = center)
    let _pn_padding = 0;                      // padding around SVG (default 0)
    //!export-end

    let stateNumber = 0;
    let blinkInterval = null;
    let blinkTimer = null;
    let blinkObserver = null;
    let originalViewBox = null;

    // Get dynamic center from SVG viewBox (uses originalViewBox if available)
    function getCenter() {
      const svg = document.getElementById('fuxaWidget');
      const symbol = document.getElementById('fuxaSymbol');
      if (!svg) return { x: 25.5, y: 25.5 };
      if (symbol && typeof symbol.getBBox === 'function') {
        const bb = symbol.getBBox();
        return { x: bb.x + bb.width / 2, y: bb.y + bb.height / 2 };
      }
      const vbString = originalViewBox || svg.getAttribute('viewBox') || '0 0 51 51';
      const vb = vbString.split(/\s+/).map(parseFloat);
      return { x: (vb[0] + vb[2]) / 2, y: (vb[1] + vb[3]) / 2 };
    }

    // Apply transform to symbol group
    function applyTransform() {
      const symbol = document.getElementById('fuxaSymbol');
      if (!symbol) return;
      const center = getCenter();
      const cx = center.x + _pn_rotateOffsetX + _pn_flipOffsetX;
      const cy = center.y + _pn_rotateOffsetY + _pn_flipOffsetY;
      let transform = '';
      if (_pb_flipHorizontal || _pb_flipVertical) {
        const scaleX = _pb_flipHorizontal ? -1 : 1;
        const scaleY = _pb_flipVertical ? -1 : 1;
        transform += `scale(${scaleX}, ${scaleY}) translate(${scaleX === -1 ? -cx * 2 : 0}, ${scaleY === -1 ? -cy * 2 : 0}) `;
      }
      if (_pn_rotateAngle !== 0) {
        transform += `rotate(${_pn_rotateAngle}, ${cx}, ${cy}) `;
      }
      symbol.setAttribute('transform', transform.trim() || '');
    }

    // Update viewBox with padding
    function updatePadding() {
      const svg = document.getElementById('fuxaWidget');
      const symbol = document.getElementById('fuxaSymbol');
      if (!svg) return;
      const pad = Math.max(0, _pn_padding || 0);
      // Prefer persisted original viewBox (stable) — if not present, persist a computed one using getBBox
      const persisted = svg.getAttribute('data-fuxa-orig-viewbox');
      if (persisted) {
        const vb = persisted.split(/\s+/).map(parseFloat);
        const width = vb[2] - vb[0];
        const height = vb[3] - vb[1];
        const padded = Math.max(width, height);
        const size = padded + 2 * pad;
        const offsetX = (padded - width) / 2;
        const offsetY = (padded - height) / 2;
        svg.setAttribute('viewBox', `${vb[0] - pad - offsetX} ${vb[1] - pad - offsetY} ${size} ${size}`);
        return;
      }
      if (symbol && typeof symbol.getBBox === 'function') {
        // Use the actual content bounds to compute the original viewBox and persist it
        const bb = symbol.getBBox();
        const contentSize = Math.max(bb.width, bb.height);
        const size = contentSize + 2 * pad;
        const cx = bb.x + bb.width / 2;
        const cy = bb.y + bb.height / 2;
        const x = cx - size / 2;
        const y = cy - size / 2;
        const vbString = `${x} ${y} ${size} ${size}`;
        svg.setAttribute('data-fuxa-orig-viewbox', vbString);
        originalViewBox = vbString;
        svg.setAttribute('viewBox', vbString);
        return;
      }
      // Fallback to original viewBox if getBBox is not available
      const vbString = originalViewBox || svg.getAttribute('viewBox') || '0 0 51 51';
      const vb = vbString.split(/\s+/).map(parseFloat);
      const width = vb[2] - vb[0];
      const height = vb[3] - vb[1];
      const padded = Math.max(width, height);
      const size = padded + 2 * pad;
      const offsetX = (padded - width) / 2;
      const offsetY = (padded - height) / 2;
      svg.setAttribute('viewBox', `${vb[0] - pad - offsetX} ${vb[1] - pad - offsetY} ${size} ${size}`);
    }

    // Function to update preserveAspectRatio
    function updatePreserveAspectRatio() {
      const svg = document.getElementById('fuxaWidget');
      if (!svg) return;
      if (_pb_preserveAspectRatio) {
        svg.setAttribute('preserveAspectRatio', 'xMidYMid meet');
      } else {
        svg.setAttribute('preserveAspectRatio', 'none');
      }
    }

    // Function to update the color based on the set state
    function logic() {
      switch (stateNumber) {
        case 0: // off
          setBaseColor(_pc_stroke_0, _pc_fill_0);
          clearBlinking();
          break;
        case 1: // run
          setBaseColor(_pc_stroke_1, _pc_fill_1);
          clearBlinking();
          break;
        case 2: // warning
          setBaseColor(_pc_stroke_2, _pc_fill_2);
          clearBlinking();
          break;
        case 3: // fault
          const onRaw = +_pn_setIntervalOn;
          const offRaw = +_pn_setIntervalOff;
          const on = (onRaw > 0) ? Math.max(50, onRaw) : 0;
          const off = (offRaw > 0) ? Math.max(50, offRaw) : 0;

          if (on === 0 || off === 0) {
            setBaseColor(_pc_stroke_3, _pc_fill_3);
            clearBlinking();
          } else {
            startDualBlinking(_pc_stroke_0, _pc_stroke_3, _pc_fill_0, _pc_fill_3, on, off);
          }
          break;
        case 4: // invalid
          setBaseColor(_pc_stroke_4, _pc_fill_4);
          clearBlinking();
          break;
        case 5: // spare
          setBaseColor(_pc_stroke_5, _pc_fill_5);
          clearBlinking();
          break;
        default:
          console.log('Undefined State');
          clearBlinking();
      }
    }

    // Initial setup
    function init() {
      // ensure no residual timers from previous initializations
      clearBlinking();
      const svg = document.getElementById('fuxaWidget');
      if (svg) {
        // Use or persist the original viewBox to prevent cumulative padding growth
        if (!svg.getAttribute('data-fuxa-orig-viewbox')) {
          svg.setAttribute('data-fuxa-orig-viewbox', svg.getAttribute('viewBox') || '0 0 51 51');
        }
        originalViewBox = svg.getAttribute('data-fuxa-orig-viewbox');
      }
      updatePadding();
      updatePreserveAspectRatio();
      applyTransform();
      logic();
    }

    // Function to update values from Fuxa
    function putValue(id, value) {
      let needsTransform = false;

      if (id === '_pn_setState') {
        stateNumber = value;
        logic();
      }
      if (id === '_pb_boolState') {
        _pb_boolState = value;
        if (_pb_boolState === true) {
          stateNumber = 1;
        } else if (_pb_boolState === false) {
          stateNumber = 0;
        }
        logic();
      }
      if (id === '_pn_setIntervalOn') {
        _pn_setIntervalOn = value;
        if (stateNumber === 3) logic();
      }
      if (id === '_pn_setIntervalOff') {
        _pn_setIntervalOff = value;
        if (stateNumber === 3) logic();
      }
      if (id === '_pn_strokeWidth') _pn_strokeWidth = value;
      if (id === '_pc_fill_0') _pc_fill_0 = value;
      if (id === '_pc_fill_1') _pc_fill_1 = value;
      if (id === '_pc_fill_2') _pc_fill_2 = value;
      if (id === '_pc_fill_3') _pc_fill_3 = value;
      if (id === '_pc_fill_4') _pc_fill_4 = value;
      if (id === '_pc_fill_5') _pc_fill_5 = value;
      if (id === '_pc_stroke_0') _pc_stroke_0 = value;
      if (id === '_pc_stroke_1') _pc_stroke_1 = value;
      if (id === '_pc_stroke_2') _pc_stroke_2 = value;
      if (id === '_pc_stroke_3') _pc_stroke_3 = value;
      if (id === '_pc_stroke_4') _pc_stroke_4 = value;
      if (id === '_pc_stroke_5') _pc_stroke_5 = value;

      // ROTATE
      if (id === '_pn_rotateAngle') { _pn_rotateAngle = value; needsTransform = true; }
      if (id === '_pn_rotateOffsetX') { _pn_rotateOffsetX = value; needsTransform = true; }
      if (id === '_pn_rotateOffsetY') { _pn_rotateOffsetY = value; needsTransform = true; }

      // FLIP
      if (id === '_pb_flipHorizontal') {
        _pb_flipHorizontal = (value === true || value === 1 || value === '1');
        needsTransform = true;
      }
      if (id === '_pb_flipVertical') {
        _pb_flipVertical = (value === true || value === 1 || value === '1');
        needsTransform = true;
      }
      if (id === '_pn_flipOffsetX') { _pn_flipOffsetX = value; needsTransform = true; }
      if (id === '_pn_flipOffsetY') { _pn_flipOffsetY = value; needsTransform = true; }

      // PADDING
      if (id === '_pn_padding') {
        _pn_padding = Math.max(0, +value || 0);
        updatePadding();
        needsTransform = true;
      }

      // PRESERVE ASPECT RATIO
      if (id === '_pb_preserveAspectRatio') {
        _pb_preserveAspectRatio = (value === true || value === 1 || value === '1');
        updatePreserveAspectRatio();
      }

      if (needsTransform) {
        applyTransform();
      }
    }

    // Function to send values back to Fuxa (placeholder)
    function postValue(id, value) {
      console.log('Not defined!');
    }

    // Make postValue globally available only if not already set by Fuxa
    if (!window.postValue) {
      window.postValue = postValue;
    }

    // Initialize the SVG
    init();

    // Re-run init when the page becomes visible (e.g., returning from editor)
    document.addEventListener('visibilitychange', function() {
      if (document.visibilityState === 'visible') {
        setTimeout(() => init(), 10);
      }
    });

    // Function to update the color for the base shape group
    function setBaseColor(strokeColor, fillColor) {
      const symbol = document.getElementById('fuxaSymbol');
      if (!symbol) return;
      symbol.querySelectorAll('*').forEach(function(elem) {
        try {
          // Set both presentation attributes and inline styles so existing style attributes
          // (e.g., style="fill:none") are overridden by the inline style setting.
          if (fillColor !== undefined && fillColor !== null) {
            elem.setAttribute('fill', fillColor);
            elem.style.fill = fillColor;
          }
          if (strokeColor !== undefined && strokeColor !== null) {
            elem.setAttribute('stroke', strokeColor);
            elem.style.stroke = strokeColor;
          }
          elem.setAttribute('stroke-width', _pn_strokeWidth);
          elem.style.strokeWidth = String(_pn_strokeWidth);
        } catch (e) {
          // Ignore if an element doesn't accept a property
        }
      });
      applyTransform();
    }

    // DUAL BLINK: onTime (fault), offTime (off) - simple top-level tick-by-id function
    // This follows the original approach — a named top-level tick function that schedules itself.
    function fuxa_blink_tick(svgId) {
      const svg = document.getElementById(svgId);
      if (!svg) {
        clearBlinking();
        return;
      }
      if (!svg || !svg._fuxa_blink_params) return;
      const p = svg._fuxa_blink_params;
      if (svg._fuxa_blink_state) {
        setBaseColor(p.strokeOn, p.fillOn);
        svg._fuxa_blink_state = false;
        svg._fuxa_blink_timer = setTimeout(function() { fuxa_blink_tick(svgId); }, p.onTime);
      } else {
        setBaseColor(p.strokeOff, p.fillOff);
        svg._fuxa_blink_state = true;
        svg._fuxa_blink_timer = setTimeout(function() { fuxa_blink_tick(svgId); }, p.offTime);
      }
    }

    function startDualBlinking(strokeOff, strokeOn, fillOff, fillOn, onTime, offTime) {
      clearBlinking();
      // Ensure values are numbers
      onTime = Number(onTime) || 0;
      offTime = Number(offTime) || 0;
      const id = 'fuxaWidget';
      const svg = document.getElementById(id);
      if (!svg) return;
      svg._fuxa_blink_params = { strokeOff, strokeOn, fillOff, fillOn, onTime, offTime };
      svg._fuxa_blink_state = true;
      // start the tick by id (named function) for reliability
      fuxa_blink_tick(id);

      blinkObserver = new MutationObserver((mutations) => {
        mutations.forEach((mutation) => {
          mutation.removedNodes.forEach((node) => {
            if (node && node.id === 'fuxaWidget') {
              clearBlinking();
              if (blinkObserver) {
                blinkObserver.disconnect();
                blinkObserver = null;
              }
            }
          });
        });
      });
      blinkObserver.observe(document.body, { childList: true, subtree: true });
    }

    // FULL CLEAR BLINKING
    function clearBlinking() {
      if (blinkInterval) {
        clearInterval(blinkInterval);
        blinkInterval = null;
      }
      if (blinkTimer) {
        clearTimeout(blinkTimer);
        blinkTimer = null;
      }
      if (blinkObserver) {
        blinkObserver.disconnect();
        blinkObserver = null;
      }
      const svg = document.getElementById('fuxaWidget');
      if (svg) {
        if (svg._fuxa_blink_timer) { clearTimeout(svg._fuxa_blink_timer); svg._fuxa_blink_timer = null; }
        if (svg._fuxa_blink_params) { svg._fuxa_blink_params = null; }
        if (svg._fuxa_blink_state !== undefined) { svg._fuxa_blink_state = null; }
      }
    }]]></script>
</svg>
