<?xml version='1.0' encoding='UTF-8'?>
<svg xmlns="http://www.w3.org/2000/svg" xmlns:svg="http://www.w3.org/2000/svg" version="1.1" viewBox="0 0 48.450001 50" id="fuxaWidget" style="border: none !important; outline: none !important; box-shadow: none !important; margin: 0; padding: 0; background: transparent;" width="100%" height="100%">
  <g id="fuxaSymbol">
    <defs id="defs1"/>
    <g data-cell-id="gQ551Ar7PwXLAaA90adm-542" id="g6" transform="translate(-30.5,-0.5)">
      <g id="cell-gQ551Ar7PwXLAaA90adm-542">
        <g transform="translate(0.5,0.5)" id="g5">
          <path d="m 64.66,0 c -3.47,0 -6.06,1.07 -8.86,3.15 -0.25,0.18 -0.3,0.52 -0.12,0.77 0.09,0.12 0.22,0.19 0.37,0.22 0.14,0.02 0.29,-0.02 0.4,-0.11 2.7,-2 4.95,-2.93 8.21,-2.93 2.78,0 5.37,1.08 7.75,2.89 0.11,0.09 0.26,0.13 0.4,0.11 C 72.96,4.08 73.09,4.01 73.18,3.89 73.36,3.65 73.32,3.3 73.07,3.12 70.56,1.2 67.72,0 64.66,0 Z M 39.84,0.13 c -3.14,0 -5.69,2.55 -5.69,5.69 0,3.14 2.55,5.7 5.69,5.7 3.14,0 5.7,-2.56 5.7,-5.7 0,-3.14 -2.56,-5.69 -5.7,-5.69 z m 0,1.1 c 2.55,0 4.6,2.05 4.6,4.59 0,2.55 -2.05,4.6 -4.6,4.6 -2.54,0 -4.59,-2.05 -4.59,-4.6 0,-2.54 2.05,-4.59 4.59,-4.59 z m 24.69,5.12 c -1.83,0 -3.62,0.52 -5.31,1.93 -0.11,0.1 -0.18,0.23 -0.19,0.38 -0.01,0.14 0.03,0.29 0.13,0.4 0.19,0.23 0.54,0.26 0.77,0.07 1.51,-1.26 2.97,-1.68 4.6,-1.68 1.54,0 3.3,0.71 4.42,1.66 0.11,0.09 0.25,0.14 0.4,0.13 C 69.5,9.23 69.63,9.16 69.73,9.05 69.82,8.93 69.87,8.79 69.86,8.64 69.84,8.5 69.78,8.36 69.66,8.27 68.33,7.13 66.39,6.35 64.53,6.35 Z m 13.34,5.26 c -0.25,-0.02 -0.48,0.13 -0.56,0.36 l -3.64,10.26 c -0.19,0.36 -0.35,0.56 -0.57,0.69 -0.22,0.14 -0.56,0.23 -1.18,0.23 h -9.59 c -0.15,0 -0.29,0.06 -0.39,0.16 -0.11,0.1 -0.16,0.24 -0.16,0.39 0,0.14 0.05,0.28 0.16,0.39 0.1,0.1 0.24,0.16 0.39,0.16 h 9.59 c 0.73,0 1.3,-0.11 1.75,-0.38 0.46,-0.28 0.75,-0.69 0.98,-1.15 0.02,-0.02 0.03,-0.04 0.04,-0.07 l 3.66,-10.31 c 0.1,-0.29 -0.05,-0.6 -0.34,-0.7 -0.04,-0.02 -0.09,-0.03 -0.14,-0.03 z m -13.39,0.82 c -0.32,0 -0.63,0.12 -0.86,0.35 -0.23,0.23 -0.36,0.54 -0.36,0.86 0,0.32 0.13,0.63 0.36,0.86 0.23,0.23 0.54,0.36 0.86,0.36 0.67,0 1.21,-0.55 1.21,-1.22 0,-0.67 -0.54,-1.21 -1.21,-1.21 z m -24.7,1.27 c -0.35,0.01 -0.69,0.06 -1.03,0.17 -1.35,0.41 -2.51,1.71 -2.51,3.74 0,0 0,0 0,0 l 0.07,16.53 c 0,1.14 0.37,2.05 0.93,2.68 H 34.19 L 31.15,17.38 c -0.02,-0.14 -0.1,-0.27 -0.22,-0.36 -0.12,-0.08 -0.26,-0.12 -0.41,-0.1 -0.14,0.03 -0.27,0.11 -0.36,0.22 -0.09,0.12 -0.12,0.27 -0.1,0.41 l 3.1,19.79 -3.12,11.5 c -0.04,0.14 -0.02,0.29 0.05,0.41 0.08,0.13 0.2,0.22 0.34,0.26 0.29,0.08 0.59,-0.09 0.67,-0.39 l 3.04,-11.2 h 5.51 6.27 c 0,0 0.01,0 0.01,0 1.2,-0.02 1.99,0.57 2.63,2.07 0,0 0,0 0,0 l 3.35,7.75 c 0,0.01 0,0.02 0.01,0.02 0.83,1.72 2.97,2.24 4.65,1.39 0.01,0 0.01,-0.01 0.02,-0.01 1.83,-1.01 2.44,-3.12 1.79,-4.61 v 0 L 54.76,36.1 c -0.49,-1.27 -1.57,-2.62 -3.05,-3.7 -1.48,-1.07 -3.37,-1.85 -5.47,-1.85 h -2.71 l -0.03,-3.97 0.72,0.47 c 0,0 0.01,0.01 0.02,0.01 1.48,0.87 3.32,1.4 5.22,1.4 h 5.86 c 0.01,0 0.01,0 0.01,0 h 7.66 l -0.06,20.41 c 0,0.3 0.24,0.55 0.54,0.55 0.15,0 0.29,-0.05 0.39,-0.16 0.11,-0.1 0.17,-0.24 0.17,-0.39 L 64.1,28.46 h 13.11 c 0.15,0 0.29,-0.05 0.39,-0.16 0.1,-0.1 0.16,-0.24 0.16,-0.39 0,-0.14 -0.06,-0.28 -0.16,-0.39 -0.1,-0.1 -0.24,-0.16 -0.39,-0.16 H 57.78 c 0.59,-0.62 1.03,-1.54 1.03,-2.74 0,-0.87 -0.39,-1.72 -0.98,-2.38 -0.59,-0.66 -1.41,-1.15 -2.33,-1.15 h -5.27 c -1.6,-0.08 -2.73,-0.27 -4.04,-1.83 0,0 0,0 0,0 L 42.46,14.92 C 41.83,14.09 40.82,13.69 39.78,13.7 Z m 0.01,1.11 c 0.24,0 0.48,0.03 0.7,0.09 0.45,0.12 0.84,0.36 1.09,0.68 0,0.01 0.01,0.02 0.02,0.03 l 3.75,4.36 c 1.5,1.79 3.14,2.13 4.83,2.23 0.01,0 0.02,0 0.03,0 h 5.29 c 0.53,0 1.08,0.29 1.51,0.77 0.43,0.48 0.69,1.12 0.69,1.65 0,1.09 -0.4,1.73 -0.89,2.15 -0.5,0.42 -1.14,0.59 -1.49,0.59 h -5.86 c -1.69,0 -3.36,-0.48 -4.66,-1.24 0,-0.01 0,-0.01 0,-0.01 l -1.55,-1.02 c -0.17,-0.11 -0.39,-0.12 -0.57,-0.02 -0.18,0.09 -0.29,0.28 -0.29,0.49 l 0.04,5.54 c 0,0.3 0.25,0.55 0.55,0.55 h 3.26 c 1.83,0 3.5,0.68 4.82,1.64 1.33,0.97 2.29,2.21 2.67,3.21 0.01,0 0.01,0.01 0.01,0.02 l 3.63,8.45 c 0,0 0,0 0,0 0.37,0.85 0.02,2.46 -1.31,3.2 -1.2,0.6 -2.6,0.24 -3.15,-0.89 l -3.34,-7.72 c -0.73,-1.75 -2.03,-2.77 -3.66,-2.74 h -6.26 c -0.47,0 -1.04,-0.19 -1.47,-0.61 -0.43,-0.42 -0.76,-1.06 -0.76,-2.07 0,0 0,0 0,0 0,0 0,0 0,0 0,-0.01 0,-0.01 0,-0.01 0,0 0,0 0,0 L 37.35,17.61 c 0,-1.65 0.79,-2.4 1.72,-2.69 0.23,-0.07 0.48,-0.1 0.72,-0.11 z" fill="#000000" stroke="none" pointer-events="all" id="path4"/>
        </g>
      </g>
    </g>
  </g>
  <script type="text/javascript"><![CDATA[/*
    # =============================================
    # ===             How to Use                ===
    # =============================================

    Variables with the following prefix:

    _pb_ = bool   parameter ( true or false )
    _pn_ = number parameter ( Int, Float, Real etc )
    _ps_ = string parameter ( string can be entered directly )
    _pc_ = color parameter in hex color code ( #00ff00ff )

    Indicate variable type to be used in Fuxa Properties and binding of Tags, Important! they have to be place within:

    //!export-start
    let _pn_setState = 0;
    //!export-end

    There are 2x Functions to handle sending and receiving data between Fuxa and the SVG

    // Recieve Variables From Fuxa
    function putValue(id, value) { } 
    
    // Send Variables To Fuxa
    function postValue(id, value) {
      console.error('Not defined!');
    }

    The ID is the name of the variable _pn_setState for example and value is the value to be sent or received from Fuxa


    This SVG uses an INT/Number Variable to change the State and State of the SVG:

    0 = Off
    1 = Run
    2 = Warning
    3 = Fault
    4 = Invalid
    5 = Spare

    You can also use the bool field and this will change the state between 0 = off and 1 = run 

    You can also set the color for each state in Fuxa using HEX color code #b4b4b4
    The Default Blink Interval for On and Off is 500ms but can also be changed in Fuxa in MS resolution

    <svg>
      SVG Content Here
      <script>
        JS Script Content Here
      </script>
    </svg>

    */

	  // Global Parameters and Variables

    //!export-start
    let _pn_setState = 0;                     // 0=Off, 1=Run, 2=Warn, 3=Fault, 4=Invalid, 5=Spare
    let _pb_boolState = false;                // true = Run, false = Off
    let _pn_setIntervalOn = 500;              // ms fault color is ON
    let _pn_setIntervalOff = 500;             // ms fault color is OFF
    let _pn_strokeWidth = 1;                  // Global stroke width for all states
    let _pc_fill_0 = 'none';                  // Off
    let _pc_fill_1 = 'none';                  // Run
    let _pc_fill_2 = 'none';                  // Warn
    let _pc_fill_3 = 'none';                  // Fault
    let _pc_fill_4 = 'none';                  // Invalid
    let _pc_fill_5 = 'none';                  // Spare
    let _pc_stroke_0 = '#7f7f7f';             // Off
    let _pc_stroke_1 = '#00ff00';             // Run
    let _pc_stroke_2 = '#ff9500';             // Warn
    let _pc_stroke_3 = '#ff0000';             // Fault
    let _pc_stroke_4 = '#3c3c3c';             // Invalid
    let _pc_stroke_5 = '#dcdcdc';             // Spare
    let _pb_preserveAspectRatio = true;       // true = preserve aspect ratio, false = stretch
    let _pn_rotateAngle = 0;                  // degrees, 0 = no rotation
    let _pn_rotateOffsetX = 0;                // offset from center (0 = center)
    let _pn_rotateOffsetY = 0;                // offset from center (0 = center)
    let _pb_flipHorizontal = false;           // true = flip X
    let _pb_flipVertical = false;             // true = flip Y
    let _pn_flipOffsetX = 0;                  // offset from center (0 = center)
    let _pn_flipOffsetY = 0;                  // offset from center (0 = center)
    let _pn_padding = 0;                      // padding around SVG (default 0)
    //!export-end

    let stateNumber = 0;
    let blinkInterval = null;
    let blinkTimer = null;
    let blinkObserver = null;
    let originalViewBox = null;

    // Get dynamic center from SVG viewBox (uses originalViewBox if available)
    function getCenter() {
      const svg = document.getElementById('fuxaWidget');
      const symbol = document.getElementById('fuxaSymbol');
      if (!svg) return { x: 25.5, y: 25.5 };
      if (symbol && typeof symbol.getBBox === 'function') {
        const bb = symbol.getBBox();
        return { x: bb.x + bb.width / 2, y: bb.y + bb.height / 2 };
      }
      const vbString = originalViewBox || svg.getAttribute('viewBox') || '0 0 51 51';
      const vb = vbString.split(/\s+/).map(parseFloat);
      return { x: (vb[0] + vb[2]) / 2, y: (vb[1] + vb[3]) / 2 };
    }

    // Apply transform to symbol group
    function applyTransform() {
      const symbol = document.getElementById('fuxaSymbol');
      if (!symbol) return;
      const center = getCenter();
      const cx = center.x + _pn_rotateOffsetX + _pn_flipOffsetX;
      const cy = center.y + _pn_rotateOffsetY + _pn_flipOffsetY;
      let transform = '';
      if (_pb_flipHorizontal || _pb_flipVertical) {
        const scaleX = _pb_flipHorizontal ? -1 : 1;
        const scaleY = _pb_flipVertical ? -1 : 1;
        transform += `scale(${scaleX}, ${scaleY}) translate(${scaleX === -1 ? -cx * 2 : 0}, ${scaleY === -1 ? -cy * 2 : 0}) `;
      }
      if (_pn_rotateAngle !== 0) {
        transform += `rotate(${_pn_rotateAngle}, ${cx}, ${cy}) `;
      }
      symbol.setAttribute('transform', transform.trim() || '');
    }

    // Update viewBox with padding
    function updatePadding() {
      const svg = document.getElementById('fuxaWidget');
      const symbol = document.getElementById('fuxaSymbol');
      if (!svg) return;
      const pad = Math.max(0, _pn_padding || 0);
      // Prefer persisted original viewBox (stable) — if not present, persist a computed one using getBBox
      const persisted = svg.getAttribute('data-fuxa-orig-viewbox');
      if (persisted) {
        const vb = persisted.split(/\s+/).map(parseFloat);
        const width = vb[2] - vb[0];
        const height = vb[3] - vb[1];
        const padded = Math.max(width, height);
        const size = padded + 2 * pad;
        const offsetX = (padded - width) / 2;
        const offsetY = (padded - height) / 2;
        svg.setAttribute('viewBox', `${vb[0] - pad - offsetX} ${vb[1] - pad - offsetY} ${size} ${size}`);
        return;
      }
      if (symbol && typeof symbol.getBBox === 'function') {
        // Use the actual content bounds to compute the original viewBox and persist it
        const bb = symbol.getBBox();
        const contentSize = Math.max(bb.width, bb.height);
        const size = contentSize + 2 * pad;
        const cx = bb.x + bb.width / 2;
        const cy = bb.y + bb.height / 2;
        const x = cx - size / 2;
        const y = cy - size / 2;
        const vbString = `${x} ${y} ${size} ${size}`;
        svg.setAttribute('data-fuxa-orig-viewbox', vbString);
        originalViewBox = vbString;
        svg.setAttribute('viewBox', vbString);
        return;
      }
      // Fallback to original viewBox if getBBox is not available
      const vbString = originalViewBox || svg.getAttribute('viewBox') || '0 0 51 51';
      const vb = vbString.split(/\s+/).map(parseFloat);
      const width = vb[2] - vb[0];
      const height = vb[3] - vb[1];
      const padded = Math.max(width, height);
      const size = padded + 2 * pad;
      const offsetX = (padded - width) / 2;
      const offsetY = (padded - height) / 2;
      svg.setAttribute('viewBox', `${vb[0] - pad - offsetX} ${vb[1] - pad - offsetY} ${size} ${size}`);
    }

    // Function to update preserveAspectRatio
    function updatePreserveAspectRatio() {
      const svg = document.getElementById('fuxaWidget');
      if (!svg) return;
      if (_pb_preserveAspectRatio) {
        svg.setAttribute('preserveAspectRatio', 'xMidYMid meet');
      } else {
        svg.setAttribute('preserveAspectRatio', 'none');
      }
    }

    // Function to update the color based on the set state
    function logic() {
      switch (stateNumber) {
        case 0: // off
          setBaseColor(_pc_stroke_0, _pc_fill_0);
          clearBlinking();
          break;
        case 1: // run
          setBaseColor(_pc_stroke_1, _pc_fill_1);
          clearBlinking();
          break;
        case 2: // warning
          setBaseColor(_pc_stroke_2, _pc_fill_2);
          clearBlinking();
          break;
        case 3: // fault
          const onRaw = +_pn_setIntervalOn;
          const offRaw = +_pn_setIntervalOff;
          const on = (onRaw > 0) ? Math.max(50, onRaw) : 0;
          const off = (offRaw > 0) ? Math.max(50, offRaw) : 0;

          if (on === 0 || off === 0) {
            setBaseColor(_pc_stroke_3, _pc_fill_3);
            clearBlinking();
          } else {
            startDualBlinking(_pc_stroke_0, _pc_stroke_3, _pc_fill_0, _pc_fill_3, on, off);
          }
          break;
        case 4: // invalid
          setBaseColor(_pc_stroke_4, _pc_fill_4);
          clearBlinking();
          break;
        case 5: // spare
          setBaseColor(_pc_stroke_5, _pc_fill_5);
          clearBlinking();
          break;
        default:
          console.log('Undefined State');
          clearBlinking();
      }
    }

    // Initial setup
    function init() {
      // ensure no residual timers from previous initializations
      clearBlinking();
      const svg = document.getElementById('fuxaWidget');
      if (svg) {
        // Use or persist the original viewBox to prevent cumulative padding growth
        if (!svg.getAttribute('data-fuxa-orig-viewbox')) {
          svg.setAttribute('data-fuxa-orig-viewbox', svg.getAttribute('viewBox') || '0 0 51 51');
        }
        originalViewBox = svg.getAttribute('data-fuxa-orig-viewbox');
      }
      updatePadding();
      updatePreserveAspectRatio();
      applyTransform();
      logic();
    }

    // Function to update values from Fuxa
    function putValue(id, value) {
      let needsTransform = false;

      if (id === '_pn_setState') {
        stateNumber = value;
        logic();
      }
      if (id === '_pb_boolState') {
        _pb_boolState = value;
        if (_pb_boolState === true) {
          stateNumber = 1;
        } else if (_pb_boolState === false) {
          stateNumber = 0;
        }
        logic();
      }
      if (id === '_pn_setIntervalOn') {
        _pn_setIntervalOn = value;
        if (stateNumber === 3) logic();
      }
      if (id === '_pn_setIntervalOff') {
        _pn_setIntervalOff = value;
        if (stateNumber === 3) logic();
      }
      if (id === '_pn_strokeWidth') _pn_strokeWidth = value;
      if (id === '_pc_fill_0') _pc_fill_0 = value;
      if (id === '_pc_fill_1') _pc_fill_1 = value;
      if (id === '_pc_fill_2') _pc_fill_2 = value;
      if (id === '_pc_fill_3') _pc_fill_3 = value;
      if (id === '_pc_fill_4') _pc_fill_4 = value;
      if (id === '_pc_fill_5') _pc_fill_5 = value;
      if (id === '_pc_stroke_0') _pc_stroke_0 = value;
      if (id === '_pc_stroke_1') _pc_stroke_1 = value;
      if (id === '_pc_stroke_2') _pc_stroke_2 = value;
      if (id === '_pc_stroke_3') _pc_stroke_3 = value;
      if (id === '_pc_stroke_4') _pc_stroke_4 = value;
      if (id === '_pc_stroke_5') _pc_stroke_5 = value;

      // ROTATE
      if (id === '_pn_rotateAngle') { _pn_rotateAngle = value; needsTransform = true; }
      if (id === '_pn_rotateOffsetX') { _pn_rotateOffsetX = value; needsTransform = true; }
      if (id === '_pn_rotateOffsetY') { _pn_rotateOffsetY = value; needsTransform = true; }

      // FLIP
      if (id === '_pb_flipHorizontal') {
        _pb_flipHorizontal = (value === true || value === 1 || value === '1');
        needsTransform = true;
      }
      if (id === '_pb_flipVertical') {
        _pb_flipVertical = (value === true || value === 1 || value === '1');
        needsTransform = true;
      }
      if (id === '_pn_flipOffsetX') { _pn_flipOffsetX = value; needsTransform = true; }
      if (id === '_pn_flipOffsetY') { _pn_flipOffsetY = value; needsTransform = true; }

      // PADDING
      if (id === '_pn_padding') {
        _pn_padding = Math.max(0, +value || 0);
        updatePadding();
        needsTransform = true;
      }

      // PRESERVE ASPECT RATIO
      if (id === '_pb_preserveAspectRatio') {
        _pb_preserveAspectRatio = (value === true || value === 1 || value === '1');
        updatePreserveAspectRatio();
      }

      if (needsTransform) {
        applyTransform();
      }
    }

    // Function to send values back to Fuxa (placeholder)
    function postValue(id, value) {
      console.log('Not defined!');
    }

    // Make postValue globally available only if not already set by Fuxa
    if (!window.postValue) {
      window.postValue = postValue;
    }

    // Initialize the SVG
    init();

    // Re-run init when the page becomes visible (e.g., returning from editor)
    document.addEventListener('visibilitychange', function() {
      if (document.visibilityState === 'visible') {
        setTimeout(() => init(), 10);
      }
    });

    // Function to update the color for the base shape group
    function setBaseColor(strokeColor, fillColor) {
      const symbol = document.getElementById('fuxaSymbol');
      if (!symbol) return;
      symbol.querySelectorAll('*').forEach(function(elem) {
        try {
          // Set both presentation attributes and inline styles so existing style attributes
          // (e.g., style="fill:none") are overridden by the inline style setting.
          if (fillColor !== undefined && fillColor !== null) {
            elem.setAttribute('fill', fillColor);
            elem.style.fill = fillColor;
          }
          if (strokeColor !== undefined && strokeColor !== null) {
            elem.setAttribute('stroke', strokeColor);
            elem.style.stroke = strokeColor;
          }
          elem.setAttribute('stroke-width', _pn_strokeWidth);
          elem.style.strokeWidth = String(_pn_strokeWidth);
        } catch (e) {
          // Ignore if an element doesn't accept a property
        }
      });
      applyTransform();
    }

    // DUAL BLINK: onTime (fault), offTime (off) - simple top-level tick-by-id function
    // This follows the original approach — a named top-level tick function that schedules itself.
    function fuxa_blink_tick(svgId) {
      const svg = document.getElementById(svgId);
      if (!svg) {
        clearBlinking();
        return;
      }
      if (!svg || !svg._fuxa_blink_params) return;
      const p = svg._fuxa_blink_params;
      if (svg._fuxa_blink_state) {
        setBaseColor(p.strokeOn, p.fillOn);
        svg._fuxa_blink_state = false;
        svg._fuxa_blink_timer = setTimeout(function() { fuxa_blink_tick(svgId); }, p.onTime);
      } else {
        setBaseColor(p.strokeOff, p.fillOff);
        svg._fuxa_blink_state = true;
        svg._fuxa_blink_timer = setTimeout(function() { fuxa_blink_tick(svgId); }, p.offTime);
      }
    }

    function startDualBlinking(strokeOff, strokeOn, fillOff, fillOn, onTime, offTime) {
      clearBlinking();
      // Ensure values are numbers
      onTime = Number(onTime) || 0;
      offTime = Number(offTime) || 0;
      const id = 'fuxaWidget';
      const svg = document.getElementById(id);
      if (!svg) return;
      svg._fuxa_blink_params = { strokeOff, strokeOn, fillOff, fillOn, onTime, offTime };
      svg._fuxa_blink_state = true;
      // start the tick by id (named function) for reliability
      fuxa_blink_tick(id);

      blinkObserver = new MutationObserver((mutations) => {
        mutations.forEach((mutation) => {
          mutation.removedNodes.forEach((node) => {
            if (node && node.id === 'fuxaWidget') {
              clearBlinking();
              if (blinkObserver) {
                blinkObserver.disconnect();
                blinkObserver = null;
              }
            }
          });
        });
      });
      blinkObserver.observe(document.body, { childList: true, subtree: true });
    }

    // FULL CLEAR BLINKING
    function clearBlinking() {
      if (blinkInterval) {
        clearInterval(blinkInterval);
        blinkInterval = null;
      }
      if (blinkTimer) {
        clearTimeout(blinkTimer);
        blinkTimer = null;
      }
      if (blinkObserver) {
        blinkObserver.disconnect();
        blinkObserver = null;
      }
      const svg = document.getElementById('fuxaWidget');
      if (svg) {
        if (svg._fuxa_blink_timer) { clearTimeout(svg._fuxa_blink_timer); svg._fuxa_blink_timer = null; }
        if (svg._fuxa_blink_params) { svg._fuxa_blink_params = null; }
        if (svg._fuxa_blink_state !== undefined) { svg._fuxa_blink_state = null; }
      }
    }]]></script>
</svg>
