<?xml version='1.0' encoding='UTF-8'?>
<svg xmlns="http://www.w3.org/2000/svg" xmlns:svg="http://www.w3.org/2000/svg" version="1.1" viewBox="0 0 50 50" id="fuxaWidget" style="border: none !important; outline: none !important; box-shadow: none !important; margin: 0; padding: 0; background: transparent;" width="100%" height="100%">
  <g id="fuxaSymbol">
    <defs id="defs1"/>
    <g data-cell-id="gQ551Ar7PwXLAaA90adm-544" id="g10" transform="translate(-30.5,-0.5)">
      <g id="cell-gQ551Ar7PwXLAaA90adm-544">
        <g transform="translate(0.5,0.5)" id="g9">
          <path d="m 38.51,0 c -0.36,0 -0.68,0.03 -0.96,0.07 0,0 0,0 0,0 -0.35,0.05 -0.69,0.17 -0.97,0.46 -0.14,0.15 -0.27,0.36 -0.29,0.61 -0.02,0.26 0.07,0.51 0.23,0.71 0.01,0.02 0.02,0.03 0.03,0.05 l 3.44,3.64 C 41,6.73 40.68,8.61 39.65,9.55 38.27,10.7 36.8,10.64 35.87,9.86 L 32.44,6.42 c 0,-0.01 0,-0.01 -0.01,-0.01 -0.32,-0.31 -0.81,-0.42 -1.18,-0.26 -0.37,0.16 -0.61,0.5 -0.68,0.89 -0.57,2.39 0.12,5.34 2.61,7.47 0.01,0.01 0.02,0.01 0.02,0.02 1.94,1.5 3.73,2.25 7.34,1.76 0,0 0,0 0,0 0.29,-0.03 1.13,0.24 1.46,0.59 0.01,0 0.01,0.01 0.02,0.01 l 4.93,4.93 -13.85,13.81 c -0.01,0.01 -0.01,0.01 -0.02,0.02 -2.79,3.11 -2.94,7.13 -0.38,10.55 0.01,0.01 0.01,0.02 0.02,0.03 3.14,3.77 8.06,3.61 11.24,0.9 0.01,-0.01 0.02,-0.02 0.03,-0.03 L 58.14,33 l 5.27,5.27 c 0.02,0.03 0.1,0.18 0.13,0.46 0.03,0.27 0.01,0.63 -0.02,1.02 -0.17,1.97 -0.05,3.38 0.4,4.59 0.46,1.2 1.24,2.14 2.3,3.19 0,0 0,0 0,0 1.05,1.06 2.32,1.65 3.48,1.94 1.17,0.28 2.22,0.27 2.96,0.08 0,0 0.01,-0.01 0.01,-0.01 0.47,-0.14 0.85,-0.42 1.02,-0.83 0.16,-0.41 0.04,-0.89 -0.24,-1.22 -0.01,-0.01 -0.02,-0.02 -0.03,-0.03 l -3.39,-3.47 c -0.3,-0.34 -0.51,-1.05 -0.44,-1.8 0.06,-0.76 0.36,-1.54 0.9,-2.04 0,-0.01 0.01,-0.01 0.01,-0.02 0.52,-0.53 1.26,-0.8 1.99,-0.83 0.72,-0.03 1.4,0.2 1.7,0.49 v -0.01 l 3.74,3.58 c 0,0 0,0 0,0 0.35,0.34 0.85,0.28 1.18,0.11 0.32,-0.17 0.6,-0.48 0.66,-0.91 0,-0.01 0,-0.02 0,-0.02 0.23,-2.19 -0.15,-4.52 -1.89,-6.49 0,0 -0.01,-0.01 -0.02,-0.02 -2.57,-2.62 -4.9,-2.99 -7.55,-2.72 v 0 c -0.68,0.06 -1.22,-0.13 -1.63,-0.51 l -8.14,-8.17 11.82,-11.77 3.17,-1.11 c 0.12,-0.04 0.22,-0.12 0.28,-0.23 l 2.88,-4.78 c 0,0 0,0 0,-0.01 0.24,-0.4 0.23,-0.82 0.2,-1.21 C 78.87,5.32 78.84,5.13 78.78,4.96 78.73,4.78 78.69,4.63 78.53,4.45 78.52,4.44 78.51,4.43 78.51,4.43 L 75.32,1.29 C 75.05,1.02 74.72,0.91 74.41,0.86 v 0 C 74.09,0.82 73.8,0.83 73.49,1.03 L 68.41,4.02 C 68.3,4.09 68.22,4.19 68.18,4.31 L 67,7.71 55.27,19.34 46.88,10.92 c 0,0 0,0 0,0 0,0 0,0 0,0 0,0 0,0 0,0 -0.04,-0.05 -0.16,-0.26 -0.21,-0.51 -0.06,-0.25 -0.07,-0.53 -0.05,-0.67 0,-0.01 0,-0.02 0,-0.03 C 46.7,8.57 46.79,7.34 46.44,6.04 46.1,4.73 45.32,3.37 43.76,1.99 42.21,0.54 40.34,0.07 38.87,0.01 H 38.86 C 38.74,0 38.62,0 38.51,0 Z M 38.5,1.08 c 1.29,0 3.1,0.37 4.54,1.7 0,0 0,0 0.01,0 1.43,1.28 2.06,2.43 2.35,3.53 0.29,1.1 0.23,2.19 0.15,3.33 V 9.61 c -0.04,0.32 -0.01,0.67 0.07,1.04 0.08,0.36 0.21,0.73 0.5,1.03 l 21.81,21.89 c 0,0 0,0 0.01,0 0.63,0.61 1.52,0.9 2.47,0.81 0,0 0,0 0.01,0 2.5,-0.25 4.27,-0.03 6.67,2.4 1.5,1.7 1.82,3.65 1.62,5.63 0,0 -0.05,0.07 -0.11,0.11 L 74.93,39.01 C 74.93,39 74.92,39 74.92,39 74.31,38.43 73.4,38.19 72.44,38.23 c -0.95,0.04 -1.95,0.39 -2.7,1.15 -0.76,0.73 -1.14,1.75 -1.22,2.72 -0.08,0.98 0.12,1.95 0.71,2.6 0,0.01 0.01,0.02 0.02,0.02 l 3.38,3.47 c 0.08,0.09 0.07,0.11 0.06,0.13 -0.01,0.02 -0.07,0.11 -0.32,0.19 -0.48,0.12 -1.41,0.16 -2.42,-0.09 -1,-0.24 -2.09,-0.75 -2.97,-1.64 0,-0.01 0,-0.01 0,-0.01 -1.02,-1.01 -1.68,-1.82 -2.05,-2.82 -0.38,-0.99 -0.5,-2.23 -0.34,-4.11 0,0 0,0 0,0 0,0 0,0 0,0 0,0 0,0 0,0 0.04,-0.41 0.06,-0.83 0.02,-1.22 -0.04,-0.39 -0.13,-0.79 -0.43,-1.1 0,0 0,0 -0.01,-0.01 L 42.78,16.14 c -0.63,-0.67 -1.56,-1.01 -2.37,-0.91 0,0 0,0 0,0 -3.44,0.46 -4.7,-0.12 -6.54,-1.54 -2.19,-1.88 -2.74,-4.41 -2.26,-6.42 0.01,-0.01 0.01,-0.02 0.01,-0.02 0.01,-0.06 0.03,-0.09 0.04,-0.1 0,0.01 0,0.01 0.03,0.04 l 3.45,3.46 c 0.01,0.01 0.02,0.02 0.03,0.03 1.35,1.14 3.48,1.12 5.18,-0.32 0.01,0 0.01,0 0.02,-0.01 1.47,-1.33 1.87,-3.83 0.43,-5.51 -0.01,0 -0.01,-0.01 -0.02,-0.02 L 37.42,1.25 C 37.48,1.21 37.59,1.15 37.7,1.13 37.93,1.1 38.2,1.08 38.5,1.08 Z m 35.72,0.85 c 0.02,0 0.03,0 0.05,0 0.12,0.02 0.24,0.08 0.29,0.12 0,0 0,0 0,0.01 l 3.15,3.09 c 0,0.01 0.03,0.04 0.04,0.11 0.03,0.09 0.06,0.22 0.07,0.35 0.02,0.27 -0.04,0.56 -0.05,0.58 l -2.78,4.61 -3.1,1.09 c -0.08,0.02 -0.14,0.07 -0.2,0.12 L 59.78,23.87 56.03,20.1 67.85,8.39 c 0.06,-0.06 0.1,-0.13 0.13,-0.21 l 1.15,-3.33 4.93,-2.91 c 0,0 0.01,-0.01 0.01,-0.01 -0.04,0.03 0.04,0 0.15,0 z m -26.51,20.65 9.67,9.66 -14.12,14.07 c -2.79,2.38 -6.92,2.57 -9.71,-0.76 -2.3,-3.09 -2.18,-6.39 0.32,-9.17 z m 0.68,3.79 c -0.02,0 -0.05,0 -0.07,0 -0.39,0.01 -0.73,0.17 -1,0.41 -0.01,0 -0.01,0.01 -0.02,0.02 L 34.86,39.22 c -0.29,0.3 -0.5,0.67 -0.53,1.08 -0.04,0.41 0.11,0.86 0.44,1.18 0.62,0.6 1.73,0.58 2.5,-0.24 L 49.44,29.03 v 0 c 0.58,-0.56 0.66,-1.55 0.03,-2.19 -0.01,-0.01 -0.01,-0.01 -0.02,-0.02 -0.31,-0.29 -0.69,-0.44 -1.06,-0.45 z m -0.04,1.08 c 0.1,-0.01 0.21,0.03 0.36,0.15 0.2,0.22 0.15,0.5 -0.01,0.66 -0.01,0 -0.01,0 -0.01,0.01 L 36.5,40.5 c -0.01,0 -0.01,0 -0.01,0.01 -0.47,0.5 -0.77,0.39 -0.97,0.2 -0.12,-0.12 -0.14,-0.2 -0.13,-0.31 0.02,-0.11 0.08,-0.27 0.23,-0.42 0,0 0,0 0,0 l 12.41,-12.4 c 0,0 0,0 0,0 0.1,-0.08 0.22,-0.13 0.32,-0.13 z m 3.78,2.48 c -0.02,0 -0.05,0 -0.07,0 -0.39,0.02 -0.73,0.18 -1,0.41 -0.01,0.01 -0.02,0.01 -0.02,0.02 L 38.6,42.79 c -0.29,0.29 -0.5,0.66 -0.54,1.07 -0.03,0.42 0.12,0.86 0.45,1.18 0.62,0.6 1.73,0.58 2.49,-0.23 L 53.18,32.59 c 0.58,-0.56 0.66,-1.55 0.03,-2.19 -0.01,-0.01 -0.01,-0.01 -0.02,-0.02 -0.31,-0.29 -0.7,-0.44 -1.06,-0.45 z m -0.04,1.08 v 0 c 0.1,0 0.21,0.03 0.36,0.16 0.19,0.21 0.14,0.5 -0.02,0.65 0,0 0,0.01 0,0.01 l -12.2,12.23 c 0,0 0,0.01 -0.01,0.01 -0.47,0.5 -0.76,0.4 -0.96,0.2 -0.12,-0.12 -0.14,-0.19 -0.13,-0.31 0.01,-0.11 0.08,-0.27 0.23,-0.41 l 12.41,-12.4 c 0,0 0,0 0,0 0.1,-0.09 0.21,-0.14 0.32,-0.14 z" fill="#000000" stroke="none" pointer-events="all" id="path8"/>
        </g>
      </g>
    </g>
  </g>
  <script type="text/javascript"><![CDATA[/*
    # =============================================
    # ===             How to Use                ===
    # =============================================

    Variables with the following prefix:

    _pb_ = bool   parameter ( true or false )
    _pn_ = number parameter ( Int, Float, Real etc )
    _ps_ = string parameter ( string can be entered directly )
    _pc_ = color parameter in hex color code ( #00ff00ff )

    Indicate variable type to be used in Fuxa Properties and binding of Tags, Important! they have to be place within:

    //!export-start
    let _pn_setState = 0;
    //!export-end

    There are 2x Functions to handle sending and receiving data between Fuxa and the SVG

    // Recieve Variables From Fuxa
    function putValue(id, value) { } 
    
    // Send Variables To Fuxa
    function postValue(id, value) {
      console.error('Not defined!');
    }

    The ID is the name of the variable _pn_setState for example and value is the value to be sent or received from Fuxa


    This SVG uses an INT/Number Variable to change the State and State of the SVG:

    0 = Off
    1 = Run
    2 = Warning
    3 = Fault
    4 = Invalid
    5 = Spare

    You can also use the bool field and this will change the state between 0 = off and 1 = run 

    You can also set the color for each state in Fuxa using HEX color code #b4b4b4
    The Default Blink Interval for On and Off is 500ms but can also be changed in Fuxa in MS resolution

    <svg>
      SVG Content Here
      <script>
        JS Script Content Here
      </script>
    </svg>

    */

	  // Global Parameters and Variables

    //!export-start
    let _pn_setState = 0;                     // 0=Off, 1=Run, 2=Warn, 3=Fault, 4=Invalid, 5=Spare
    let _pb_boolState = false;                // true = Run, false = Off
    let _pn_setIntervalOn = 500;              // ms fault color is ON
    let _pn_setIntervalOff = 500;             // ms fault color is OFF
    let _pn_strokeWidth = 1;                  // Global stroke width for all states
    let _pc_fill_0 = 'none';                  // Off
    let _pc_fill_1 = 'none';                  // Run
    let _pc_fill_2 = 'none';                  // Warn
    let _pc_fill_3 = 'none';                  // Fault
    let _pc_fill_4 = 'none';                  // Invalid
    let _pc_fill_5 = 'none';                  // Spare
    let _pc_stroke_0 = '#7f7f7f';             // Off
    let _pc_stroke_1 = '#00ff00';             // Run
    let _pc_stroke_2 = '#ff9500';             // Warn
    let _pc_stroke_3 = '#ff0000';             // Fault
    let _pc_stroke_4 = '#3c3c3c';             // Invalid
    let _pc_stroke_5 = '#dcdcdc';             // Spare
    let _pb_preserveAspectRatio = true;       // true = preserve aspect ratio, false = stretch
    let _pn_rotateAngle = 0;                  // degrees, 0 = no rotation
    let _pn_rotateOffsetX = 0;                // offset from center (0 = center)
    let _pn_rotateOffsetY = 0;                // offset from center (0 = center)
    let _pb_flipHorizontal = false;           // true = flip X
    let _pb_flipVertical = false;             // true = flip Y
    let _pn_flipOffsetX = 0;                  // offset from center (0 = center)
    let _pn_flipOffsetY = 0;                  // offset from center (0 = center)
    let _pn_padding = 0;                      // padding around SVG (default 0)
    //!export-end

    let stateNumber = 0;
    let blinkInterval = null;
    let blinkTimer = null;
    let blinkObserver = null;
    let originalViewBox = null;

    // Get dynamic center from SVG viewBox (uses originalViewBox if available)
    function getCenter() {
      const svg = document.getElementById('fuxaWidget');
      const symbol = document.getElementById('fuxaSymbol');
      if (!svg) return { x: 25.5, y: 25.5 };
      if (symbol && typeof symbol.getBBox === 'function') {
        const bb = symbol.getBBox();
        return { x: bb.x + bb.width / 2, y: bb.y + bb.height / 2 };
      }
      const vbString = originalViewBox || svg.getAttribute('viewBox') || '0 0 51 51';
      const vb = vbString.split(/\s+/).map(parseFloat);
      return { x: (vb[0] + vb[2]) / 2, y: (vb[1] + vb[3]) / 2 };
    }

    // Apply transform to symbol group
    function applyTransform() {
      const symbol = document.getElementById('fuxaSymbol');
      if (!symbol) return;
      const center = getCenter();
      const cx = center.x + _pn_rotateOffsetX + _pn_flipOffsetX;
      const cy = center.y + _pn_rotateOffsetY + _pn_flipOffsetY;
      let transform = '';
      if (_pb_flipHorizontal || _pb_flipVertical) {
        const scaleX = _pb_flipHorizontal ? -1 : 1;
        const scaleY = _pb_flipVertical ? -1 : 1;
        transform += `scale(${scaleX}, ${scaleY}) translate(${scaleX === -1 ? -cx * 2 : 0}, ${scaleY === -1 ? -cy * 2 : 0}) `;
      }
      if (_pn_rotateAngle !== 0) {
        transform += `rotate(${_pn_rotateAngle}, ${cx}, ${cy}) `;
      }
      symbol.setAttribute('transform', transform.trim() || '');
    }

    // Update viewBox with padding
    function updatePadding() {
      const svg = document.getElementById('fuxaWidget');
      const symbol = document.getElementById('fuxaSymbol');
      if (!svg) return;
      const pad = Math.max(0, _pn_padding || 0);
      // Prefer persisted original viewBox (stable) — if not present, persist a computed one using getBBox
      const persisted = svg.getAttribute('data-fuxa-orig-viewbox');
      if (persisted) {
        const vb = persisted.split(/\s+/).map(parseFloat);
        const width = vb[2] - vb[0];
        const height = vb[3] - vb[1];
        const padded = Math.max(width, height);
        const size = padded + 2 * pad;
        const offsetX = (padded - width) / 2;
        const offsetY = (padded - height) / 2;
        svg.setAttribute('viewBox', `${vb[0] - pad - offsetX} ${vb[1] - pad - offsetY} ${size} ${size}`);
        return;
      }
      if (symbol && typeof symbol.getBBox === 'function') {
        // Use the actual content bounds to compute the original viewBox and persist it
        const bb = symbol.getBBox();
        const contentSize = Math.max(bb.width, bb.height);
        const size = contentSize + 2 * pad;
        const cx = bb.x + bb.width / 2;
        const cy = bb.y + bb.height / 2;
        const x = cx - size / 2;
        const y = cy - size / 2;
        const vbString = `${x} ${y} ${size} ${size}`;
        svg.setAttribute('data-fuxa-orig-viewbox', vbString);
        originalViewBox = vbString;
        svg.setAttribute('viewBox', vbString);
        return;
      }
      // Fallback to original viewBox if getBBox is not available
      const vbString = originalViewBox || svg.getAttribute('viewBox') || '0 0 51 51';
      const vb = vbString.split(/\s+/).map(parseFloat);
      const width = vb[2] - vb[0];
      const height = vb[3] - vb[1];
      const padded = Math.max(width, height);
      const size = padded + 2 * pad;
      const offsetX = (padded - width) / 2;
      const offsetY = (padded - height) / 2;
      svg.setAttribute('viewBox', `${vb[0] - pad - offsetX} ${vb[1] - pad - offsetY} ${size} ${size}`);
    }

    // Function to update preserveAspectRatio
    function updatePreserveAspectRatio() {
      const svg = document.getElementById('fuxaWidget');
      if (!svg) return;
      if (_pb_preserveAspectRatio) {
        svg.setAttribute('preserveAspectRatio', 'xMidYMid meet');
      } else {
        svg.setAttribute('preserveAspectRatio', 'none');
      }
    }

    // Function to update the color based on the set state
    function logic() {
      switch (stateNumber) {
        case 0: // off
          setBaseColor(_pc_stroke_0, _pc_fill_0);
          clearBlinking();
          break;
        case 1: // run
          setBaseColor(_pc_stroke_1, _pc_fill_1);
          clearBlinking();
          break;
        case 2: // warning
          setBaseColor(_pc_stroke_2, _pc_fill_2);
          clearBlinking();
          break;
        case 3: // fault
          const onRaw = +_pn_setIntervalOn;
          const offRaw = +_pn_setIntervalOff;
          const on = (onRaw > 0) ? Math.max(50, onRaw) : 0;
          const off = (offRaw > 0) ? Math.max(50, offRaw) : 0;

          if (on === 0 || off === 0) {
            setBaseColor(_pc_stroke_3, _pc_fill_3);
            clearBlinking();
          } else {
            startDualBlinking(_pc_stroke_0, _pc_stroke_3, _pc_fill_0, _pc_fill_3, on, off);
          }
          break;
        case 4: // invalid
          setBaseColor(_pc_stroke_4, _pc_fill_4);
          clearBlinking();
          break;
        case 5: // spare
          setBaseColor(_pc_stroke_5, _pc_fill_5);
          clearBlinking();
          break;
        default:
          console.log('Undefined State');
          clearBlinking();
      }
    }

    // Initial setup
    function init() {
      // ensure no residual timers from previous initializations
      clearBlinking();
      const svg = document.getElementById('fuxaWidget');
      if (svg) {
        // Use or persist the original viewBox to prevent cumulative padding growth
        if (!svg.getAttribute('data-fuxa-orig-viewbox')) {
          svg.setAttribute('data-fuxa-orig-viewbox', svg.getAttribute('viewBox') || '0 0 51 51');
        }
        originalViewBox = svg.getAttribute('data-fuxa-orig-viewbox');
      }
      updatePadding();
      updatePreserveAspectRatio();
      applyTransform();
      logic();
    }

    // Function to update values from Fuxa
    function putValue(id, value) {
      let needsTransform = false;

      if (id === '_pn_setState') {
        stateNumber = value;
        logic();
      }
      if (id === '_pb_boolState') {
        _pb_boolState = value;
        if (_pb_boolState === true) {
          stateNumber = 1;
        } else if (_pb_boolState === false) {
          stateNumber = 0;
        }
        logic();
      }
      if (id === '_pn_setIntervalOn') {
        _pn_setIntervalOn = value;
        if (stateNumber === 3) logic();
      }
      if (id === '_pn_setIntervalOff') {
        _pn_setIntervalOff = value;
        if (stateNumber === 3) logic();
      }
      if (id === '_pn_strokeWidth') _pn_strokeWidth = value;
      if (id === '_pc_fill_0') _pc_fill_0 = value;
      if (id === '_pc_fill_1') _pc_fill_1 = value;
      if (id === '_pc_fill_2') _pc_fill_2 = value;
      if (id === '_pc_fill_3') _pc_fill_3 = value;
      if (id === '_pc_fill_4') _pc_fill_4 = value;
      if (id === '_pc_fill_5') _pc_fill_5 = value;
      if (id === '_pc_stroke_0') _pc_stroke_0 = value;
      if (id === '_pc_stroke_1') _pc_stroke_1 = value;
      if (id === '_pc_stroke_2') _pc_stroke_2 = value;
      if (id === '_pc_stroke_3') _pc_stroke_3 = value;
      if (id === '_pc_stroke_4') _pc_stroke_4 = value;
      if (id === '_pc_stroke_5') _pc_stroke_5 = value;

      // ROTATE
      if (id === '_pn_rotateAngle') { _pn_rotateAngle = value; needsTransform = true; }
      if (id === '_pn_rotateOffsetX') { _pn_rotateOffsetX = value; needsTransform = true; }
      if (id === '_pn_rotateOffsetY') { _pn_rotateOffsetY = value; needsTransform = true; }

      // FLIP
      if (id === '_pb_flipHorizontal') {
        _pb_flipHorizontal = (value === true || value === 1 || value === '1');
        needsTransform = true;
      }
      if (id === '_pb_flipVertical') {
        _pb_flipVertical = (value === true || value === 1 || value === '1');
        needsTransform = true;
      }
      if (id === '_pn_flipOffsetX') { _pn_flipOffsetX = value; needsTransform = true; }
      if (id === '_pn_flipOffsetY') { _pn_flipOffsetY = value; needsTransform = true; }

      // PADDING
      if (id === '_pn_padding') {
        _pn_padding = Math.max(0, +value || 0);
        updatePadding();
        needsTransform = true;
      }

      // PRESERVE ASPECT RATIO
      if (id === '_pb_preserveAspectRatio') {
        _pb_preserveAspectRatio = (value === true || value === 1 || value === '1');
        updatePreserveAspectRatio();
      }

      if (needsTransform) {
        applyTransform();
      }
    }

    // Function to send values back to Fuxa (placeholder)
    function postValue(id, value) {
      console.log('Not defined!');
    }

    // Make postValue globally available only if not already set by Fuxa
    if (!window.postValue) {
      window.postValue = postValue;
    }

    // Initialize the SVG
    init();

    // Re-run init when the page becomes visible (e.g., returning from editor)
    document.addEventListener('visibilitychange', function() {
      if (document.visibilityState === 'visible') {
        setTimeout(() => init(), 10);
      }
    });

    // Function to update the color for the base shape group
    function setBaseColor(strokeColor, fillColor) {
      const symbol = document.getElementById('fuxaSymbol');
      if (!symbol) return;
      symbol.querySelectorAll('*').forEach(function(elem) {
        try {
          // Set both presentation attributes and inline styles so existing style attributes
          // (e.g., style="fill:none") are overridden by the inline style setting.
          if (fillColor !== undefined && fillColor !== null) {
            elem.setAttribute('fill', fillColor);
            elem.style.fill = fillColor;
          }
          if (strokeColor !== undefined && strokeColor !== null) {
            elem.setAttribute('stroke', strokeColor);
            elem.style.stroke = strokeColor;
          }
          elem.setAttribute('stroke-width', _pn_strokeWidth);
          elem.style.strokeWidth = String(_pn_strokeWidth);
        } catch (e) {
          // Ignore if an element doesn't accept a property
        }
      });
      applyTransform();
    }

    // DUAL BLINK: onTime (fault), offTime (off) - simple top-level tick-by-id function
    // This follows the original approach — a named top-level tick function that schedules itself.
    function fuxa_blink_tick(svgId) {
      const svg = document.getElementById(svgId);
      if (!svg) {
        clearBlinking();
        return;
      }
      if (!svg || !svg._fuxa_blink_params) return;
      const p = svg._fuxa_blink_params;
      if (svg._fuxa_blink_state) {
        setBaseColor(p.strokeOn, p.fillOn);
        svg._fuxa_blink_state = false;
        svg._fuxa_blink_timer = setTimeout(function() { fuxa_blink_tick(svgId); }, p.onTime);
      } else {
        setBaseColor(p.strokeOff, p.fillOff);
        svg._fuxa_blink_state = true;
        svg._fuxa_blink_timer = setTimeout(function() { fuxa_blink_tick(svgId); }, p.offTime);
      }
    }

    function startDualBlinking(strokeOff, strokeOn, fillOff, fillOn, onTime, offTime) {
      clearBlinking();
      // Ensure values are numbers
      onTime = Number(onTime) || 0;
      offTime = Number(offTime) || 0;
      const id = 'fuxaWidget';
      const svg = document.getElementById(id);
      if (!svg) return;
      svg._fuxa_blink_params = { strokeOff, strokeOn, fillOff, fillOn, onTime, offTime };
      svg._fuxa_blink_state = true;
      // start the tick by id (named function) for reliability
      fuxa_blink_tick(id);

      blinkObserver = new MutationObserver((mutations) => {
        mutations.forEach((mutation) => {
          mutation.removedNodes.forEach((node) => {
            if (node && node.id === 'fuxaWidget') {
              clearBlinking();
              if (blinkObserver) {
                blinkObserver.disconnect();
                blinkObserver = null;
              }
            }
          });
        });
      });
      blinkObserver.observe(document.body, { childList: true, subtree: true });
    }

    // FULL CLEAR BLINKING
    function clearBlinking() {
      if (blinkInterval) {
        clearInterval(blinkInterval);
        blinkInterval = null;
      }
      if (blinkTimer) {
        clearTimeout(blinkTimer);
        blinkTimer = null;
      }
      if (blinkObserver) {
        blinkObserver.disconnect();
        blinkObserver = null;
      }
      const svg = document.getElementById('fuxaWidget');
      if (svg) {
        if (svg._fuxa_blink_timer) { clearTimeout(svg._fuxa_blink_timer); svg._fuxa_blink_timer = null; }
        if (svg._fuxa_blink_params) { svg._fuxa_blink_params = null; }
        if (svg._fuxa_blink_state !== undefined) { svg._fuxa_blink_state = null; }
      }
    }]]></script>
</svg>
