<?xml version='1.0' encoding='UTF-8'?>
<svg xmlns="http://www.w3.org/2000/svg" xmlns:svg="http://www.w3.org/2000/svg" version="1.1" viewBox="0 0 48.080002 50" id="fuxaWidget" style="border: none !important; outline: none !important; box-shadow: none !important; margin: 0; padding: 0; background: transparent;" width="100%" height="100%">
  <g id="fuxaSymbol">
    <defs id="defs1"/>
    <g data-cell-id="gQ551Ar7PwXLAaA90adm-536" id="g14" transform="translate(-0.5,-0.5)">
      <g id="cell-gQ551Ar7PwXLAaA90adm-536">
        <g transform="translate(0.5,0.5)" id="g13">
          <path d="m 36.59,0 c -0.14,0 -0.27,0.06 -0.37,0.16 -0.1,0.09 -0.16,0.23 -0.16,0.37 V 4.07 H 35.5 V 2.79 c 0,-0.14 -0.05,-0.27 -0.15,-0.37 -0.1,-0.1 -0.24,-0.16 -0.38,-0.16 -0.14,0 -0.27,0.06 -0.37,0.16 -0.1,0.1 -0.16,0.23 -0.16,0.37 V 4.07 H 24.23 c -0.24,0 -0.44,0.15 -0.51,0.37 l -1.44,4.65 c -0.05,0.16 -0.02,0.34 0.08,0.47 l 6.22,8.41 V 31.74 L 3.15,31.69 c 0,0 0,0 0,0 -0.74,0 -1.37,0.34 -1.77,0.84 -0.39,0.5 -0.58,1.13 -0.58,1.77 0,0 0,0 0,0 l 0.03,15.17 c 0,0.14 0.06,0.28 0.16,0.38 0.1,0.09 0.23,0.15 0.37,0.15 l 45.68,-0.15 c 0.3,0 0.53,-0.23 0.53,-0.53 L 47.54,34.25 c 0,-0.61 -0.2,-1.21 -0.59,-1.68 -0.39,-0.47 -0.99,-0.8 -1.7,-0.8 v 0 L 41.98,31.76 V 17.87 L 47.96,9.26 C 48.05,9.13 48.08,8.96 48.03,8.8 L 46.71,4.45 C 46.64,4.22 46.43,4.07 46.2,4.07 H 37.12 V 0.53 C 37.12,0.24 36.88,0 36.59,0 Z M 24.62,5.13 h 21.19 l 1.13,3.74 -5.93,8.53 c -0.06,0.09 -0.09,0.19 -0.09,0.3 V 31.76 L 29.64,31.74 V 17.8 c 0,-0.12 -0.03,-0.23 -0.1,-0.32 L 23.38,9.15 Z m 2.41,2.76 c -0.2,0 -0.38,0.11 -0.47,0.29 -0.09,0.17 -0.08,0.38 0.04,0.54 l 3.85,5.52 c 0.1,0.14 0.27,0.23 0.44,0.23 h 8.19 c 0.17,0 0.34,-0.09 0.43,-0.23 L 43.38,8.73 C 43.49,8.56 43.51,8.35 43.42,8.18 43.32,8 43.14,7.89 42.95,7.89 Z m 1.02,1.06 h 4.16 v 4.46 h -1.04 z m 5.22,0 h 3.43 v 4.46 h -3.43 z m 4.49,0 h 4.17 l -3.12,4.46 h -1.05 z m -17.74,4.87 c -0.16,0 -0.31,0.07 -0.41,0.19 l -2.79,3.28 h -2.2 l 1.67,-1.36 c 0.18,-0.14 0.24,-0.38 0.17,-0.59 -0.08,-0.21 -0.28,-0.35 -0.5,-0.35 h -3.1 c -0.09,0 -0.18,0.02 -0.26,0.07 L 8.62,17.29 H 4.09 c 0,0 0,0 0,0 -0.33,0 -0.73,0.01 -1.23,0.19 -0.5,0.17 -1.09,0.51 -2,1.13 -0.01,0.01 -0.02,0.02 -0.03,0.02 -0.34,0.27 -0.59,0.56 -0.71,0.9 -0.12,0.34 -0.08,0.73 0.09,1.03 0.35,0.58 1.03,0.82 1.81,0.88 0.02,0 0.03,0 0.04,0 h 5.96 l 4.62,2.68 c 0.08,0.05 0.18,0.08 0.27,0.08 h 3.47 c 0.22,0 0.42,-0.15 0.5,-0.36 0.07,-0.21 0.01,-0.45 -0.17,-0.59 l -2.24,-1.81 h 6 c 0.22,0 0.42,-0.14 0.5,-0.35 l 2.3,-6.57 c 0.06,-0.16 0.04,-0.34 -0.06,-0.48 -0.1,-0.14 -0.26,-0.22 -0.43,-0.22 z m 0.24,1.06 h 1.77 l -1.94,5.5 h -7.12 c -0.23,0 -0.43,0.15 -0.51,0.36 -0.07,0.21 0,0.45 0.17,0.59 l 2.25,1.81 H 13.05 L 8.43,20.46 C 8.35,20.41 8.25,20.38 8.16,20.38 H 2.1 C 1.53,20.34 1.18,20.11 1.12,20.02 c -0.02,-0.05 -0.03,-0.05 0,-0.13 0.03,-0.08 0.13,-0.23 0.36,-0.42 0.05,-0.03 0.09,-0.06 0.14,-0.09 0,0 0,0 0,0 l 2.17,0.15 C 4.08,19.56 4.34,19.34 4.36,19.04 4.37,18.9 4.32,18.77 4.23,18.66 4.14,18.55 4.01,18.49 3.87,18.48 L 3.32,18.44 c 0.29,-0.09 0.47,-0.09 0.77,-0.09 h 12.97 c 0.16,0 0.31,-0.07 0.41,-0.18 z M 13,16.05 h 1.47 l -1.52,1.24 h -2.17 z m -9.85,16.7 42.1,0.08 c 0,0 0,0 0,0 0.39,0 0.67,0.16 0.89,0.42 0.21,0.26 0.34,0.63 0.34,1 0,0 0,0 0,0 L 46.51,48.8 H 44.85 V 42.81 C 44.84,42.52 44.61,42.28 44.32,42.28 L 25.19,42.21 c -0.14,0 -0.28,0.05 -0.38,0.15 -0.1,0.1 -0.16,0.24 -0.15,0.38 L 24.69,48.87 1.89,48.94 1.86,34.3 c 0,-0.43 0.13,-0.84 0.35,-1.11 0.22,-0.28 0.5,-0.44 0.94,-0.44 z m 1.42,1.74 c -0.29,0 -0.53,0.24 -0.53,0.53 v 5.48 c 0,0.29 0.24,0.53 0.53,0.53 h 8.11 c 0.14,0 0.28,-0.06 0.38,-0.16 0.1,-0.1 0.15,-0.23 0.15,-0.37 v -5.48 c 0,-0.14 -0.05,-0.27 -0.15,-0.37 -0.1,-0.1 -0.24,-0.16 -0.38,-0.16 z m 10.5,0 c -0.29,0 -0.53,0.24 -0.53,0.53 v 5.48 c 0,0.29 0.24,0.53 0.53,0.53 h 8.11 c 0.14,0 0.28,-0.06 0.38,-0.16 0.1,-0.1 0.15,-0.23 0.15,-0.37 v -5.48 c 0,-0.14 -0.05,-0.27 -0.15,-0.37 -0.1,-0.1 -0.24,-0.16 -0.38,-0.16 z m 10.5,0 c -0.29,0 -0.53,0.24 -0.53,0.53 v 5.48 c 0,0.29 0.24,0.53 0.53,0.53 h 8.11 c 0.14,0 0.28,-0.06 0.38,-0.16 0.1,-0.1 0.15,-0.23 0.15,-0.37 v -5.48 c 0,-0.14 -0.05,-0.27 -0.15,-0.37 -0.1,-0.1 -0.24,-0.16 -0.38,-0.16 z m 10.5,0 c -0.14,0 -0.28,0.06 -0.38,0.16 -0.1,0.1 -0.15,0.23 -0.15,0.37 v 5.48 c 0,0.14 0.05,0.27 0.15,0.37 0.1,0.1 0.24,0.16 0.38,0.16 h 8.11 c 0.14,0 0.28,-0.06 0.38,-0.16 0.1,-0.1 0.15,-0.23 0.15,-0.37 v -5.48 c 0,-0.14 -0.05,-0.27 -0.15,-0.37 -0.1,-0.1 -0.24,-0.16 -0.38,-0.16 z M 5.1,35.55 h 7.05 v 4.42 H 5.1 Z m 10.5,0 h 7.05 v 4.42 H 15.6 Z m 10.5,0 h 7.05 v 4.42 H 26.1 Z m 10.5,0 h 7.05 v 4.42 H 36.6 Z m -10.88,7.72 8.69,0.03 0.07,5.54 -8.73,0.02 z m 9.75,0.04 8.32,0.03 v 5.47 l -8.26,0.02 z" fill="#000000" stroke="none" pointer-events="all" id="path12"/>
        </g>
      </g>
    </g>
  </g>
  <script type="text/javascript"><![CDATA[/*
    # =============================================
    # ===             How to Use                ===
    # =============================================

    Variables with the following prefix:

    _pb_ = bool   parameter ( true or false )
    _pn_ = number parameter ( Int, Float, Real etc )
    _ps_ = string parameter ( string can be entered directly )
    _pc_ = color parameter in hex color code ( #00ff00ff )

    Indicate variable type to be used in Fuxa Properties and binding of Tags, Important! they have to be place within:

    //!export-start
    let _pn_setState = 0;
    //!export-end

    There are 2x Functions to handle sending and receiving data between Fuxa and the SVG

    // Recieve Variables From Fuxa
    function putValue(id, value) { } 
    
    // Send Variables To Fuxa
    function postValue(id, value) {
      console.error('Not defined!');
    }

    The ID is the name of the variable _pn_setState for example and value is the value to be sent or received from Fuxa


    This SVG uses an INT/Number Variable to change the State and State of the SVG:

    0 = Off
    1 = Run
    2 = Warning
    3 = Fault
    4 = Invalid
    5 = Spare

    You can also use the bool field and this will change the state between 0 = off and 1 = run 

    You can also set the color for each state in Fuxa using HEX color code #b4b4b4
    The Default Blink Interval for On and Off is 500ms but can also be changed in Fuxa in MS resolution

    <svg>
      SVG Content Here
      <script>
        JS Script Content Here
      </script>
    </svg>

    */

	  // Global Parameters and Variables

    //!export-start
    let _pn_setState = 0;                     // 0=Off, 1=Run, 2=Warn, 3=Fault, 4=Invalid, 5=Spare
    let _pb_boolState = false;                // true = Run, false = Off
    let _pn_setIntervalOn = 500;              // ms fault color is ON
    let _pn_setIntervalOff = 500;             // ms fault color is OFF
    let _pn_strokeWidth = 1;                  // Global stroke width for all states
    let _pc_fill_0 = 'none';                  // Off
    let _pc_fill_1 = 'none';                  // Run
    let _pc_fill_2 = 'none';                  // Warn
    let _pc_fill_3 = 'none';                  // Fault
    let _pc_fill_4 = 'none';                  // Invalid
    let _pc_fill_5 = 'none';                  // Spare
    let _pc_stroke_0 = '#7f7f7f';             // Off
    let _pc_stroke_1 = '#00ff00';             // Run
    let _pc_stroke_2 = '#ff9500';             // Warn
    let _pc_stroke_3 = '#ff0000';             // Fault
    let _pc_stroke_4 = '#3c3c3c';             // Invalid
    let _pc_stroke_5 = '#dcdcdc';             // Spare
    let _pb_preserveAspectRatio = true;       // true = preserve aspect ratio, false = stretch
    let _pn_rotateAngle = 0;                  // degrees, 0 = no rotation
    let _pn_rotateOffsetX = 0;                // offset from center (0 = center)
    let _pn_rotateOffsetY = 0;                // offset from center (0 = center)
    let _pb_flipHorizontal = false;           // true = flip X
    let _pb_flipVertical = false;             // true = flip Y
    let _pn_flipOffsetX = 0;                  // offset from center (0 = center)
    let _pn_flipOffsetY = 0;                  // offset from center (0 = center)
    let _pn_padding = 0;                      // padding around SVG (default 0)
    //!export-end

    let stateNumber = 0;
    let blinkInterval = null;
    let blinkTimer = null;
    let blinkObserver = null;
    let originalViewBox = null;

    // Get dynamic center from SVG viewBox (uses originalViewBox if available)
    function getCenter() {
      const svg = document.getElementById('fuxaWidget');
      const symbol = document.getElementById('fuxaSymbol');
      if (!svg) return { x: 25.5, y: 25.5 };
      if (symbol && typeof symbol.getBBox === 'function') {
        const bb = symbol.getBBox();
        return { x: bb.x + bb.width / 2, y: bb.y + bb.height / 2 };
      }
      const vbString = originalViewBox || svg.getAttribute('viewBox') || '0 0 51 51';
      const vb = vbString.split(/\s+/).map(parseFloat);
      return { x: (vb[0] + vb[2]) / 2, y: (vb[1] + vb[3]) / 2 };
    }

    // Apply transform to symbol group
    function applyTransform() {
      const symbol = document.getElementById('fuxaSymbol');
      if (!symbol) return;
      const center = getCenter();
      const cx = center.x + _pn_rotateOffsetX + _pn_flipOffsetX;
      const cy = center.y + _pn_rotateOffsetY + _pn_flipOffsetY;
      let transform = '';
      if (_pb_flipHorizontal || _pb_flipVertical) {
        const scaleX = _pb_flipHorizontal ? -1 : 1;
        const scaleY = _pb_flipVertical ? -1 : 1;
        transform += `scale(${scaleX}, ${scaleY}) translate(${scaleX === -1 ? -cx * 2 : 0}, ${scaleY === -1 ? -cy * 2 : 0}) `;
      }
      if (_pn_rotateAngle !== 0) {
        transform += `rotate(${_pn_rotateAngle}, ${cx}, ${cy}) `;
      }
      symbol.setAttribute('transform', transform.trim() || '');
    }

    // Update viewBox with padding
    function updatePadding() {
      const svg = document.getElementById('fuxaWidget');
      const symbol = document.getElementById('fuxaSymbol');
      if (!svg) return;
      const pad = Math.max(0, _pn_padding || 0);
      // Prefer persisted original viewBox (stable) — if not present, persist a computed one using getBBox
      const persisted = svg.getAttribute('data-fuxa-orig-viewbox');
      if (persisted) {
        const vb = persisted.split(/\s+/).map(parseFloat);
        const width = vb[2] - vb[0];
        const height = vb[3] - vb[1];
        const padded = Math.max(width, height);
        const size = padded + 2 * pad;
        const offsetX = (padded - width) / 2;
        const offsetY = (padded - height) / 2;
        svg.setAttribute('viewBox', `${vb[0] - pad - offsetX} ${vb[1] - pad - offsetY} ${size} ${size}`);
        return;
      }
      if (symbol && typeof symbol.getBBox === 'function') {
        // Use the actual content bounds to compute the original viewBox and persist it
        const bb = symbol.getBBox();
        const contentSize = Math.max(bb.width, bb.height);
        const size = contentSize + 2 * pad;
        const cx = bb.x + bb.width / 2;
        const cy = bb.y + bb.height / 2;
        const x = cx - size / 2;
        const y = cy - size / 2;
        const vbString = `${x} ${y} ${size} ${size}`;
        svg.setAttribute('data-fuxa-orig-viewbox', vbString);
        originalViewBox = vbString;
        svg.setAttribute('viewBox', vbString);
        return;
      }
      // Fallback to original viewBox if getBBox is not available
      const vbString = originalViewBox || svg.getAttribute('viewBox') || '0 0 51 51';
      const vb = vbString.split(/\s+/).map(parseFloat);
      const width = vb[2] - vb[0];
      const height = vb[3] - vb[1];
      const padded = Math.max(width, height);
      const size = padded + 2 * pad;
      const offsetX = (padded - width) / 2;
      const offsetY = (padded - height) / 2;
      svg.setAttribute('viewBox', `${vb[0] - pad - offsetX} ${vb[1] - pad - offsetY} ${size} ${size}`);
    }

    // Function to update preserveAspectRatio
    function updatePreserveAspectRatio() {
      const svg = document.getElementById('fuxaWidget');
      if (!svg) return;
      if (_pb_preserveAspectRatio) {
        svg.setAttribute('preserveAspectRatio', 'xMidYMid meet');
      } else {
        svg.setAttribute('preserveAspectRatio', 'none');
      }
    }

    // Function to update the color based on the set state
    function logic() {
      switch (stateNumber) {
        case 0: // off
          setBaseColor(_pc_stroke_0, _pc_fill_0);
          clearBlinking();
          break;
        case 1: // run
          setBaseColor(_pc_stroke_1, _pc_fill_1);
          clearBlinking();
          break;
        case 2: // warning
          setBaseColor(_pc_stroke_2, _pc_fill_2);
          clearBlinking();
          break;
        case 3: // fault
          const onRaw = +_pn_setIntervalOn;
          const offRaw = +_pn_setIntervalOff;
          const on = (onRaw > 0) ? Math.max(50, onRaw) : 0;
          const off = (offRaw > 0) ? Math.max(50, offRaw) : 0;

          if (on === 0 || off === 0) {
            setBaseColor(_pc_stroke_3, _pc_fill_3);
            clearBlinking();
          } else {
            startDualBlinking(_pc_stroke_0, _pc_stroke_3, _pc_fill_0, _pc_fill_3, on, off);
          }
          break;
        case 4: // invalid
          setBaseColor(_pc_stroke_4, _pc_fill_4);
          clearBlinking();
          break;
        case 5: // spare
          setBaseColor(_pc_stroke_5, _pc_fill_5);
          clearBlinking();
          break;
        default:
          console.log('Undefined State');
          clearBlinking();
      }
    }

    // Initial setup
    function init() {
      // ensure no residual timers from previous initializations
      clearBlinking();
      const svg = document.getElementById('fuxaWidget');
      if (svg) {
        // Use or persist the original viewBox to prevent cumulative padding growth
        if (!svg.getAttribute('data-fuxa-orig-viewbox')) {
          svg.setAttribute('data-fuxa-orig-viewbox', svg.getAttribute('viewBox') || '0 0 51 51');
        }
        originalViewBox = svg.getAttribute('data-fuxa-orig-viewbox');
      }
      updatePadding();
      updatePreserveAspectRatio();
      applyTransform();
      logic();
    }

    // Function to update values from Fuxa
    function putValue(id, value) {
      let needsTransform = false;

      if (id === '_pn_setState') {
        stateNumber = value;
        logic();
      }
      if (id === '_pb_boolState') {
        _pb_boolState = value;
        if (_pb_boolState === true) {
          stateNumber = 1;
        } else if (_pb_boolState === false) {
          stateNumber = 0;
        }
        logic();
      }
      if (id === '_pn_setIntervalOn') {
        _pn_setIntervalOn = value;
        if (stateNumber === 3) logic();
      }
      if (id === '_pn_setIntervalOff') {
        _pn_setIntervalOff = value;
        if (stateNumber === 3) logic();
      }
      if (id === '_pn_strokeWidth') _pn_strokeWidth = value;
      if (id === '_pc_fill_0') _pc_fill_0 = value;
      if (id === '_pc_fill_1') _pc_fill_1 = value;
      if (id === '_pc_fill_2') _pc_fill_2 = value;
      if (id === '_pc_fill_3') _pc_fill_3 = value;
      if (id === '_pc_fill_4') _pc_fill_4 = value;
      if (id === '_pc_fill_5') _pc_fill_5 = value;
      if (id === '_pc_stroke_0') _pc_stroke_0 = value;
      if (id === '_pc_stroke_1') _pc_stroke_1 = value;
      if (id === '_pc_stroke_2') _pc_stroke_2 = value;
      if (id === '_pc_stroke_3') _pc_stroke_3 = value;
      if (id === '_pc_stroke_4') _pc_stroke_4 = value;
      if (id === '_pc_stroke_5') _pc_stroke_5 = value;

      // ROTATE
      if (id === '_pn_rotateAngle') { _pn_rotateAngle = value; needsTransform = true; }
      if (id === '_pn_rotateOffsetX') { _pn_rotateOffsetX = value; needsTransform = true; }
      if (id === '_pn_rotateOffsetY') { _pn_rotateOffsetY = value; needsTransform = true; }

      // FLIP
      if (id === '_pb_flipHorizontal') {
        _pb_flipHorizontal = (value === true || value === 1 || value === '1');
        needsTransform = true;
      }
      if (id === '_pb_flipVertical') {
        _pb_flipVertical = (value === true || value === 1 || value === '1');
        needsTransform = true;
      }
      if (id === '_pn_flipOffsetX') { _pn_flipOffsetX = value; needsTransform = true; }
      if (id === '_pn_flipOffsetY') { _pn_flipOffsetY = value; needsTransform = true; }

      // PADDING
      if (id === '_pn_padding') {
        _pn_padding = Math.max(0, +value || 0);
        updatePadding();
        needsTransform = true;
      }

      // PRESERVE ASPECT RATIO
      if (id === '_pb_preserveAspectRatio') {
        _pb_preserveAspectRatio = (value === true || value === 1 || value === '1');
        updatePreserveAspectRatio();
      }

      if (needsTransform) {
        applyTransform();
      }
    }

    // Function to send values back to Fuxa (placeholder)
    function postValue(id, value) {
      console.log('Not defined!');
    }

    // Make postValue globally available only if not already set by Fuxa
    if (!window.postValue) {
      window.postValue = postValue;
    }

    // Initialize the SVG
    init();

    // Re-run init when the page becomes visible (e.g., returning from editor)
    document.addEventListener('visibilitychange', function() {
      if (document.visibilityState === 'visible') {
        setTimeout(() => init(), 10);
      }
    });

    // Function to update the color for the base shape group
    function setBaseColor(strokeColor, fillColor) {
      const symbol = document.getElementById('fuxaSymbol');
      if (!symbol) return;
      symbol.querySelectorAll('*').forEach(function(elem) {
        try {
          // Set both presentation attributes and inline styles so existing style attributes
          // (e.g., style="fill:none") are overridden by the inline style setting.
          if (fillColor !== undefined && fillColor !== null) {
            elem.setAttribute('fill', fillColor);
            elem.style.fill = fillColor;
          }
          if (strokeColor !== undefined && strokeColor !== null) {
            elem.setAttribute('stroke', strokeColor);
            elem.style.stroke = strokeColor;
          }
          elem.setAttribute('stroke-width', _pn_strokeWidth);
          elem.style.strokeWidth = String(_pn_strokeWidth);
        } catch (e) {
          // Ignore if an element doesn't accept a property
        }
      });
      applyTransform();
    }

    // DUAL BLINK: onTime (fault), offTime (off) - simple top-level tick-by-id function
    // This follows the original approach — a named top-level tick function that schedules itself.
    function fuxa_blink_tick(svgId) {
      const svg = document.getElementById(svgId);
      if (!svg) {
        clearBlinking();
        return;
      }
      if (!svg || !svg._fuxa_blink_params) return;
      const p = svg._fuxa_blink_params;
      if (svg._fuxa_blink_state) {
        setBaseColor(p.strokeOn, p.fillOn);
        svg._fuxa_blink_state = false;
        svg._fuxa_blink_timer = setTimeout(function() { fuxa_blink_tick(svgId); }, p.onTime);
      } else {
        setBaseColor(p.strokeOff, p.fillOff);
        svg._fuxa_blink_state = true;
        svg._fuxa_blink_timer = setTimeout(function() { fuxa_blink_tick(svgId); }, p.offTime);
      }
    }

    function startDualBlinking(strokeOff, strokeOn, fillOff, fillOn, onTime, offTime) {
      clearBlinking();
      // Ensure values are numbers
      onTime = Number(onTime) || 0;
      offTime = Number(offTime) || 0;
      const id = 'fuxaWidget';
      const svg = document.getElementById(id);
      if (!svg) return;
      svg._fuxa_blink_params = { strokeOff, strokeOn, fillOff, fillOn, onTime, offTime };
      svg._fuxa_blink_state = true;
      // start the tick by id (named function) for reliability
      fuxa_blink_tick(id);

      blinkObserver = new MutationObserver((mutations) => {
        mutations.forEach((mutation) => {
          mutation.removedNodes.forEach((node) => {
            if (node && node.id === 'fuxaWidget') {
              clearBlinking();
              if (blinkObserver) {
                blinkObserver.disconnect();
                blinkObserver = null;
              }
            }
          });
        });
      });
      blinkObserver.observe(document.body, { childList: true, subtree: true });
    }

    // FULL CLEAR BLINKING
    function clearBlinking() {
      if (blinkInterval) {
        clearInterval(blinkInterval);
        blinkInterval = null;
      }
      if (blinkTimer) {
        clearTimeout(blinkTimer);
        blinkTimer = null;
      }
      if (blinkObserver) {
        blinkObserver.disconnect();
        blinkObserver = null;
      }
      const svg = document.getElementById('fuxaWidget');
      if (svg) {
        if (svg._fuxa_blink_timer) { clearTimeout(svg._fuxa_blink_timer); svg._fuxa_blink_timer = null; }
        if (svg._fuxa_blink_params) { svg._fuxa_blink_params = null; }
        if (svg._fuxa_blink_state !== undefined) { svg._fuxa_blink_state = null; }
      }
    }]]></script>
</svg>
