<?xml version='1.0' encoding='UTF-8'?>
<svg xmlns="http://www.w3.org/2000/svg" xmlns:svg="http://www.w3.org/2000/svg" version="1.1" viewBox="0 0 50 28.870001" id="fuxaWidget" style="border: none !important; outline: none !important; box-shadow: none !important; margin: 0; padding: 0; background: transparent;" width="100%" height="100%">
  <g id="fuxaSymbol">
    <defs id="defs1"/>
    <g data-cell-id="gQ551Ar7PwXLAaA90adm-539" id="g20" transform="translate(-0.5,-10.5)">
      <g id="cell-gQ551Ar7PwXLAaA90adm-539">
        <g transform="translate(0.5,0.5)" id="g19">
          <path d="m 33.64,10 c -0.28,0 -0.52,0.23 -0.53,0.51 -0.01,0.29 0.22,0.53 0.51,0.54 0.8,0.02 1.6,0.08 2.39,0.18 0.55,0.09 1.1,0.2 1.63,0.33 0.14,0.03 0.28,0.01 0.4,-0.06 0.12,-0.07 0.2,-0.19 0.23,-0.33 0.07,-0.28 -0.1,-0.56 -0.38,-0.63 -0.57,-0.13 -1.14,-0.25 -1.72,-0.34 H 36.16 L 36.15,10.19 C 35.32,10.09 34.48,10.02 33.64,10 Z m -4.26,0.33 c -0.17,0.03 -0.33,0.06 -0.49,0.09 h -0.01 c -1.23,0.26 -2.44,0.65 -3.6,1.16 -0.26,0.12 -0.38,0.43 -0.26,0.69 0.11,0.27 0.42,0.39 0.68,0.27 1.09,-0.49 2.23,-0.85 3.4,-1.09 0.16,-0.04 0.31,-0.07 0.47,-0.09 0.13,-0.03 0.25,-0.11 0.33,-0.22 0.08,-0.11 0.11,-0.25 0.09,-0.39 -0.02,-0.14 -0.1,-0.26 -0.21,-0.34 -0.12,-0.08 -0.26,-0.11 -0.4,-0.08 z m 12.14,1.62 c -0.13,0.05 -0.23,0.14 -0.29,0.27 -0.07,0.12 -0.07,0.26 -0.03,0.4 0.05,0.13 0.14,0.23 0.27,0.3 1.12,0.54 2.17,1.22 3.12,2.03 l 0.11,0.11 0.11,0.09 c 0.21,0.19 0.54,0.17 0.74,-0.04 0.19,-0.22 0.17,-0.55 -0.05,-0.74 l -0.11,-0.1 -0.12,-0.11 v 0 c -1.02,-0.87 -2.15,-1.6 -3.35,-2.18 -0.12,-0.06 -0.26,-0.07 -0.4,-0.03 z M 22,13.72 c -0.14,-0.02 -0.28,0.03 -0.39,0.11 -1.11,0.91 -2.11,1.98 -2.93,3.17 -0.16,0.23 -0.1,0.56 0.14,0.72 0.23,0.17 0.56,0.11 0.72,-0.13 0.76,-1.1 1.69,-2.1 2.73,-2.95 0.22,-0.18 0.26,-0.51 0.08,-0.73 C 22.26,13.8 22.13,13.73 22,13.72 Z m 25.53,3.81 c -0.25,0.15 -0.34,0.47 -0.19,0.71 0.64,1.1 1.12,2.29 1.4,3.52 l 0.05,0.21 c 0.06,0.28 0.34,0.46 0.62,0.4 0.29,-0.07 0.46,-0.35 0.4,-0.63 L 49.76,21.53 V 21.52 C 49.45,20.19 48.93,18.9 48.24,17.72 48.17,17.6 48.06,17.51 47.92,17.48 47.79,17.44 47.64,17.46 47.53,17.53 Z M 9.74,19.79 C 9.49,19.82 9.24,19.85 9,19.89 7.81,20.08 6.65,20.43 5.56,20.94 5.3,21.06 5.19,21.37 5.32,21.63 5.44,21.89 5.75,22.01 6.01,21.88 7,21.42 8.07,21.1 9.16,20.92 c 0.23,-0.04 0.46,-0.07 0.69,-0.09 0.29,-0.03 0.49,-0.29 0.47,-0.57 -0.03,-0.29 -0.29,-0.5 -0.58,-0.47 z m 4.32,0.26 c -0.13,-0.03 -0.27,-0.01 -0.39,0.06 -0.12,0.08 -0.2,0.19 -0.23,0.33 -0.07,0.28 0.11,0.56 0.39,0.63 0.95,0.21 1.87,0.56 2.71,1.02 l 0.14,0.08 0.74,0.43 0.17,-0.68 c 0.06,-0.25 0.12,-0.49 0.2,-0.73 0.08,-0.28 -0.07,-0.57 -0.35,-0.66 -0.27,-0.08 -0.57,0.07 -0.65,0.35 -0.02,0.06 -0.03,0.12 -0.05,0.18 -0.86,-0.44 -1.75,-0.8 -2.68,-1.01 z M 2.42,23.36 C 2.28,23.37 2.16,23.43 2.06,23.54 1.83,23.81 1.6,24.09 1.4,24.39 0.76,25.31 0.3,26.34 0.03,27.42 0,27.56 0.02,27.7 0.09,27.82 0.17,27.94 0.28,28.02 0.42,28.06 0.55,28.09 0.69,28.07 0.81,28 0.93,27.92 1.01,27.81 1.05,27.67 1.28,26.71 1.7,25.79 2.26,24.98 2.44,24.72 2.64,24.46 2.85,24.22 3.04,24.01 3.02,23.68 2.8,23.49 2.7,23.4 2.56,23.35 2.42,23.36 Z m 47.11,2.13 c -0.28,-0.03 -0.55,0.17 -0.58,0.45 -0.15,1.13 -0.48,2.24 -0.95,3.28 -0.08,0.17 -0.17,0.35 -0.26,0.51 -0.06,0.13 -0.07,0.27 -0.03,0.4 0.04,0.13 0.13,0.24 0.26,0.31 0.12,0.06 0.26,0.08 0.39,0.03 0.14,-0.04 0.25,-0.13 0.31,-0.25 0.1,-0.19 0.19,-0.38 0.28,-0.56 0.52,-1.13 0.87,-2.34 1.03,-3.58 0.02,-0.14 -0.02,-0.28 -0.1,-0.39 -0.09,-0.11 -0.21,-0.18 -0.35,-0.2 z m -49,5.68 c -0.27,0.09 -0.41,0.39 -0.32,0.66 0.17,0.5 0.38,0.97 0.63,1.43 0.47,0.83 1.06,1.59 1.73,2.26 0.21,0.2 0.54,0.2 0.74,-0.01 0.2,-0.2 0.2,-0.53 -0.01,-0.74 C 2.7,34.17 2.17,33.49 1.75,32.75 1.53,32.35 1.34,31.93 1.2,31.49 1.1,31.22 0.81,31.08 0.53,31.17 Z m 45.58,1.78 c -0.1,-0.09 -0.23,-0.15 -0.37,-0.15 -0.14,0 -0.27,0.06 -0.37,0.16 -0.8,0.81 -1.7,1.52 -2.66,2.14 v 0 c -0.18,0.11 -0.35,0.22 -0.53,0.33 -0.12,0.07 -0.2,0.18 -0.24,0.32 -0.03,0.13 -0.01,0.27 0.06,0.39 0.14,0.25 0.46,0.33 0.71,0.19 0.19,-0.12 0.38,-0.23 0.57,-0.35 v 0 0 c 1.02,-0.66 1.97,-1.42 2.83,-2.29 0.2,-0.2 0.2,-0.53 0,-0.74 z m -39.91,4 C 6.08,37 5.97,37.11 5.92,37.23 c -0.11,0.27 0.01,0.58 0.28,0.69 1.34,0.56 2.79,0.87 4.24,0.93 0.06,-0.04 0.12,-0.09 0.17,-0.15 0.09,0.1 0.23,0.16 0.37,0.17 h 2.69 c 0.29,0 0.52,-0.24 0.52,-0.53 0,-0.29 -0.23,-0.52 -0.52,-0.52 h -2.69 c -0.08,0.01 -0.16,0.05 -0.22,0.09 -0.08,-0.06 -0.18,-0.09 -0.28,-0.1 C 9.15,37.75 7.83,37.47 6.6,36.95 6.48,36.9 6.33,36.9 6.2,36.95 Z m 32.29,0.13 c -1.01,0.32 -2.05,0.54 -3.09,0.66 -0.3,0.03 -0.59,0.05 -0.88,0.07 -0.28,0.01 -0.51,0.25 -0.49,0.54 0.01,0.29 0.25,0.51 0.54,0.5 0.32,-0.01 0.63,-0.04 0.94,-0.07 v 0 c 1.12,-0.13 2.22,-0.37 3.29,-0.7 0.28,-0.09 0.43,-0.38 0.34,-0.66 C 39.05,37.15 38.76,37 38.49,37.08 Z m -20.65,0.74 c -0.28,0 -0.52,0.23 -0.52,0.52 0,0.29 0.24,0.52 0.52,0.53 h 4.18 c 0.29,0 0.52,-0.24 0.52,-0.53 0,-0.29 -0.23,-0.52 -0.52,-0.52 z m 8.36,0 c -0.29,0 -0.53,0.23 -0.53,0.52 0,0.14 0.06,0.27 0.16,0.37 0.09,0.1 0.23,0.16 0.37,0.16 h 4.17 c 0.14,0 0.27,-0.06 0.37,-0.16 0.1,-0.1 0.15,-0.23 0.15,-0.37 0,-0.29 -0.23,-0.52 -0.52,-0.52 z" fill="#000000" stroke="none" pointer-events="all" id="path18"/>
        </g>
      </g>
    </g>
  </g>
  <script type="text/javascript"><![CDATA[/*
    # =============================================
    # ===             How to Use                ===
    # =============================================

    Variables with the following prefix:

    _pb_ = bool   parameter ( true or false )
    _pn_ = number parameter ( Int, Float, Real etc )
    _ps_ = string parameter ( string can be entered directly )
    _pc_ = color parameter in hex color code ( #00ff00ff )

    Indicate variable type to be used in Fuxa Properties and binding of Tags, Important! they have to be place within:

    //!export-start
    let _pn_setState = 0;
    //!export-end

    There are 2x Functions to handle sending and receiving data between Fuxa and the SVG

    // Recieve Variables From Fuxa
    function putValue(id, value) { } 
    
    // Send Variables To Fuxa
    function postValue(id, value) {
      console.error('Not defined!');
    }

    The ID is the name of the variable _pn_setState for example and value is the value to be sent or received from Fuxa


    This SVG uses an INT/Number Variable to change the State and State of the SVG:

    0 = Off
    1 = Run
    2 = Warning
    3 = Fault
    4 = Invalid
    5 = Spare

    You can also use the bool field and this will change the state between 0 = off and 1 = run 

    You can also set the color for each state in Fuxa using HEX color code #b4b4b4
    The Default Blink Interval for On and Off is 500ms but can also be changed in Fuxa in MS resolution

    <svg>
      SVG Content Here
      <script>
        JS Script Content Here
      </script>
    </svg>

    */

	  // Global Parameters and Variables

    //!export-start
    let _pn_setState = 0;                     // 0=Off, 1=Run, 2=Warn, 3=Fault, 4=Invalid, 5=Spare
    let _pb_boolState = false;                // true = Run, false = Off
    let _pn_setIntervalOn = 500;              // ms fault color is ON
    let _pn_setIntervalOff = 500;             // ms fault color is OFF
    let _pn_strokeWidth = 1;                  // Global stroke width for all states
    let _pc_fill_0 = 'none';                  // Off
    let _pc_fill_1 = 'none';                  // Run
    let _pc_fill_2 = 'none';                  // Warn
    let _pc_fill_3 = 'none';                  // Fault
    let _pc_fill_4 = 'none';                  // Invalid
    let _pc_fill_5 = 'none';                  // Spare
    let _pc_stroke_0 = '#7f7f7f';             // Off
    let _pc_stroke_1 = '#00ff00';             // Run
    let _pc_stroke_2 = '#ff9500';             // Warn
    let _pc_stroke_3 = '#ff0000';             // Fault
    let _pc_stroke_4 = '#3c3c3c';             // Invalid
    let _pc_stroke_5 = '#dcdcdc';             // Spare
    let _pb_preserveAspectRatio = true;       // true = preserve aspect ratio, false = stretch
    let _pn_rotateAngle = 0;                  // degrees, 0 = no rotation
    let _pn_rotateOffsetX = 0;                // offset from center (0 = center)
    let _pn_rotateOffsetY = 0;                // offset from center (0 = center)
    let _pb_flipHorizontal = false;           // true = flip X
    let _pb_flipVertical = false;             // true = flip Y
    let _pn_flipOffsetX = 0;                  // offset from center (0 = center)
    let _pn_flipOffsetY = 0;                  // offset from center (0 = center)
    let _pn_padding = 0;                      // padding around SVG (default 0)
    //!export-end

    let stateNumber = 0;
    let blinkInterval = null;
    let blinkTimer = null;
    let blinkObserver = null;
    let originalViewBox = null;

    // Get dynamic center from SVG viewBox (uses originalViewBox if available)
    function getCenter() {
      const svg = document.getElementById('fuxaWidget');
      const symbol = document.getElementById('fuxaSymbol');
      if (!svg) return { x: 25.5, y: 25.5 };
      if (symbol && typeof symbol.getBBox === 'function') {
        const bb = symbol.getBBox();
        return { x: bb.x + bb.width / 2, y: bb.y + bb.height / 2 };
      }
      const vbString = originalViewBox || svg.getAttribute('viewBox') || '0 0 51 51';
      const vb = vbString.split(/\s+/).map(parseFloat);
      return { x: (vb[0] + vb[2]) / 2, y: (vb[1] + vb[3]) / 2 };
    }

    // Apply transform to symbol group
    function applyTransform() {
      const symbol = document.getElementById('fuxaSymbol');
      if (!symbol) return;
      const center = getCenter();
      const cx = center.x + _pn_rotateOffsetX + _pn_flipOffsetX;
      const cy = center.y + _pn_rotateOffsetY + _pn_flipOffsetY;
      let transform = '';
      if (_pb_flipHorizontal || _pb_flipVertical) {
        const scaleX = _pb_flipHorizontal ? -1 : 1;
        const scaleY = _pb_flipVertical ? -1 : 1;
        transform += `scale(${scaleX}, ${scaleY}) translate(${scaleX === -1 ? -cx * 2 : 0}, ${scaleY === -1 ? -cy * 2 : 0}) `;
      }
      if (_pn_rotateAngle !== 0) {
        transform += `rotate(${_pn_rotateAngle}, ${cx}, ${cy}) `;
      }
      symbol.setAttribute('transform', transform.trim() || '');
    }

    // Update viewBox with padding
    function updatePadding() {
      const svg = document.getElementById('fuxaWidget');
      const symbol = document.getElementById('fuxaSymbol');
      if (!svg) return;
      const pad = Math.max(0, _pn_padding || 0);
      // Prefer persisted original viewBox (stable) — if not present, persist a computed one using getBBox
      const persisted = svg.getAttribute('data-fuxa-orig-viewbox');
      if (persisted) {
        const vb = persisted.split(/\s+/).map(parseFloat);
        const width = vb[2] - vb[0];
        const height = vb[3] - vb[1];
        const padded = Math.max(width, height);
        const size = padded + 2 * pad;
        const offsetX = (padded - width) / 2;
        const offsetY = (padded - height) / 2;
        svg.setAttribute('viewBox', `${vb[0] - pad - offsetX} ${vb[1] - pad - offsetY} ${size} ${size}`);
        return;
      }
      if (symbol && typeof symbol.getBBox === 'function') {
        // Use the actual content bounds to compute the original viewBox and persist it
        const bb = symbol.getBBox();
        const contentSize = Math.max(bb.width, bb.height);
        const size = contentSize + 2 * pad;
        const cx = bb.x + bb.width / 2;
        const cy = bb.y + bb.height / 2;
        const x = cx - size / 2;
        const y = cy - size / 2;
        const vbString = `${x} ${y} ${size} ${size}`;
        svg.setAttribute('data-fuxa-orig-viewbox', vbString);
        originalViewBox = vbString;
        svg.setAttribute('viewBox', vbString);
        return;
      }
      // Fallback to original viewBox if getBBox is not available
      const vbString = originalViewBox || svg.getAttribute('viewBox') || '0 0 51 51';
      const vb = vbString.split(/\s+/).map(parseFloat);
      const width = vb[2] - vb[0];
      const height = vb[3] - vb[1];
      const padded = Math.max(width, height);
      const size = padded + 2 * pad;
      const offsetX = (padded - width) / 2;
      const offsetY = (padded - height) / 2;
      svg.setAttribute('viewBox', `${vb[0] - pad - offsetX} ${vb[1] - pad - offsetY} ${size} ${size}`);
    }

    // Function to update preserveAspectRatio
    function updatePreserveAspectRatio() {
      const svg = document.getElementById('fuxaWidget');
      if (!svg) return;
      if (_pb_preserveAspectRatio) {
        svg.setAttribute('preserveAspectRatio', 'xMidYMid meet');
      } else {
        svg.setAttribute('preserveAspectRatio', 'none');
      }
    }

    // Function to update the color based on the set state
    function logic() {
      switch (stateNumber) {
        case 0: // off
          setBaseColor(_pc_stroke_0, _pc_fill_0);
          clearBlinking();
          break;
        case 1: // run
          setBaseColor(_pc_stroke_1, _pc_fill_1);
          clearBlinking();
          break;
        case 2: // warning
          setBaseColor(_pc_stroke_2, _pc_fill_2);
          clearBlinking();
          break;
        case 3: // fault
          const onRaw = +_pn_setIntervalOn;
          const offRaw = +_pn_setIntervalOff;
          const on = (onRaw > 0) ? Math.max(50, onRaw) : 0;
          const off = (offRaw > 0) ? Math.max(50, offRaw) : 0;

          if (on === 0 || off === 0) {
            setBaseColor(_pc_stroke_3, _pc_fill_3);
            clearBlinking();
          } else {
            startDualBlinking(_pc_stroke_0, _pc_stroke_3, _pc_fill_0, _pc_fill_3, on, off);
          }
          break;
        case 4: // invalid
          setBaseColor(_pc_stroke_4, _pc_fill_4);
          clearBlinking();
          break;
        case 5: // spare
          setBaseColor(_pc_stroke_5, _pc_fill_5);
          clearBlinking();
          break;
        default:
          console.log('Undefined State');
          clearBlinking();
      }
    }

    // Initial setup
    function init() {
      // ensure no residual timers from previous initializations
      clearBlinking();
      const svg = document.getElementById('fuxaWidget');
      if (svg) {
        // Use or persist the original viewBox to prevent cumulative padding growth
        if (!svg.getAttribute('data-fuxa-orig-viewbox')) {
          svg.setAttribute('data-fuxa-orig-viewbox', svg.getAttribute('viewBox') || '0 0 51 51');
        }
        originalViewBox = svg.getAttribute('data-fuxa-orig-viewbox');
      }
      updatePadding();
      updatePreserveAspectRatio();
      applyTransform();
      logic();
    }

    // Function to update values from Fuxa
    function putValue(id, value) {
      let needsTransform = false;

      if (id === '_pn_setState') {
        stateNumber = value;
        logic();
      }
      if (id === '_pb_boolState') {
        _pb_boolState = value;
        if (_pb_boolState === true) {
          stateNumber = 1;
        } else if (_pb_boolState === false) {
          stateNumber = 0;
        }
        logic();
      }
      if (id === '_pn_setIntervalOn') {
        _pn_setIntervalOn = value;
        if (stateNumber === 3) logic();
      }
      if (id === '_pn_setIntervalOff') {
        _pn_setIntervalOff = value;
        if (stateNumber === 3) logic();
      }
      if (id === '_pn_strokeWidth') _pn_strokeWidth = value;
      if (id === '_pc_fill_0') _pc_fill_0 = value;
      if (id === '_pc_fill_1') _pc_fill_1 = value;
      if (id === '_pc_fill_2') _pc_fill_2 = value;
      if (id === '_pc_fill_3') _pc_fill_3 = value;
      if (id === '_pc_fill_4') _pc_fill_4 = value;
      if (id === '_pc_fill_5') _pc_fill_5 = value;
      if (id === '_pc_stroke_0') _pc_stroke_0 = value;
      if (id === '_pc_stroke_1') _pc_stroke_1 = value;
      if (id === '_pc_stroke_2') _pc_stroke_2 = value;
      if (id === '_pc_stroke_3') _pc_stroke_3 = value;
      if (id === '_pc_stroke_4') _pc_stroke_4 = value;
      if (id === '_pc_stroke_5') _pc_stroke_5 = value;

      // ROTATE
      if (id === '_pn_rotateAngle') { _pn_rotateAngle = value; needsTransform = true; }
      if (id === '_pn_rotateOffsetX') { _pn_rotateOffsetX = value; needsTransform = true; }
      if (id === '_pn_rotateOffsetY') { _pn_rotateOffsetY = value; needsTransform = true; }

      // FLIP
      if (id === '_pb_flipHorizontal') {
        _pb_flipHorizontal = (value === true || value === 1 || value === '1');
        needsTransform = true;
      }
      if (id === '_pb_flipVertical') {
        _pb_flipVertical = (value === true || value === 1 || value === '1');
        needsTransform = true;
      }
      if (id === '_pn_flipOffsetX') { _pn_flipOffsetX = value; needsTransform = true; }
      if (id === '_pn_flipOffsetY') { _pn_flipOffsetY = value; needsTransform = true; }

      // PADDING
      if (id === '_pn_padding') {
        _pn_padding = Math.max(0, +value || 0);
        updatePadding();
        needsTransform = true;
      }

      // PRESERVE ASPECT RATIO
      if (id === '_pb_preserveAspectRatio') {
        _pb_preserveAspectRatio = (value === true || value === 1 || value === '1');
        updatePreserveAspectRatio();
      }

      if (needsTransform) {
        applyTransform();
      }
    }

    // Function to send values back to Fuxa (placeholder)
    function postValue(id, value) {
      console.log('Not defined!');
    }

    // Make postValue globally available only if not already set by Fuxa
    if (!window.postValue) {
      window.postValue = postValue;
    }

    // Initialize the SVG
    init();

    // Re-run init when the page becomes visible (e.g., returning from editor)
    document.addEventListener('visibilitychange', function() {
      if (document.visibilityState === 'visible') {
        setTimeout(() => init(), 10);
      }
    });

    // Function to update the color for the base shape group
    function setBaseColor(strokeColor, fillColor) {
      const symbol = document.getElementById('fuxaSymbol');
      if (!symbol) return;
      symbol.querySelectorAll('*').forEach(function(elem) {
        try {
          // Set both presentation attributes and inline styles so existing style attributes
          // (e.g., style="fill:none") are overridden by the inline style setting.
          if (fillColor !== undefined && fillColor !== null) {
            elem.setAttribute('fill', fillColor);
            elem.style.fill = fillColor;
          }
          if (strokeColor !== undefined && strokeColor !== null) {
            elem.setAttribute('stroke', strokeColor);
            elem.style.stroke = strokeColor;
          }
          elem.setAttribute('stroke-width', _pn_strokeWidth);
          elem.style.strokeWidth = String(_pn_strokeWidth);
        } catch (e) {
          // Ignore if an element doesn't accept a property
        }
      });
      applyTransform();
    }

    // DUAL BLINK: onTime (fault), offTime (off) - simple top-level tick-by-id function
    // This follows the original approach — a named top-level tick function that schedules itself.
    function fuxa_blink_tick(svgId) {
      const svg = document.getElementById(svgId);
      if (!svg) {
        clearBlinking();
        return;
      }
      if (!svg || !svg._fuxa_blink_params) return;
      const p = svg._fuxa_blink_params;
      if (svg._fuxa_blink_state) {
        setBaseColor(p.strokeOn, p.fillOn);
        svg._fuxa_blink_state = false;
        svg._fuxa_blink_timer = setTimeout(function() { fuxa_blink_tick(svgId); }, p.onTime);
      } else {
        setBaseColor(p.strokeOff, p.fillOff);
        svg._fuxa_blink_state = true;
        svg._fuxa_blink_timer = setTimeout(function() { fuxa_blink_tick(svgId); }, p.offTime);
      }
    }

    function startDualBlinking(strokeOff, strokeOn, fillOff, fillOn, onTime, offTime) {
      clearBlinking();
      // Ensure values are numbers
      onTime = Number(onTime) || 0;
      offTime = Number(offTime) || 0;
      const id = 'fuxaWidget';
      const svg = document.getElementById(id);
      if (!svg) return;
      svg._fuxa_blink_params = { strokeOff, strokeOn, fillOff, fillOn, onTime, offTime };
      svg._fuxa_blink_state = true;
      // start the tick by id (named function) for reliability
      fuxa_blink_tick(id);

      blinkObserver = new MutationObserver((mutations) => {
        mutations.forEach((mutation) => {
          mutation.removedNodes.forEach((node) => {
            if (node && node.id === 'fuxaWidget') {
              clearBlinking();
              if (blinkObserver) {
                blinkObserver.disconnect();
                blinkObserver = null;
              }
            }
          });
        });
      });
      blinkObserver.observe(document.body, { childList: true, subtree: true });
    }

    // FULL CLEAR BLINKING
    function clearBlinking() {
      if (blinkInterval) {
        clearInterval(blinkInterval);
        blinkInterval = null;
      }
      if (blinkTimer) {
        clearTimeout(blinkTimer);
        blinkTimer = null;
      }
      if (blinkObserver) {
        blinkObserver.disconnect();
        blinkObserver = null;
      }
      const svg = document.getElementById('fuxaWidget');
      if (svg) {
        if (svg._fuxa_blink_timer) { clearTimeout(svg._fuxa_blink_timer); svg._fuxa_blink_timer = null; }
        if (svg._fuxa_blink_params) { svg._fuxa_blink_params = null; }
        if (svg._fuxa_blink_state !== undefined) { svg._fuxa_blink_state = null; }
      }
    }]]></script>
</svg>
