<?xml version='1.0' encoding='UTF-8'?>
<svg xmlns="http://www.w3.org/2000/svg" xmlns:svg="http://www.w3.org/2000/svg" version="1.1" viewBox="0 0 50 39.880001" id="fuxaWidget" style="border: none !important; outline: none !important; box-shadow: none !important; margin: 0; padding: 0; background: transparent;" width="100%" height="100%">
  <g id="fuxaSymbol">
    <defs id="defs1"/>
    <g data-cell-id="gQ551Ar7PwXLAaA90adm-553" id="g4" transform="translate(-0.5,-0.5)">
      <g id="cell-gQ551Ar7PwXLAaA90adm-553">
        <g transform="translate(0.5,0.5)" id="g3">
          <path d="M 32.94,0 C 24.78,0.14 18.46,5.2 16.83,11.11 14.26,9.81 11.89,9.54 9.36,9.85 v 0 C 3.36,10.6 0,15.38 0,19.1 c 0,3.06 1.45,5.43 3.39,7.03 1.94,1.6 4.37,2.46 6.46,2.59 L 9.92,27.68 C 8.06,27.56 5.8,26.77 4.05,25.33 2.3,23.88 1.04,21.83 1.04,19.1 c 0,-3.07 2.95,-7.53 8.45,-8.21 2.57,-0.32 4.79,-0.08 7.4,1.39 0.31,0.17 0.69,0 0.77,-0.35 1.21,-5.6 7.29,-10.75 15.29,-10.89 10.13,0.01 16.01,6.8 16.01,13.31 0,3.57 -1.56,6.5 -3.7,8.66 -2.14,2.16 -4.86,3.52 -7.07,3.91 l 0.18,1.03 c 2.47,-0.43 5.34,-1.89 7.63,-4.21 2.29,-2.31 4,-5.51 4,-9.39 C 50,7.21 43.54,0 32.95,0 Z m -8.37,15.17 c -1.58,-0.01 -3.15,0.22 -4.2,0.78 l -6.2,3.26 c -0.2,0.09 -0.41,0.26 -0.5,0.49 -0.09,0.22 -0.07,0.39 -0.07,0.54 v 5.66 c 0,2.06 1.42,4.35 2.6,5.61 v 5.67 h -0.82 c -0.67,0 -1.23,0.56 -1.23,1.24 v 0.23 c 0,0.67 0.56,1.23 1.23,1.23 h 18.29 c 0.68,0 1.24,-0.56 1.24,-1.23 v -0.23 c 0,-0.68 -0.56,-1.24 -1.24,-1.24 h -0.82 v -5.65 c 1.4,-1.42 2.61,-3.87 2.61,-6.31 v -4.73 c 0,-0.75 -0.52,-1.31 -1.06,-1.58 l 0.01,0.01 -5.68,-2.91 c -1.03,-0.6 -2.59,-0.83 -4.16,-0.84 z m -0.01,1 c 1.47,0.01 2.94,0.28 3.67,0.7 0,0.01 0.01,0.01 0.02,0.02 l 5.7,2.92 c 0,0 0.01,0 0.01,0 0.28,0.14 0.5,0.39 0.5,0.68 v 4.73 c 0,1.67 -0.72,3.47 -1.61,4.74 v -1.67 c 0,-0.04 0,-0.08 -0.01,-0.12 0.56,-0.57 1.06,-1.54 1.06,-3.04 0,0 0,0 0,0 0,0 0,0 0,0 0,0 0,-0.01 0,-0.01 0,0 0,0 0,0 0,0 0,0 0,0 0,0 0,0 0,0 0,0 0,0 0,0 0,0 0,0 0,0 0,0 0,0 0,0 0,0 0,0 0,0 l -0.05,-4.44 c 0,-0.18 -0.11,-0.35 -0.27,-0.43 L 28.34,17.5 c -1.11,-0.63 -2.54,-0.87 -3.95,-0.85 -1.41,0.02 -2.79,0.31 -3.79,0.88 l -5.14,2.71 C 15.3,20.33 15.2,20.5 15.2,20.68 l -0.02,4.33 c 0,0 0,0 0,0 0,1.7 0.49,2.68 1.02,3.31 v 1.59 C 15.38,28.72 14.6,27.1 14.6,25.9 v -5.66 c 0,-0.06 0,-0.1 0,-0.13 0.01,0 0.01,0 0.01,0 0,-0.01 0.01,-0.01 0.01,-0.01 l 6.21,-3.26 c 0,0 0,0 0,0 0.78,-0.41 2.27,-0.68 3.74,-0.67 z m 0.46,1.49 c 1.07,0.06 2.1,0.3 2.82,0.71 0.01,0 0.01,0 0.02,0.01 l 4.99,2.61 0.05,4.14 c 0,0.96 -0.22,1.58 -0.49,1.99 -0.29,-0.28 -0.7,-0.41 -1.14,-0.41 h -6.25 z m -1,0 v 9.05 h -6.19 c -0.48,0 -0.91,0.19 -1.2,0.49 -0.26,-0.46 -0.45,-1.1 -0.45,-2.19 v 0 l 0.01,-4.02 4.89,-2.58 c 0,-0.01 0.01,-0.01 0.01,-0.01 0.7,-0.4 1.79,-0.67 2.93,-0.74 z m -6.19,10.05 h 13.44 c 0.27,0 0.38,0.06 0.45,0.13 0.07,0.08 0.13,0.2 0.13,0.45 v 8.89 H 17.2 v -8.97 c 0,-0.26 0.17,-0.5 0.63,-0.5 z m 2.7,1.79 c -0.47,0 -0.86,0.4 -0.86,0.87 v 0.82 c 0,0.47 0.39,0.87 0.86,0.87 h 0.83 c 0.47,0 0.86,-0.4 0.86,-0.87 v -0.82 c 0,-0.47 -0.39,-0.87 -0.86,-0.87 z m 3.76,0 c -0.48,0 -0.87,0.4 -0.87,0.87 v 0.82 c 0,0.47 0.39,0.87 0.87,0.87 h 0.82 c 0.47,0 0.87,-0.4 0.87,-0.87 v -0.82 c 0,-0.47 -0.4,-0.87 -0.87,-0.87 z m 3.75,0 c -0.48,0 -0.87,0.4 -0.87,0.87 v 0.82 c 0,0.47 0.39,0.87 0.87,0.87 h 0.82 c 0.47,0 0.87,-0.4 0.87,-0.87 v -0.82 c 0,-0.47 -0.4,-0.87 -0.87,-0.87 z m -7.37,1 h 0.55 v 0.56 h -0.55 z m 3.75,0 h 0.56 v 0.56 h -0.56 z m 3.75,0 h 0.56 v 0.56 h -0.56 z m -7.64,2.41 c -0.47,0 -0.86,0.39 -0.86,0.87 v 0.82 c 0,0.47 0.39,0.87 0.86,0.87 h 0.83 c 0.47,0 0.86,-0.4 0.86,-0.87 v -0.82 c 0,-0.48 -0.39,-0.87 -0.86,-0.87 z m 3.76,0 c -0.48,0 -0.87,0.39 -0.87,0.87 v 0.82 c 0,0.47 0.39,0.87 0.87,0.87 h 0.82 c 0.47,0 0.87,-0.4 0.87,-0.87 v -0.82 c 0,-0.48 -0.4,-0.87 -0.87,-0.87 z m 3.75,0 c -0.48,0 -0.87,0.39 -0.87,0.87 v 0.82 c 0,0.47 0.39,0.87 0.87,0.87 h 0.82 c 0.47,0 0.87,-0.4 0.87,-0.87 v -0.82 c 0,-0.48 -0.4,-0.87 -0.87,-0.87 z m -7.37,1 h 0.55 v 0.56 h -0.55 z m 3.75,0 h 0.56 v 0.56 h -0.56 z m 3.75,0 h 0.56 v 0.56 h -0.56 z m -12.79,4.27 h 18.29 c 0.14,0 0.23,0.1 0.23,0.24 v 0.23 c 0,0.13 -0.09,0.23 -0.23,0.23 H 15.38 c -0.13,0 -0.23,-0.1 -0.23,-0.23 v -0.23 c 0,-0.14 0.1,-0.24 0.23,-0.24 z" fill="#000000" stroke="none" pointer-events="all" id="path2"/>
        </g>
      </g>
    </g>
  </g>
  <script type="text/javascript"><![CDATA[/*
    # =============================================
    # ===             How to Use                ===
    # =============================================

    Variables with the following prefix:

    _pb_ = bool   parameter ( true or false )
    _pn_ = number parameter ( Int, Float, Real etc )
    _ps_ = string parameter ( string can be entered directly )
    _pc_ = color parameter in hex color code ( #00ff00ff )

    Indicate variable type to be used in Fuxa Properties and binding of Tags, Important! they have to be place within:

    //!export-start
    let _pn_setState = 0;
    //!export-end

    There are 2x Functions to handle sending and receiving data between Fuxa and the SVG

    // Recieve Variables From Fuxa
    function putValue(id, value) { } 
    
    // Send Variables To Fuxa
    function postValue(id, value) {
      console.error('Not defined!');
    }

    The ID is the name of the variable _pn_setState for example and value is the value to be sent or received from Fuxa


    This SVG uses an INT/Number Variable to change the State and State of the SVG:

    0 = Off
    1 = Run
    2 = Warning
    3 = Fault
    4 = Invalid
    5 = Spare

    You can also use the bool field and this will change the state between 0 = off and 1 = run 

    You can also set the color for each state in Fuxa using HEX color code #b4b4b4
    The Default Blink Interval for On and Off is 500ms but can also be changed in Fuxa in MS resolution

    <svg>
      SVG Content Here
      <script>
        JS Script Content Here
      </script>
    </svg>

    */

	  // Global Parameters and Variables

    //!export-start
    let _pn_setState = 0;                     // 0=Off, 1=Run, 2=Warn, 3=Fault, 4=Invalid, 5=Spare
    let _pb_boolState = false;                // true = Run, false = Off
    let _pn_setIntervalOn = 500;              // ms fault color is ON
    let _pn_setIntervalOff = 500;             // ms fault color is OFF
    let _pn_strokeWidth = 1;                  // Global stroke width for all states
    let _pc_fill_0 = 'none';                  // Off
    let _pc_fill_1 = 'none';                  // Run
    let _pc_fill_2 = 'none';                  // Warn
    let _pc_fill_3 = 'none';                  // Fault
    let _pc_fill_4 = 'none';                  // Invalid
    let _pc_fill_5 = 'none';                  // Spare
    let _pc_stroke_0 = '#7f7f7f';             // Off
    let _pc_stroke_1 = '#00ff00';             // Run
    let _pc_stroke_2 = '#ff9500';             // Warn
    let _pc_stroke_3 = '#ff0000';             // Fault
    let _pc_stroke_4 = '#3c3c3c';             // Invalid
    let _pc_stroke_5 = '#dcdcdc';             // Spare
    let _pb_preserveAspectRatio = true;       // true = preserve aspect ratio, false = stretch
    let _pn_rotateAngle = 0;                  // degrees, 0 = no rotation
    let _pn_rotateOffsetX = 0;                // offset from center (0 = center)
    let _pn_rotateOffsetY = 0;                // offset from center (0 = center)
    let _pb_flipHorizontal = false;           // true = flip X
    let _pb_flipVertical = false;             // true = flip Y
    let _pn_flipOffsetX = 0;                  // offset from center (0 = center)
    let _pn_flipOffsetY = 0;                  // offset from center (0 = center)
    let _pn_padding = 0;                      // padding around SVG (default 0)
    //!export-end

    let stateNumber = 0;
    let blinkInterval = null;
    let blinkTimer = null;
    let blinkObserver = null;
    let originalViewBox = null;

    // Get dynamic center from SVG viewBox (uses originalViewBox if available)
    function getCenter() {
      const svg = document.getElementById('fuxaWidget');
      const symbol = document.getElementById('fuxaSymbol');
      if (!svg) return { x: 25.5, y: 25.5 };
      if (symbol && typeof symbol.getBBox === 'function') {
        const bb = symbol.getBBox();
        return { x: bb.x + bb.width / 2, y: bb.y + bb.height / 2 };
      }
      const vbString = originalViewBox || svg.getAttribute('viewBox') || '0 0 51 51';
      const vb = vbString.split(/\s+/).map(parseFloat);
      return { x: (vb[0] + vb[2]) / 2, y: (vb[1] + vb[3]) / 2 };
    }

    // Apply transform to symbol group
    function applyTransform() {
      const symbol = document.getElementById('fuxaSymbol');
      if (!symbol) return;
      const center = getCenter();
      const cx = center.x + _pn_rotateOffsetX + _pn_flipOffsetX;
      const cy = center.y + _pn_rotateOffsetY + _pn_flipOffsetY;
      let transform = '';
      if (_pb_flipHorizontal || _pb_flipVertical) {
        const scaleX = _pb_flipHorizontal ? -1 : 1;
        const scaleY = _pb_flipVertical ? -1 : 1;
        transform += `scale(${scaleX}, ${scaleY}) translate(${scaleX === -1 ? -cx * 2 : 0}, ${scaleY === -1 ? -cy * 2 : 0}) `;
      }
      if (_pn_rotateAngle !== 0) {
        transform += `rotate(${_pn_rotateAngle}, ${cx}, ${cy}) `;
      }
      symbol.setAttribute('transform', transform.trim() || '');
    }

    // Update viewBox with padding
    function updatePadding() {
      const svg = document.getElementById('fuxaWidget');
      const symbol = document.getElementById('fuxaSymbol');
      if (!svg) return;
      const pad = Math.max(0, _pn_padding || 0);
      // Prefer persisted original viewBox (stable) — if not present, persist a computed one using getBBox
      const persisted = svg.getAttribute('data-fuxa-orig-viewbox');
      if (persisted) {
        const vb = persisted.split(/\s+/).map(parseFloat);
        const width = vb[2] - vb[0];
        const height = vb[3] - vb[1];
        const padded = Math.max(width, height);
        const size = padded + 2 * pad;
        const offsetX = (padded - width) / 2;
        const offsetY = (padded - height) / 2;
        svg.setAttribute('viewBox', `${vb[0] - pad - offsetX} ${vb[1] - pad - offsetY} ${size} ${size}`);
        return;
      }
      if (symbol && typeof symbol.getBBox === 'function') {
        // Use the actual content bounds to compute the original viewBox and persist it
        const bb = symbol.getBBox();
        const contentSize = Math.max(bb.width, bb.height);
        const size = contentSize + 2 * pad;
        const cx = bb.x + bb.width / 2;
        const cy = bb.y + bb.height / 2;
        const x = cx - size / 2;
        const y = cy - size / 2;
        const vbString = `${x} ${y} ${size} ${size}`;
        svg.setAttribute('data-fuxa-orig-viewbox', vbString);
        originalViewBox = vbString;
        svg.setAttribute('viewBox', vbString);
        return;
      }
      // Fallback to original viewBox if getBBox is not available
      const vbString = originalViewBox || svg.getAttribute('viewBox') || '0 0 51 51';
      const vb = vbString.split(/\s+/).map(parseFloat);
      const width = vb[2] - vb[0];
      const height = vb[3] - vb[1];
      const padded = Math.max(width, height);
      const size = padded + 2 * pad;
      const offsetX = (padded - width) / 2;
      const offsetY = (padded - height) / 2;
      svg.setAttribute('viewBox', `${vb[0] - pad - offsetX} ${vb[1] - pad - offsetY} ${size} ${size}`);
    }

    // Function to update preserveAspectRatio
    function updatePreserveAspectRatio() {
      const svg = document.getElementById('fuxaWidget');
      if (!svg) return;
      if (_pb_preserveAspectRatio) {
        svg.setAttribute('preserveAspectRatio', 'xMidYMid meet');
      } else {
        svg.setAttribute('preserveAspectRatio', 'none');
      }
    }

    // Function to update the color based on the set state
    function logic() {
      switch (stateNumber) {
        case 0: // off
          setBaseColor(_pc_stroke_0, _pc_fill_0);
          clearBlinking();
          break;
        case 1: // run
          setBaseColor(_pc_stroke_1, _pc_fill_1);
          clearBlinking();
          break;
        case 2: // warning
          setBaseColor(_pc_stroke_2, _pc_fill_2);
          clearBlinking();
          break;
        case 3: // fault
          const onRaw = +_pn_setIntervalOn;
          const offRaw = +_pn_setIntervalOff;
          const on = (onRaw > 0) ? Math.max(50, onRaw) : 0;
          const off = (offRaw > 0) ? Math.max(50, offRaw) : 0;

          if (on === 0 || off === 0) {
            setBaseColor(_pc_stroke_3, _pc_fill_3);
            clearBlinking();
          } else {
            startDualBlinking(_pc_stroke_0, _pc_stroke_3, _pc_fill_0, _pc_fill_3, on, off);
          }
          break;
        case 4: // invalid
          setBaseColor(_pc_stroke_4, _pc_fill_4);
          clearBlinking();
          break;
        case 5: // spare
          setBaseColor(_pc_stroke_5, _pc_fill_5);
          clearBlinking();
          break;
        default:
          console.log('Undefined State');
          clearBlinking();
      }
    }

    // Initial setup
    function init() {
      // ensure no residual timers from previous initializations
      clearBlinking();
      const svg = document.getElementById('fuxaWidget');
      if (svg) {
        // Use or persist the original viewBox to prevent cumulative padding growth
        if (!svg.getAttribute('data-fuxa-orig-viewbox')) {
          svg.setAttribute('data-fuxa-orig-viewbox', svg.getAttribute('viewBox') || '0 0 51 51');
        }
        originalViewBox = svg.getAttribute('data-fuxa-orig-viewbox');
      }
      updatePadding();
      updatePreserveAspectRatio();
      applyTransform();
      logic();
    }

    // Function to update values from Fuxa
    function putValue(id, value) {
      let needsTransform = false;

      if (id === '_pn_setState') {
        stateNumber = value;
        logic();
      }
      if (id === '_pb_boolState') {
        _pb_boolState = value;
        if (_pb_boolState === true) {
          stateNumber = 1;
        } else if (_pb_boolState === false) {
          stateNumber = 0;
        }
        logic();
      }
      if (id === '_pn_setIntervalOn') {
        _pn_setIntervalOn = value;
        if (stateNumber === 3) logic();
      }
      if (id === '_pn_setIntervalOff') {
        _pn_setIntervalOff = value;
        if (stateNumber === 3) logic();
      }
      if (id === '_pn_strokeWidth') _pn_strokeWidth = value;
      if (id === '_pc_fill_0') _pc_fill_0 = value;
      if (id === '_pc_fill_1') _pc_fill_1 = value;
      if (id === '_pc_fill_2') _pc_fill_2 = value;
      if (id === '_pc_fill_3') _pc_fill_3 = value;
      if (id === '_pc_fill_4') _pc_fill_4 = value;
      if (id === '_pc_fill_5') _pc_fill_5 = value;
      if (id === '_pc_stroke_0') _pc_stroke_0 = value;
      if (id === '_pc_stroke_1') _pc_stroke_1 = value;
      if (id === '_pc_stroke_2') _pc_stroke_2 = value;
      if (id === '_pc_stroke_3') _pc_stroke_3 = value;
      if (id === '_pc_stroke_4') _pc_stroke_4 = value;
      if (id === '_pc_stroke_5') _pc_stroke_5 = value;

      // ROTATE
      if (id === '_pn_rotateAngle') { _pn_rotateAngle = value; needsTransform = true; }
      if (id === '_pn_rotateOffsetX') { _pn_rotateOffsetX = value; needsTransform = true; }
      if (id === '_pn_rotateOffsetY') { _pn_rotateOffsetY = value; needsTransform = true; }

      // FLIP
      if (id === '_pb_flipHorizontal') {
        _pb_flipHorizontal = (value === true || value === 1 || value === '1');
        needsTransform = true;
      }
      if (id === '_pb_flipVertical') {
        _pb_flipVertical = (value === true || value === 1 || value === '1');
        needsTransform = true;
      }
      if (id === '_pn_flipOffsetX') { _pn_flipOffsetX = value; needsTransform = true; }
      if (id === '_pn_flipOffsetY') { _pn_flipOffsetY = value; needsTransform = true; }

      // PADDING
      if (id === '_pn_padding') {
        _pn_padding = Math.max(0, +value || 0);
        updatePadding();
        needsTransform = true;
      }

      // PRESERVE ASPECT RATIO
      if (id === '_pb_preserveAspectRatio') {
        _pb_preserveAspectRatio = (value === true || value === 1 || value === '1');
        updatePreserveAspectRatio();
      }

      if (needsTransform) {
        applyTransform();
      }
    }

    // Function to send values back to Fuxa (placeholder)
    function postValue(id, value) {
      console.log('Not defined!');
    }

    // Make postValue globally available only if not already set by Fuxa
    if (!window.postValue) {
      window.postValue = postValue;
    }

    // Initialize the SVG
    init();

    // Re-run init when the page becomes visible (e.g., returning from editor)
    document.addEventListener('visibilitychange', function() {
      if (document.visibilityState === 'visible') {
        setTimeout(() => init(), 10);
      }
    });

    // Function to update the color for the base shape group
    function setBaseColor(strokeColor, fillColor) {
      const symbol = document.getElementById('fuxaSymbol');
      if (!symbol) return;
      symbol.querySelectorAll('*').forEach(function(elem) {
        try {
          // Set both presentation attributes and inline styles so existing style attributes
          // (e.g., style="fill:none") are overridden by the inline style setting.
          if (fillColor !== undefined && fillColor !== null) {
            elem.setAttribute('fill', fillColor);
            elem.style.fill = fillColor;
          }
          if (strokeColor !== undefined && strokeColor !== null) {
            elem.setAttribute('stroke', strokeColor);
            elem.style.stroke = strokeColor;
          }
          elem.setAttribute('stroke-width', _pn_strokeWidth);
          elem.style.strokeWidth = String(_pn_strokeWidth);
        } catch (e) {
          // Ignore if an element doesn't accept a property
        }
      });
      applyTransform();
    }

    // DUAL BLINK: onTime (fault), offTime (off) - simple top-level tick-by-id function
    // This follows the original approach — a named top-level tick function that schedules itself.
    function fuxa_blink_tick(svgId) {
      const svg = document.getElementById(svgId);
      if (!svg) {
        clearBlinking();
        return;
      }
      if (!svg || !svg._fuxa_blink_params) return;
      const p = svg._fuxa_blink_params;
      if (svg._fuxa_blink_state) {
        setBaseColor(p.strokeOn, p.fillOn);
        svg._fuxa_blink_state = false;
        svg._fuxa_blink_timer = setTimeout(function() { fuxa_blink_tick(svgId); }, p.onTime);
      } else {
        setBaseColor(p.strokeOff, p.fillOff);
        svg._fuxa_blink_state = true;
        svg._fuxa_blink_timer = setTimeout(function() { fuxa_blink_tick(svgId); }, p.offTime);
      }
    }

    function startDualBlinking(strokeOff, strokeOn, fillOff, fillOn, onTime, offTime) {
      clearBlinking();
      // Ensure values are numbers
      onTime = Number(onTime) || 0;
      offTime = Number(offTime) || 0;
      const id = 'fuxaWidget';
      const svg = document.getElementById(id);
      if (!svg) return;
      svg._fuxa_blink_params = { strokeOff, strokeOn, fillOff, fillOn, onTime, offTime };
      svg._fuxa_blink_state = true;
      // start the tick by id (named function) for reliability
      fuxa_blink_tick(id);

      blinkObserver = new MutationObserver((mutations) => {
        mutations.forEach((mutation) => {
          mutation.removedNodes.forEach((node) => {
            if (node && node.id === 'fuxaWidget') {
              clearBlinking();
              if (blinkObserver) {
                blinkObserver.disconnect();
                blinkObserver = null;
              }
            }
          });
        });
      });
      blinkObserver.observe(document.body, { childList: true, subtree: true });
    }

    // FULL CLEAR BLINKING
    function clearBlinking() {
      if (blinkInterval) {
        clearInterval(blinkInterval);
        blinkInterval = null;
      }
      if (blinkTimer) {
        clearTimeout(blinkTimer);
        blinkTimer = null;
      }
      if (blinkObserver) {
        blinkObserver.disconnect();
        blinkObserver = null;
      }
      const svg = document.getElementById('fuxaWidget');
      if (svg) {
        if (svg._fuxa_blink_timer) { clearTimeout(svg._fuxa_blink_timer); svg._fuxa_blink_timer = null; }
        if (svg._fuxa_blink_params) { svg._fuxa_blink_params = null; }
        if (svg._fuxa_blink_state !== undefined) { svg._fuxa_blink_state = null; }
      }
    }]]></script>
</svg>
