<?xml version='1.0' encoding='UTF-8'?>
<svg xmlns="http://www.w3.org/2000/svg" xmlns:svg="http://www.w3.org/2000/svg" version="1.1" viewBox="0 0 50 40.279999" id="fuxaWidget" style="border: none !important; outline: none !important; box-shadow: none !important; margin: 0; padding: 0; background: transparent;" width="100%" height="100%">
  <g id="fuxaSymbol">
    <defs id="defs1"/>
    <g data-cell-id="gQ551Ar7PwXLAaA90adm-561" id="g20" transform="translate(-0.5,-0.5)">
      <g id="cell-gQ551Ar7PwXLAaA90adm-561">
        <g transform="translate(0.5,0.5)" id="g19">
          <path d="M 32.94,0 C 24.78,0.14 18.46,5.2 16.83,11.11 14.26,9.81 11.89,9.54 9.36,9.85 v 0 C 3.36,10.6 0,15.38 0,19.09 c 0,3.07 1.45,5.44 3.39,7.04 1.94,1.6 4.37,2.46 6.46,2.59 L 9.92,27.68 C 8.06,27.56 5.8,26.77 4.05,25.32 2.3,23.88 1.04,21.83 1.04,19.09 c 0,-3.06 2.95,-7.52 8.45,-8.2 2.57,-0.32 4.79,-0.08 7.4,1.39 0.31,0.17 0.69,0 0.77,-0.35 1.21,-5.6 7.29,-10.75 15.29,-10.89 10.13,0.01 16.01,6.8 16.01,13.31 0,3.57 -1.56,6.5 -3.7,8.66 -2.14,2.16 -4.86,3.52 -7.07,3.91 l 0.18,1.03 c 2.47,-0.44 5.34,-1.89 7.63,-4.21 2.29,-2.31 4,-5.52 4,-9.39 C 50,7.21 43.54,0 32.95,0 Z m -7.55,15.14 v 0 c -1.53,0 -2.79,0.87 -3.23,2 v 0 l -0.82,2.16 v 0.01 c -0.17,0.56 -0.44,0.97 -0.66,1.13 v 0.01 l -0.01,0.01 c -0.16,0.13 -0.48,0.23 -0.86,0.24 -0.39,0.02 -0.81,-0.05 -1.13,-0.14 h -0.02 l -0.01,-0.01 -2.18,-0.49 -0.03,-0.01 c -1.95,-0.23 -3.34,0.67 -3.8,1.65 v 0 l -0.01,0.01 c -0.5,1.16 -0.08,2.46 0.66,3.2 v 0 l 1.75,1.63 c 0.37,0.37 0.76,0.85 0.76,1.22 0,0.57 -0.4,0.93 -0.88,1.35 0,0 0,0 0,0 l -1.29,1.08 0.02,-0.02 c -0.58,0.44 -0.95,1.1 -1.1,1.78 -0.16,0.69 -0.12,1.41 0.21,2.02 0.35,0.63 1.01,1.05 1.77,1.28 0.75,0.24 1.61,0.3 2.41,0.05 v 0 l 1.65,-0.41 v 0 c 0.63,-0.18 1.61,-0.15 1.99,0.08 0.51,0.38 0.55,0.71 0.83,1.39 l 0.96,2.31 0.01,0.03 c 0.55,0.96 1.52,1.58 2.71,1.58 1.83,0 2.98,-1.09 3.36,-2.24 v 0 l 0.62,-1.91 v 0 c 0.24,-0.68 0.35,-0.94 0.75,-1.24 0.24,-0.15 0.45,-0.21 0.78,-0.21 0.33,-0.01 0.76,0.06 1.3,0.17 0,0 0,0 0.01,0 l 2.15,0.53 0.01,0.01 c 0.57,0.11 1.19,0.04 1.79,-0.14 0.59,-0.19 1.15,-0.49 1.52,-0.98 l 0.01,-0.01 0.01,-0.02 c 0.84,-1.27 0.81,-2.81 -0.19,-3.66 v 0 L 35.4,29.04 c -0.25,-0.25 -0.47,-0.43 -0.6,-0.62 -0.14,-0.19 -0.22,-0.37 -0.22,-0.74 0,-0.19 0.08,-0.37 0.29,-0.63 0.22,-0.26 0.56,-0.56 0.93,-0.92 v 0 l 1.37,-1.29 h 0.01 c 1.04,-1.02 0.97,-2.66 0.14,-3.74 H 37.31 V 21.09 C 36.88,20.56 36.28,20.26 35.69,20.1 35.11,19.94 34.55,19.92 34.08,20.06 L 34.12,20.05 32,20.49 31.99,20.5 c -0.59,0.16 -1.45,0.26 -2.01,0.07 -0.38,-0.16 -0.84,-0.76 -0.97,-1.2 v 0 L 28.3,17.14 C 28.14,16.6 27.72,16.15 27.21,15.78 26.69,15.42 26.06,15.14 25.39,15.14 Z m 0,1 v 0 0 c 0.38,0 0.86,0.19 1.24,0.46 0.38,0.27 0.66,0.65 0.71,0.83 v 0 l 0.71,2.23 c 0.22,0.73 0.74,1.51 1.56,1.84 l 0.01,0.01 h 0.01 c 0.91,0.33 1.9,0.15 2.61,-0.04 l 2.1,-0.45 h 0.02 c 0.2,-0.06 0.64,-0.07 1.08,0.05 0.43,0.11 0.84,0.34 1.09,0.65 0.54,0.7 0.58,1.79 -0.05,2.4 l -1.37,1.29 v 0 c -0.35,0.34 -0.71,0.65 -1,1 -0.29,0.35 -0.53,0.77 -0.53,1.27 0,0.56 0.17,1.01 0.41,1.34 0.24,0.32 0.51,0.53 0.7,0.73 l 0.02,0.02 1.85,1.58 v 0 c 0.56,0.46 0.64,1.36 0.01,2.32 -0.18,0.24 -0.57,0.48 -1.01,0.62 -0.46,0.15 -0.96,0.18 -1.29,0.12 L 32.11,33.87 H 32.1 c -0.56,-0.11 -1.04,-0.2 -1.51,-0.19 -0.46,0 -0.92,0.11 -1.33,0.38 l -0.01,0.01 -0.01,0.01 c -0.6,0.44 -0.86,0.99 -1.12,1.72 v 0.01 l -0.62,1.92 c -0.26,0.79 -0.95,1.55 -2.41,1.55 -0.86,0 -1.43,-0.37 -1.83,-1.07 l -0.92,-2.23 v 0 C 22.09,35.39 21.93,34.7 21.15,34.15 l -0.01,-0.01 -0.01,-0.01 c -0.84,-0.53 -1.96,-0.44 -2.81,-0.2 l 0.02,-0.01 -1.67,0.42 -0.02,0.01 c -0.56,0.17 -1.24,0.13 -1.82,-0.05 -0.58,-0.18 -1.03,-0.52 -1.19,-0.81 v 0 0 c -0.18,-0.32 -0.23,-0.82 -0.12,-1.31 0.11,-0.49 0.38,-0.95 0.73,-1.21 l 0.01,-0.01 1.32,-1.09 v -0.01 c 0.48,-0.42 1.22,-1.06 1.22,-2.1 0,-0.92 -0.67,-1.54 -1.05,-1.93 H 15.74 L 13.98,24.19 14,24.2 c -0.42,-0.42 -0.73,-1.41 -0.45,-2.08 0.21,-0.44 1.19,-1.25 2.76,-1.07 l 2.09,0.47 c 0.42,0.12 0.93,0.2 1.44,0.18 0.52,-0.02 1.05,-0.12 1.47,-0.48 0.45,-0.35 0.77,-0.91 0.98,-1.6 l 0.8,-2.12 v 0 c 0.26,-0.66 1.17,-1.36 2.3,-1.36 z m -0.18,7.87 c -2.04,0 -3.71,1.66 -3.71,3.7 0,2.04 1.67,3.7 3.71,3.7 2.04,0 3.7,-1.66 3.7,-3.7 0,-2.04 -1.66,-3.7 -3.7,-3.7 z m 0,1 c 1.5,0 2.7,1.2 2.7,2.7 0,1.5 -1.2,2.7 -2.7,2.7 -1.5,0 -2.71,-1.2 -2.71,-2.7 0,-1.5 1.21,-2.7 2.71,-2.7 z" fill="#000000" stroke="none" pointer-events="all" id="path18"/>
        </g>
      </g>
    </g>
  </g>
  <script type="text/javascript"><![CDATA[/*
    # =============================================
    # ===             How to Use                ===
    # =============================================

    Variables with the following prefix:

    _pb_ = bool   parameter ( true or false )
    _pn_ = number parameter ( Int, Float, Real etc )
    _ps_ = string parameter ( string can be entered directly )
    _pc_ = color parameter in hex color code ( #00ff00ff )

    Indicate variable type to be used in Fuxa Properties and binding of Tags, Important! they have to be place within:

    //!export-start
    let _pn_setState = 0;
    //!export-end

    There are 2x Functions to handle sending and receiving data between Fuxa and the SVG

    // Recieve Variables From Fuxa
    function putValue(id, value) { } 
    
    // Send Variables To Fuxa
    function postValue(id, value) {
      console.error('Not defined!');
    }

    The ID is the name of the variable _pn_setState for example and value is the value to be sent or received from Fuxa


    This SVG uses an INT/Number Variable to change the State and State of the SVG:

    0 = Off
    1 = Run
    2 = Warning
    3 = Fault
    4 = Invalid
    5 = Spare

    You can also use the bool field and this will change the state between 0 = off and 1 = run 

    You can also set the color for each state in Fuxa using HEX color code #b4b4b4
    The Default Blink Interval for On and Off is 500ms but can also be changed in Fuxa in MS resolution

    <svg>
      SVG Content Here
      <script>
        JS Script Content Here
      </script>
    </svg>

    */

	  // Global Parameters and Variables

    //!export-start
    let _pn_setState = 0;                     // 0=Off, 1=Run, 2=Warn, 3=Fault, 4=Invalid, 5=Spare
    let _pb_boolState = false;                // true = Run, false = Off
    let _pn_setIntervalOn = 500;              // ms fault color is ON
    let _pn_setIntervalOff = 500;             // ms fault color is OFF
    let _pn_strokeWidth = 1;                  // Global stroke width for all states
    let _pc_fill_0 = 'none';                  // Off
    let _pc_fill_1 = 'none';                  // Run
    let _pc_fill_2 = 'none';                  // Warn
    let _pc_fill_3 = 'none';                  // Fault
    let _pc_fill_4 = 'none';                  // Invalid
    let _pc_fill_5 = 'none';                  // Spare
    let _pc_stroke_0 = '#7f7f7f';             // Off
    let _pc_stroke_1 = '#00ff00';             // Run
    let _pc_stroke_2 = '#ff9500';             // Warn
    let _pc_stroke_3 = '#ff0000';             // Fault
    let _pc_stroke_4 = '#3c3c3c';             // Invalid
    let _pc_stroke_5 = '#dcdcdc';             // Spare
    let _pb_preserveAspectRatio = true;       // true = preserve aspect ratio, false = stretch
    let _pn_rotateAngle = 0;                  // degrees, 0 = no rotation
    let _pn_rotateOffsetX = 0;                // offset from center (0 = center)
    let _pn_rotateOffsetY = 0;                // offset from center (0 = center)
    let _pb_flipHorizontal = false;           // true = flip X
    let _pb_flipVertical = false;             // true = flip Y
    let _pn_flipOffsetX = 0;                  // offset from center (0 = center)
    let _pn_flipOffsetY = 0;                  // offset from center (0 = center)
    let _pn_padding = 0;                      // padding around SVG (default 0)
    //!export-end

    let stateNumber = 0;
    let blinkInterval = null;
    let blinkTimer = null;
    let blinkObserver = null;
    let originalViewBox = null;

    // Get dynamic center from SVG viewBox (uses originalViewBox if available)
    function getCenter() {
      const svg = document.getElementById('fuxaWidget');
      const symbol = document.getElementById('fuxaSymbol');
      if (!svg) return { x: 25.5, y: 25.5 };
      if (symbol && typeof symbol.getBBox === 'function') {
        const bb = symbol.getBBox();
        return { x: bb.x + bb.width / 2, y: bb.y + bb.height / 2 };
      }
      const vbString = originalViewBox || svg.getAttribute('viewBox') || '0 0 51 51';
      const vb = vbString.split(/\s+/).map(parseFloat);
      return { x: (vb[0] + vb[2]) / 2, y: (vb[1] + vb[3]) / 2 };
    }

    // Apply transform to symbol group
    function applyTransform() {
      const symbol = document.getElementById('fuxaSymbol');
      if (!symbol) return;
      const center = getCenter();
      const cx = center.x + _pn_rotateOffsetX + _pn_flipOffsetX;
      const cy = center.y + _pn_rotateOffsetY + _pn_flipOffsetY;
      let transform = '';
      if (_pb_flipHorizontal || _pb_flipVertical) {
        const scaleX = _pb_flipHorizontal ? -1 : 1;
        const scaleY = _pb_flipVertical ? -1 : 1;
        transform += `scale(${scaleX}, ${scaleY}) translate(${scaleX === -1 ? -cx * 2 : 0}, ${scaleY === -1 ? -cy * 2 : 0}) `;
      }
      if (_pn_rotateAngle !== 0) {
        transform += `rotate(${_pn_rotateAngle}, ${cx}, ${cy}) `;
      }
      symbol.setAttribute('transform', transform.trim() || '');
    }

    // Update viewBox with padding
    function updatePadding() {
      const svg = document.getElementById('fuxaWidget');
      const symbol = document.getElementById('fuxaSymbol');
      if (!svg) return;
      const pad = Math.max(0, _pn_padding || 0);
      // Prefer persisted original viewBox (stable) — if not present, persist a computed one using getBBox
      const persisted = svg.getAttribute('data-fuxa-orig-viewbox');
      if (persisted) {
        const vb = persisted.split(/\s+/).map(parseFloat);
        const width = vb[2] - vb[0];
        const height = vb[3] - vb[1];
        const padded = Math.max(width, height);
        const size = padded + 2 * pad;
        const offsetX = (padded - width) / 2;
        const offsetY = (padded - height) / 2;
        svg.setAttribute('viewBox', `${vb[0] - pad - offsetX} ${vb[1] - pad - offsetY} ${size} ${size}`);
        return;
      }
      if (symbol && typeof symbol.getBBox === 'function') {
        // Use the actual content bounds to compute the original viewBox and persist it
        const bb = symbol.getBBox();
        const contentSize = Math.max(bb.width, bb.height);
        const size = contentSize + 2 * pad;
        const cx = bb.x + bb.width / 2;
        const cy = bb.y + bb.height / 2;
        const x = cx - size / 2;
        const y = cy - size / 2;
        const vbString = `${x} ${y} ${size} ${size}`;
        svg.setAttribute('data-fuxa-orig-viewbox', vbString);
        originalViewBox = vbString;
        svg.setAttribute('viewBox', vbString);
        return;
      }
      // Fallback to original viewBox if getBBox is not available
      const vbString = originalViewBox || svg.getAttribute('viewBox') || '0 0 51 51';
      const vb = vbString.split(/\s+/).map(parseFloat);
      const width = vb[2] - vb[0];
      const height = vb[3] - vb[1];
      const padded = Math.max(width, height);
      const size = padded + 2 * pad;
      const offsetX = (padded - width) / 2;
      const offsetY = (padded - height) / 2;
      svg.setAttribute('viewBox', `${vb[0] - pad - offsetX} ${vb[1] - pad - offsetY} ${size} ${size}`);
    }

    // Function to update preserveAspectRatio
    function updatePreserveAspectRatio() {
      const svg = document.getElementById('fuxaWidget');
      if (!svg) return;
      if (_pb_preserveAspectRatio) {
        svg.setAttribute('preserveAspectRatio', 'xMidYMid meet');
      } else {
        svg.setAttribute('preserveAspectRatio', 'none');
      }
    }

    // Function to update the color based on the set state
    function logic() {
      switch (stateNumber) {
        case 0: // off
          setBaseColor(_pc_stroke_0, _pc_fill_0);
          clearBlinking();
          break;
        case 1: // run
          setBaseColor(_pc_stroke_1, _pc_fill_1);
          clearBlinking();
          break;
        case 2: // warning
          setBaseColor(_pc_stroke_2, _pc_fill_2);
          clearBlinking();
          break;
        case 3: // fault
          const onRaw = +_pn_setIntervalOn;
          const offRaw = +_pn_setIntervalOff;
          const on = (onRaw > 0) ? Math.max(50, onRaw) : 0;
          const off = (offRaw > 0) ? Math.max(50, offRaw) : 0;

          if (on === 0 || off === 0) {
            setBaseColor(_pc_stroke_3, _pc_fill_3);
            clearBlinking();
          } else {
            startDualBlinking(_pc_stroke_0, _pc_stroke_3, _pc_fill_0, _pc_fill_3, on, off);
          }
          break;
        case 4: // invalid
          setBaseColor(_pc_stroke_4, _pc_fill_4);
          clearBlinking();
          break;
        case 5: // spare
          setBaseColor(_pc_stroke_5, _pc_fill_5);
          clearBlinking();
          break;
        default:
          console.log('Undefined State');
          clearBlinking();
      }
    }

    // Initial setup
    function init() {
      // ensure no residual timers from previous initializations
      clearBlinking();
      const svg = document.getElementById('fuxaWidget');
      if (svg) {
        // Use or persist the original viewBox to prevent cumulative padding growth
        if (!svg.getAttribute('data-fuxa-orig-viewbox')) {
          svg.setAttribute('data-fuxa-orig-viewbox', svg.getAttribute('viewBox') || '0 0 51 51');
        }
        originalViewBox = svg.getAttribute('data-fuxa-orig-viewbox');
      }
      updatePadding();
      updatePreserveAspectRatio();
      applyTransform();
      logic();
    }

    // Function to update values from Fuxa
    function putValue(id, value) {
      let needsTransform = false;

      if (id === '_pn_setState') {
        stateNumber = value;
        logic();
      }
      if (id === '_pb_boolState') {
        _pb_boolState = value;
        if (_pb_boolState === true) {
          stateNumber = 1;
        } else if (_pb_boolState === false) {
          stateNumber = 0;
        }
        logic();
      }
      if (id === '_pn_setIntervalOn') {
        _pn_setIntervalOn = value;
        if (stateNumber === 3) logic();
      }
      if (id === '_pn_setIntervalOff') {
        _pn_setIntervalOff = value;
        if (stateNumber === 3) logic();
      }
      if (id === '_pn_strokeWidth') _pn_strokeWidth = value;
      if (id === '_pc_fill_0') _pc_fill_0 = value;
      if (id === '_pc_fill_1') _pc_fill_1 = value;
      if (id === '_pc_fill_2') _pc_fill_2 = value;
      if (id === '_pc_fill_3') _pc_fill_3 = value;
      if (id === '_pc_fill_4') _pc_fill_4 = value;
      if (id === '_pc_fill_5') _pc_fill_5 = value;
      if (id === '_pc_stroke_0') _pc_stroke_0 = value;
      if (id === '_pc_stroke_1') _pc_stroke_1 = value;
      if (id === '_pc_stroke_2') _pc_stroke_2 = value;
      if (id === '_pc_stroke_3') _pc_stroke_3 = value;
      if (id === '_pc_stroke_4') _pc_stroke_4 = value;
      if (id === '_pc_stroke_5') _pc_stroke_5 = value;

      // ROTATE
      if (id === '_pn_rotateAngle') { _pn_rotateAngle = value; needsTransform = true; }
      if (id === '_pn_rotateOffsetX') { _pn_rotateOffsetX = value; needsTransform = true; }
      if (id === '_pn_rotateOffsetY') { _pn_rotateOffsetY = value; needsTransform = true; }

      // FLIP
      if (id === '_pb_flipHorizontal') {
        _pb_flipHorizontal = (value === true || value === 1 || value === '1');
        needsTransform = true;
      }
      if (id === '_pb_flipVertical') {
        _pb_flipVertical = (value === true || value === 1 || value === '1');
        needsTransform = true;
      }
      if (id === '_pn_flipOffsetX') { _pn_flipOffsetX = value; needsTransform = true; }
      if (id === '_pn_flipOffsetY') { _pn_flipOffsetY = value; needsTransform = true; }

      // PADDING
      if (id === '_pn_padding') {
        _pn_padding = Math.max(0, +value || 0);
        updatePadding();
        needsTransform = true;
      }

      // PRESERVE ASPECT RATIO
      if (id === '_pb_preserveAspectRatio') {
        _pb_preserveAspectRatio = (value === true || value === 1 || value === '1');
        updatePreserveAspectRatio();
      }

      if (needsTransform) {
        applyTransform();
      }
    }

    // Function to send values back to Fuxa (placeholder)
    function postValue(id, value) {
      console.log('Not defined!');
    }

    // Make postValue globally available only if not already set by Fuxa
    if (!window.postValue) {
      window.postValue = postValue;
    }

    // Initialize the SVG
    init();

    // Re-run init when the page becomes visible (e.g., returning from editor)
    document.addEventListener('visibilitychange', function() {
      if (document.visibilityState === 'visible') {
        setTimeout(() => init(), 10);
      }
    });

    // Function to update the color for the base shape group
    function setBaseColor(strokeColor, fillColor) {
      const symbol = document.getElementById('fuxaSymbol');
      if (!symbol) return;
      symbol.querySelectorAll('*').forEach(function(elem) {
        try {
          // Set both presentation attributes and inline styles so existing style attributes
          // (e.g., style="fill:none") are overridden by the inline style setting.
          if (fillColor !== undefined && fillColor !== null) {
            elem.setAttribute('fill', fillColor);
            elem.style.fill = fillColor;
          }
          if (strokeColor !== undefined && strokeColor !== null) {
            elem.setAttribute('stroke', strokeColor);
            elem.style.stroke = strokeColor;
          }
          elem.setAttribute('stroke-width', _pn_strokeWidth);
          elem.style.strokeWidth = String(_pn_strokeWidth);
        } catch (e) {
          // Ignore if an element doesn't accept a property
        }
      });
      applyTransform();
    }

    // DUAL BLINK: onTime (fault), offTime (off) - simple top-level tick-by-id function
    // This follows the original approach — a named top-level tick function that schedules itself.
    function fuxa_blink_tick(svgId) {
      const svg = document.getElementById(svgId);
      if (!svg) {
        clearBlinking();
        return;
      }
      if (!svg || !svg._fuxa_blink_params) return;
      const p = svg._fuxa_blink_params;
      if (svg._fuxa_blink_state) {
        setBaseColor(p.strokeOn, p.fillOn);
        svg._fuxa_blink_state = false;
        svg._fuxa_blink_timer = setTimeout(function() { fuxa_blink_tick(svgId); }, p.onTime);
      } else {
        setBaseColor(p.strokeOff, p.fillOff);
        svg._fuxa_blink_state = true;
        svg._fuxa_blink_timer = setTimeout(function() { fuxa_blink_tick(svgId); }, p.offTime);
      }
    }

    function startDualBlinking(strokeOff, strokeOn, fillOff, fillOn, onTime, offTime) {
      clearBlinking();
      // Ensure values are numbers
      onTime = Number(onTime) || 0;
      offTime = Number(offTime) || 0;
      const id = 'fuxaWidget';
      const svg = document.getElementById(id);
      if (!svg) return;
      svg._fuxa_blink_params = { strokeOff, strokeOn, fillOff, fillOn, onTime, offTime };
      svg._fuxa_blink_state = true;
      // start the tick by id (named function) for reliability
      fuxa_blink_tick(id);

      blinkObserver = new MutationObserver((mutations) => {
        mutations.forEach((mutation) => {
          mutation.removedNodes.forEach((node) => {
            if (node && node.id === 'fuxaWidget') {
              clearBlinking();
              if (blinkObserver) {
                blinkObserver.disconnect();
                blinkObserver = null;
              }
            }
          });
        });
      });
      blinkObserver.observe(document.body, { childList: true, subtree: true });
    }

    // FULL CLEAR BLINKING
    function clearBlinking() {
      if (blinkInterval) {
        clearInterval(blinkInterval);
        blinkInterval = null;
      }
      if (blinkTimer) {
        clearTimeout(blinkTimer);
        blinkTimer = null;
      }
      if (blinkObserver) {
        blinkObserver.disconnect();
        blinkObserver = null;
      }
      const svg = document.getElementById('fuxaWidget');
      if (svg) {
        if (svg._fuxa_blink_timer) { clearTimeout(svg._fuxa_blink_timer); svg._fuxa_blink_timer = null; }
        if (svg._fuxa_blink_params) { svg._fuxa_blink_params = null; }
        if (svg._fuxa_blink_state !== undefined) { svg._fuxa_blink_state = null; }
      }
    }]]></script>
</svg>
