<?xml version='1.0' encoding='UTF-8'?>
<svg xmlns="http://www.w3.org/2000/svg" xmlns:svg="http://www.w3.org/2000/svg" version="1.1" viewBox="0 0 50 49.91" id="fuxaWidget" style="border: none !important; outline: none !important; box-shadow: none !important; margin: 0; padding: 0; background: transparent;" width="100%" height="100%">
  <g id="fuxaSymbol">
    <defs id="defs1"/>
    <g data-cell-id="gQ551Ar7PwXLAaA90adm-638" id="g14" transform="translate(-0.5,-0.5)">
      <g id="cell-gQ551Ar7PwXLAaA90adm-638">
        <g transform="translate(0.5,0.5)" id="g13">
          <path d="m 31.51,0 c -0.08,0 -0.15,0 -0.23,0.02 v 0 c 0,0 -0.01,0 -0.01,0 -3.14,0.5 -5.73,1.37 -8.38,3.06 0,0 0,0 -0.01,0 -2.33,1.39 -4.71,3.59 -6.83,7.09 L 13.75,7.89 C 13.74,7.88 13.73,7.87 13.72,7.85 13.35,7.55 12.91,7.38 12.48,7.4 12.04,7.42 11.63,7.65 11.34,8 c 0,0 0,0 0,0.01 -1.78,2.26 -2.94,4.66 -3.37,6.62 0,0 0,0.01 0,0.01 -0.88,4.23 -0.36,6.58 0.41,9.29 0.08,0.28 0.36,0.43 0.64,0.36 0.27,-0.08 0.43,-0.36 0.35,-0.64 -0.76,-2.69 -1.24,-4.71 -0.39,-8.8 0.38,-1.74 1.47,-4.04 3.16,-6.2 0.14,-0.17 0.26,-0.22 0.39,-0.22 0.13,-0.01 0.31,0.04 0.53,0.22 l 2.72,2.69 c 0.11,0.12 0.27,0.17 0.43,0.15 0.16,-0.02 0.3,-0.12 0.38,-0.26 2.13,-3.71 4.51,-5.89 6.84,-7.27 0,0 0,-0.01 0.01,-0.01 2.53,-1.62 4.95,-2.43 7.99,-2.92 0.22,-0.03 0.32,0.05 0.42,0.21 0.11,0.17 0.14,0.44 0.09,0.59 -1.59,4.71 -1.1,8.86 0,12.82 0.06,0.19 0.21,0.33 0.4,0.37 0.18,0.04 0.38,-0.03 0.5,-0.18 l 3.84,-4.74 c 3.13,4.64 3.1,9.42 1.71,13.65 -0.09,0.27 0.06,0.56 0.32,0.65 0.13,0.04 0.28,0.03 0.4,-0.03 0.12,-0.06 0.21,-0.17 0.26,-0.3 C 40.89,19.44 40.89,14.01 37.15,8.91 37.05,8.78 36.9,8.71 36.74,8.7 36.58,8.7 36.43,8.77 36.33,8.89 L 32.7,13.37 C 31.83,9.84 31.53,6.25 32.92,2.16 33.09,1.66 33,1.12 32.72,0.69 32.48,0.31 32.03,0.01 31.51,0 Z m -8.44,14.84 c -0.28,0.01 -0.56,0.08 -0.82,0.23 v 0 c -2.72,1.51 -5.18,4.1 -5.98,8.74 -0.05,0.28 0.14,0.54 0.42,0.59 0.28,0.05 0.54,-0.14 0.59,-0.42 0.75,-4.36 2.94,-6.61 5.47,-8.01 0,0 0,0 0,0 0.27,-0.15 0.53,-0.11 0.69,0.01 0.16,0.12 0.28,0.32 0.13,0.78 0,0 0,0.01 0,0.02 -0.56,2.01 -0.45,4.46 0.8,6.58 0.08,0.14 0.23,0.23 0.39,0.25 1.3,0.14 2.46,-0.41 3.08,-1.59 0.13,-0.19 0.28,-0.29 0.42,-0.31 0.13,-0.03 0.26,-0.01 0.44,0.16 0.78,0.78 1.21,1.55 1.41,2.19 0.08,0.27 0.37,0.43 0.64,0.34 0.27,-0.08 0.43,-0.37 0.34,-0.64 -0.25,-0.82 -0.78,-1.74 -1.68,-2.63 0,0 0,-0.01 -0.01,-0.01 -0.38,-0.36 -0.89,-0.51 -1.34,-0.42 -0.45,0.09 -0.83,0.38 -1.09,0.77 -0.01,0.01 -0.02,0.03 -0.03,0.05 -0.41,0.8 -0.97,1.05 -1.81,1.03 -0.94,-1.78 -1.04,-3.82 -0.57,-5.5 0.23,-0.76 0.01,-1.5 -0.49,-1.88 -0.25,-0.2 -0.56,-0.31 -0.88,-0.32 -0.04,-0.01 -0.08,-0.01 -0.12,-0.01 z M 2.56,27.61 C 1.15,27.61 0,28.76 0,30.17 v 17.18 c 0,1.41 1.15,2.56 2.56,2.56 h 44.88 c 1.41,0 2.56,-1.15 2.56,-2.56 V 30.17 c 0,-1.41 -1.15,-2.56 -2.56,-2.56 z m 0,1.03 h 5.93 v 5.31 H 1.03 v -3.78 c 0,-0.86 0.67,-1.53 1.53,-1.53 z m 6.96,0 h 24.53 v 5.31 H 9.52 Z m 25.56,0 h 12.36 c 0.86,0 1.53,0.67 1.53,1.53 v 3.78 H 35.08 Z M 1.03,34.98 h 21.3 v 6.43 H 1.03 Z m 22.33,0 h 25.61 v 6.43 H 23.36 Z M 1.03,42.44 h 7.46 v 6.45 H 2.56 c -0.86,0 -1.53,-0.68 -1.53,-1.54 z m 8.49,0 h 24.53 v 6.45 H 9.52 Z m 25.56,0 h 13.89 v 4.91 c 0,0.86 -0.67,1.54 -1.53,1.54 H 35.08 Z" fill="#000000" stroke="none" pointer-events="all" id="path12"/>
        </g>
      </g>
    </g>
  </g>
  <script type="text/javascript"><![CDATA[/*
    # =============================================
    # ===             How to Use                ===
    # =============================================

    Variables with the following prefix:

    _pb_ = bool   parameter ( true or false )
    _pn_ = number parameter ( Int, Float, Real etc )
    _ps_ = string parameter ( string can be entered directly )
    _pc_ = color parameter in hex color code ( #00ff00ff )

    Indicate variable type to be used in Fuxa Properties and binding of Tags, Important! they have to be place within:

    //!export-start
    let _pn_setState = 0;
    //!export-end

    There are 2x Functions to handle sending and receiving data between Fuxa and the SVG

    // Recieve Variables From Fuxa
    function putValue(id, value) { } 
    
    // Send Variables To Fuxa
    function postValue(id, value) {
      console.error('Not defined!');
    }

    The ID is the name of the variable _pn_setState for example and value is the value to be sent or received from Fuxa


    This SVG uses an INT/Number Variable to change the State and State of the SVG:

    0 = Off
    1 = Run
    2 = Warning
    3 = Fault
    4 = Invalid
    5 = Spare

    You can also use the bool field and this will change the state between 0 = off and 1 = run 

    You can also set the color for each state in Fuxa using HEX color code #b4b4b4
    The Default Blink Interval for On and Off is 500ms but can also be changed in Fuxa in MS resolution

    <svg>
      SVG Content Here
      <script>
        JS Script Content Here
      </script>
    </svg>

    */

	  // Global Parameters and Variables

    //!export-start
    let _pn_setState = 0;                     // 0=Off, 1=Run, 2=Warn, 3=Fault, 4=Invalid, 5=Spare
    let _pb_boolState = false;                // true = Run, false = Off
    let _pn_setIntervalOn = 500;              // ms fault color is ON
    let _pn_setIntervalOff = 500;             // ms fault color is OFF
    let _pn_strokeWidth = 1;                  // Global stroke width for all states
    let _pc_fill_0 = 'none';                  // Off
    let _pc_fill_1 = 'none';                  // Run
    let _pc_fill_2 = 'none';                  // Warn
    let _pc_fill_3 = 'none';                  // Fault
    let _pc_fill_4 = 'none';                  // Invalid
    let _pc_fill_5 = 'none';                  // Spare
    let _pc_stroke_0 = '#7f7f7f';             // Off
    let _pc_stroke_1 = '#00ff00';             // Run
    let _pc_stroke_2 = '#ff9500';             // Warn
    let _pc_stroke_3 = '#ff0000';             // Fault
    let _pc_stroke_4 = '#3c3c3c';             // Invalid
    let _pc_stroke_5 = '#dcdcdc';             // Spare
    let _pb_preserveAspectRatio = true;       // true = preserve aspect ratio, false = stretch
    let _pn_rotateAngle = 0;                  // degrees, 0 = no rotation
    let _pn_rotateOffsetX = 0;                // offset from center (0 = center)
    let _pn_rotateOffsetY = 0;                // offset from center (0 = center)
    let _pb_flipHorizontal = false;           // true = flip X
    let _pb_flipVertical = false;             // true = flip Y
    let _pn_flipOffsetX = 0;                  // offset from center (0 = center)
    let _pn_flipOffsetY = 0;                  // offset from center (0 = center)
    let _pn_padding = 0;                      // padding around SVG (default 0)
    //!export-end

    let stateNumber = 0;
    let blinkInterval = null;
    let blinkTimer = null;
    let blinkObserver = null;
    let originalViewBox = null;

    // Get dynamic center from SVG viewBox (uses originalViewBox if available)
    function getCenter() {
      const svg = document.getElementById('fuxaWidget');
      const symbol = document.getElementById('fuxaSymbol');
      if (!svg) return { x: 25.5, y: 25.5 };
      if (symbol && typeof symbol.getBBox === 'function') {
        const bb = symbol.getBBox();
        return { x: bb.x + bb.width / 2, y: bb.y + bb.height / 2 };
      }
      const vbString = originalViewBox || svg.getAttribute('viewBox') || '0 0 51 51';
      const vb = vbString.split(/\s+/).map(parseFloat);
      return { x: (vb[0] + vb[2]) / 2, y: (vb[1] + vb[3]) / 2 };
    }

    // Apply transform to symbol group
    function applyTransform() {
      const symbol = document.getElementById('fuxaSymbol');
      if (!symbol) return;
      const center = getCenter();
      const cx = center.x + _pn_rotateOffsetX + _pn_flipOffsetX;
      const cy = center.y + _pn_rotateOffsetY + _pn_flipOffsetY;
      let transform = '';
      if (_pb_flipHorizontal || _pb_flipVertical) {
        const scaleX = _pb_flipHorizontal ? -1 : 1;
        const scaleY = _pb_flipVertical ? -1 : 1;
        transform += `scale(${scaleX}, ${scaleY}) translate(${scaleX === -1 ? -cx * 2 : 0}, ${scaleY === -1 ? -cy * 2 : 0}) `;
      }
      if (_pn_rotateAngle !== 0) {
        transform += `rotate(${_pn_rotateAngle}, ${cx}, ${cy}) `;
      }
      symbol.setAttribute('transform', transform.trim() || '');
    }

    // Update viewBox with padding
    function updatePadding() {
      const svg = document.getElementById('fuxaWidget');
      const symbol = document.getElementById('fuxaSymbol');
      if (!svg) return;
      const pad = Math.max(0, _pn_padding || 0);
      // Prefer persisted original viewBox (stable) — if not present, persist a computed one using getBBox
      const persisted = svg.getAttribute('data-fuxa-orig-viewbox');
      if (persisted) {
        const vb = persisted.split(/\s+/).map(parseFloat);
        const width = vb[2] - vb[0];
        const height = vb[3] - vb[1];
        const padded = Math.max(width, height);
        const size = padded + 2 * pad;
        const offsetX = (padded - width) / 2;
        const offsetY = (padded - height) / 2;
        svg.setAttribute('viewBox', `${vb[0] - pad - offsetX} ${vb[1] - pad - offsetY} ${size} ${size}`);
        return;
      }
      if (symbol && typeof symbol.getBBox === 'function') {
        // Use the actual content bounds to compute the original viewBox and persist it
        const bb = symbol.getBBox();
        const contentSize = Math.max(bb.width, bb.height);
        const size = contentSize + 2 * pad;
        const cx = bb.x + bb.width / 2;
        const cy = bb.y + bb.height / 2;
        const x = cx - size / 2;
        const y = cy - size / 2;
        const vbString = `${x} ${y} ${size} ${size}`;
        svg.setAttribute('data-fuxa-orig-viewbox', vbString);
        originalViewBox = vbString;
        svg.setAttribute('viewBox', vbString);
        return;
      }
      // Fallback to original viewBox if getBBox is not available
      const vbString = originalViewBox || svg.getAttribute('viewBox') || '0 0 51 51';
      const vb = vbString.split(/\s+/).map(parseFloat);
      const width = vb[2] - vb[0];
      const height = vb[3] - vb[1];
      const padded = Math.max(width, height);
      const size = padded + 2 * pad;
      const offsetX = (padded - width) / 2;
      const offsetY = (padded - height) / 2;
      svg.setAttribute('viewBox', `${vb[0] - pad - offsetX} ${vb[1] - pad - offsetY} ${size} ${size}`);
    }

    // Function to update preserveAspectRatio
    function updatePreserveAspectRatio() {
      const svg = document.getElementById('fuxaWidget');
      if (!svg) return;
      if (_pb_preserveAspectRatio) {
        svg.setAttribute('preserveAspectRatio', 'xMidYMid meet');
      } else {
        svg.setAttribute('preserveAspectRatio', 'none');
      }
    }

    // Function to update the color based on the set state
    function logic() {
      switch (stateNumber) {
        case 0: // off
          setBaseColor(_pc_stroke_0, _pc_fill_0);
          clearBlinking();
          break;
        case 1: // run
          setBaseColor(_pc_stroke_1, _pc_fill_1);
          clearBlinking();
          break;
        case 2: // warning
          setBaseColor(_pc_stroke_2, _pc_fill_2);
          clearBlinking();
          break;
        case 3: // fault
          const onRaw = +_pn_setIntervalOn;
          const offRaw = +_pn_setIntervalOff;
          const on = (onRaw > 0) ? Math.max(50, onRaw) : 0;
          const off = (offRaw > 0) ? Math.max(50, offRaw) : 0;

          if (on === 0 || off === 0) {
            setBaseColor(_pc_stroke_3, _pc_fill_3);
            clearBlinking();
          } else {
            startDualBlinking(_pc_stroke_0, _pc_stroke_3, _pc_fill_0, _pc_fill_3, on, off);
          }
          break;
        case 4: // invalid
          setBaseColor(_pc_stroke_4, _pc_fill_4);
          clearBlinking();
          break;
        case 5: // spare
          setBaseColor(_pc_stroke_5, _pc_fill_5);
          clearBlinking();
          break;
        default:
          console.log('Undefined State');
          clearBlinking();
      }
    }

    // Initial setup
    function init() {
      // ensure no residual timers from previous initializations
      clearBlinking();
      const svg = document.getElementById('fuxaWidget');
      if (svg) {
        // Use or persist the original viewBox to prevent cumulative padding growth
        if (!svg.getAttribute('data-fuxa-orig-viewbox')) {
          svg.setAttribute('data-fuxa-orig-viewbox', svg.getAttribute('viewBox') || '0 0 51 51');
        }
        originalViewBox = svg.getAttribute('data-fuxa-orig-viewbox');
      }
      updatePadding();
      updatePreserveAspectRatio();
      applyTransform();
      logic();
    }

    // Function to update values from Fuxa
    function putValue(id, value) {
      let needsTransform = false;

      if (id === '_pn_setState') {
        stateNumber = value;
        logic();
      }
      if (id === '_pb_boolState') {
        _pb_boolState = value;
        if (_pb_boolState === true) {
          stateNumber = 1;
        } else if (_pb_boolState === false) {
          stateNumber = 0;
        }
        logic();
      }
      if (id === '_pn_setIntervalOn') {
        _pn_setIntervalOn = value;
        if (stateNumber === 3) logic();
      }
      if (id === '_pn_setIntervalOff') {
        _pn_setIntervalOff = value;
        if (stateNumber === 3) logic();
      }
      if (id === '_pn_strokeWidth') _pn_strokeWidth = value;
      if (id === '_pc_fill_0') _pc_fill_0 = value;
      if (id === '_pc_fill_1') _pc_fill_1 = value;
      if (id === '_pc_fill_2') _pc_fill_2 = value;
      if (id === '_pc_fill_3') _pc_fill_3 = value;
      if (id === '_pc_fill_4') _pc_fill_4 = value;
      if (id === '_pc_fill_5') _pc_fill_5 = value;
      if (id === '_pc_stroke_0') _pc_stroke_0 = value;
      if (id === '_pc_stroke_1') _pc_stroke_1 = value;
      if (id === '_pc_stroke_2') _pc_stroke_2 = value;
      if (id === '_pc_stroke_3') _pc_stroke_3 = value;
      if (id === '_pc_stroke_4') _pc_stroke_4 = value;
      if (id === '_pc_stroke_5') _pc_stroke_5 = value;

      // ROTATE
      if (id === '_pn_rotateAngle') { _pn_rotateAngle = value; needsTransform = true; }
      if (id === '_pn_rotateOffsetX') { _pn_rotateOffsetX = value; needsTransform = true; }
      if (id === '_pn_rotateOffsetY') { _pn_rotateOffsetY = value; needsTransform = true; }

      // FLIP
      if (id === '_pb_flipHorizontal') {
        _pb_flipHorizontal = (value === true || value === 1 || value === '1');
        needsTransform = true;
      }
      if (id === '_pb_flipVertical') {
        _pb_flipVertical = (value === true || value === 1 || value === '1');
        needsTransform = true;
      }
      if (id === '_pn_flipOffsetX') { _pn_flipOffsetX = value; needsTransform = true; }
      if (id === '_pn_flipOffsetY') { _pn_flipOffsetY = value; needsTransform = true; }

      // PADDING
      if (id === '_pn_padding') {
        _pn_padding = Math.max(0, +value || 0);
        updatePadding();
        needsTransform = true;
      }

      // PRESERVE ASPECT RATIO
      if (id === '_pb_preserveAspectRatio') {
        _pb_preserveAspectRatio = (value === true || value === 1 || value === '1');
        updatePreserveAspectRatio();
      }

      if (needsTransform) {
        applyTransform();
      }
    }

    // Function to send values back to Fuxa (placeholder)
    function postValue(id, value) {
      console.log('Not defined!');
    }

    // Make postValue globally available only if not already set by Fuxa
    if (!window.postValue) {
      window.postValue = postValue;
    }

    // Initialize the SVG
    init();

    // Re-run init when the page becomes visible (e.g., returning from editor)
    document.addEventListener('visibilitychange', function() {
      if (document.visibilityState === 'visible') {
        setTimeout(() => init(), 10);
      }
    });

    // Function to update the color for the base shape group
    function setBaseColor(strokeColor, fillColor) {
      const symbol = document.getElementById('fuxaSymbol');
      if (!symbol) return;
      symbol.querySelectorAll('*').forEach(function(elem) {
        try {
          // Set both presentation attributes and inline styles so existing style attributes
          // (e.g., style="fill:none") are overridden by the inline style setting.
          if (fillColor !== undefined && fillColor !== null) {
            elem.setAttribute('fill', fillColor);
            elem.style.fill = fillColor;
          }
          if (strokeColor !== undefined && strokeColor !== null) {
            elem.setAttribute('stroke', strokeColor);
            elem.style.stroke = strokeColor;
          }
          elem.setAttribute('stroke-width', _pn_strokeWidth);
          elem.style.strokeWidth = String(_pn_strokeWidth);
        } catch (e) {
          // Ignore if an element doesn't accept a property
        }
      });
      applyTransform();
    }

    // DUAL BLINK: onTime (fault), offTime (off) - simple top-level tick-by-id function
    // This follows the original approach — a named top-level tick function that schedules itself.
    function fuxa_blink_tick(svgId) {
      const svg = document.getElementById(svgId);
      if (!svg) {
        clearBlinking();
        return;
      }
      if (!svg || !svg._fuxa_blink_params) return;
      const p = svg._fuxa_blink_params;
      if (svg._fuxa_blink_state) {
        setBaseColor(p.strokeOn, p.fillOn);
        svg._fuxa_blink_state = false;
        svg._fuxa_blink_timer = setTimeout(function() { fuxa_blink_tick(svgId); }, p.onTime);
      } else {
        setBaseColor(p.strokeOff, p.fillOff);
        svg._fuxa_blink_state = true;
        svg._fuxa_blink_timer = setTimeout(function() { fuxa_blink_tick(svgId); }, p.offTime);
      }
    }

    function startDualBlinking(strokeOff, strokeOn, fillOff, fillOn, onTime, offTime) {
      clearBlinking();
      // Ensure values are numbers
      onTime = Number(onTime) || 0;
      offTime = Number(offTime) || 0;
      const id = 'fuxaWidget';
      const svg = document.getElementById(id);
      if (!svg) return;
      svg._fuxa_blink_params = { strokeOff, strokeOn, fillOff, fillOn, onTime, offTime };
      svg._fuxa_blink_state = true;
      // start the tick by id (named function) for reliability
      fuxa_blink_tick(id);

      blinkObserver = new MutationObserver((mutations) => {
        mutations.forEach((mutation) => {
          mutation.removedNodes.forEach((node) => {
            if (node && node.id === 'fuxaWidget') {
              clearBlinking();
              if (blinkObserver) {
                blinkObserver.disconnect();
                blinkObserver = null;
              }
            }
          });
        });
      });
      blinkObserver.observe(document.body, { childList: true, subtree: true });
    }

    // FULL CLEAR BLINKING
    function clearBlinking() {
      if (blinkInterval) {
        clearInterval(blinkInterval);
        blinkInterval = null;
      }
      if (blinkTimer) {
        clearTimeout(blinkTimer);
        blinkTimer = null;
      }
      if (blinkObserver) {
        blinkObserver.disconnect();
        blinkObserver = null;
      }
      const svg = document.getElementById('fuxaWidget');
      if (svg) {
        if (svg._fuxa_blink_timer) { clearTimeout(svg._fuxa_blink_timer); svg._fuxa_blink_timer = null; }
        if (svg._fuxa_blink_params) { svg._fuxa_blink_params = null; }
        if (svg._fuxa_blink_state !== undefined) { svg._fuxa_blink_state = null; }
      }
    }]]></script>
</svg>
