<?xml version='1.0' encoding='UTF-8'?>
<svg xmlns="http://www.w3.org/2000/svg" xmlns:svg="http://www.w3.org/2000/svg" version="1.1" viewBox="0 0 50 50" id="fuxaWidget" style="border: none !important; outline: none !important; box-shadow: none !important; margin: 0; padding: 0; background: transparent;" width="100%" height="100%">
  <g id="fuxaSymbol">
    <defs id="defs1"/>
    <g data-cell-id="gQ551Ar7PwXLAaA90adm-640" id="g18" transform="translate(-0.5,-0.5)">
      <g id="cell-gQ551Ar7PwXLAaA90adm-640">
        <g transform="translate(0.5,0.5)" id="g17">
          <path d="M 25,0 C 11.2,0 0,11.2 0,25 0,38.8 11.2,50 25,50 38.8,50 50,38.8 50,25 50,11.2 38.8,0 25,0 Z m 0,1.02 c 2.21,0 4.36,0.3 6.39,0.86 -4.98,1.64 -9.27,4.79 -12.32,8.92 -0.33,-0.06 -0.66,-0.1 -1.01,-0.1 -2.9,0 -5.26,2.37 -5.26,5.27 0,0.14 0,0.28 0.01,0.42 C 7.79,18.75 3.69,22.73 1.17,27.66 1.07,26.78 1.02,25.9 1.02,25 1.02,11.75 11.75,1.02 25,1.02 Z m 8.14,1.42 c 0.54,0.19 1.09,0.41 1.62,0.65 2.94,3.89 4.72,8.7 4.83,13.93 -0.08,-0.01 -0.16,-0.01 -0.24,-0.01 -0.96,0 -1.85,0.33 -2.57,0.87 -3.86,-2.44 -8.44,-3.85 -13.34,-3.85 -0.16,0 -0.32,0 -0.48,0 C 22.44,12.72 21.4,11.66 20.1,11.12 23.31,6.91 27.87,3.8 33.14,2.44 Z m 3.53,1.61 c 7.34,4.09 12.31,11.94 12.31,20.95 0,2.75 -0.46,5.38 -1.31,7.84 -0.89,-3.49 -2.51,-6.68 -4.69,-9.41 0.39,-0.63 0.61,-1.38 0.61,-2.18 0,-1.9 -1.26,-3.51 -2.98,-4.05 -0.06,-4.84 -1.5,-9.35 -3.94,-13.15 z m -18.61,7.68 c 2.35,0 4.25,1.89 4.25,4.24 0,2.35 -1.9,4.24 -4.25,4.24 -2.35,0 -4.24,-1.89 -4.24,-4.24 0,-2.35 1.89,-4.24 4.24,-4.24 z m 5.38,3.32 c 4.62,0 8.93,1.3 12.59,3.57 -0.57,0.72 -0.92,1.64 -0.92,2.63 0,1.96 1.35,3.63 3.17,4.1 -1.27,3.7 -3.43,6.99 -6.22,9.62 -0.58,-0.58 -1.38,-0.95 -2.27,-0.95 -0.76,0 -1.46,0.27 -2.01,0.72 -3.51,-2.02 -7.56,-3.21 -11.88,-3.32 -0.45,-1.85 -0.7,-3.78 -0.7,-5.78 0,-1.7 0.18,-3.36 0.52,-4.96 0.7,0.35 1.5,0.55 2.34,0.55 2.91,0 5.27,-2.36 5.27,-5.26 0,-0.31 -0.03,-0.62 -0.08,-0.92 0.06,0 0.13,0 0.19,0 z M 13,17.43 c 0.31,1.07 0.95,1.99 1.8,2.67 -0.4,1.78 -0.62,3.64 -0.62,5.54 0,1.99 0.23,3.93 0.67,5.78 C 10.56,31.5 6.54,32.66 3.04,34.64 2.32,33 1.78,31.27 1.44,29.47 3.73,24.21 7.85,19.92 13,17.43 Z m 26.35,0.6 c 1.78,0 3.22,1.44 3.22,3.22 0,1.78 -1.44,3.22 -3.22,3.22 -1.78,0 -3.22,-1.44 -3.22,-3.22 0,-1.78 1.44,-3.22 3.22,-3.22 z m 2.98,6.23 c 2.31,2.95 3.95,6.46 4.67,10.29 -1.94,4.46 -5.19,8.22 -9.27,10.78 -1.28,-2.57 -2.98,-4.89 -5.01,-6.86 0.17,-0.39 0.26,-0.81 0.26,-1.26 0,-0.5 -0.12,-0.98 -0.32,-1.4 3,-2.8 5.32,-6.34 6.66,-10.32 0.01,0 0.02,0 0.03,0 1.16,0 2.21,-0.47 2.98,-1.23 z m -27.21,8.18 c 0.9,3.22 2.44,6.18 4.47,8.74 -1.29,0.21 -2.62,0.33 -3.98,0.33 -3.48,0 -6.78,-0.74 -9.76,-2.07 -0.91,-1.21 -1.71,-2.51 -2.38,-3.87 3.44,-1.96 7.41,-3.09 11.65,-3.13 z m 1.06,0.01 c 3.96,0.15 7.67,1.24 10.91,3.08 -0.3,0.49 -0.48,1.06 -0.48,1.68 0,0.52 0.12,1.01 0.35,1.45 -1.94,1.04 -4.03,1.82 -6.23,2.3 -2.05,-2.47 -3.61,-5.35 -4.55,-8.51 z m 13.61,2.59 c 1.21,0 2.17,0.97 2.17,2.17 0,1.2 -0.96,2.16 -2.17,2.16 -1.2,0 -2.16,-0.96 -2.16,-2.16 0,-1.2 0.96,-2.17 2.16,-2.17 z m 2.36,4.31 c 1.91,1.88 3.5,4.07 4.7,6.5 -1.8,1.03 -3.75,1.83 -5.8,2.36 -3.69,-1.33 -6.96,-3.54 -9.56,-6.38 2.15,-0.52 4.19,-1.31 6.08,-2.34 0.57,0.56 1.36,0.91 2.22,0.91 0.94,0 1.78,-0.41 2.36,-1.05 z M 7.21,41.08 c 2.63,0.94 5.45,1.45 8.4,1.45 1.62,0 3.2,-0.16 4.73,-0.45 2.44,2.79 5.48,5.03 8.92,6.52 -1.38,0.25 -2.81,0.38 -4.26,0.38 -7.06,0 -13.4,-3.05 -17.79,-7.9 z" fill="#000000" stroke="none" pointer-events="all" id="path16"/>
        </g>
      </g>
    </g>
  </g>
  <script type="text/javascript"><![CDATA[/*
    # =============================================
    # ===             How to Use                ===
    # =============================================

    Variables with the following prefix:

    _pb_ = bool   parameter ( true or false )
    _pn_ = number parameter ( Int, Float, Real etc )
    _ps_ = string parameter ( string can be entered directly )
    _pc_ = color parameter in hex color code ( #00ff00ff )

    Indicate variable type to be used in Fuxa Properties and binding of Tags, Important! they have to be place within:

    //!export-start
    let _pn_setState = 0;
    //!export-end

    There are 2x Functions to handle sending and receiving data between Fuxa and the SVG

    // Recieve Variables From Fuxa
    function putValue(id, value) { } 
    
    // Send Variables To Fuxa
    function postValue(id, value) {
      console.error('Not defined!');
    }

    The ID is the name of the variable _pn_setState for example and value is the value to be sent or received from Fuxa


    This SVG uses an INT/Number Variable to change the State and State of the SVG:

    0 = Off
    1 = Run
    2 = Warning
    3 = Fault
    4 = Invalid
    5 = Spare

    You can also use the bool field and this will change the state between 0 = off and 1 = run 

    You can also set the color for each state in Fuxa using HEX color code #b4b4b4
    The Default Blink Interval for On and Off is 500ms but can also be changed in Fuxa in MS resolution

    <svg>
      SVG Content Here
      <script>
        JS Script Content Here
      </script>
    </svg>

    */

	  // Global Parameters and Variables

    //!export-start
    let _pn_setState = 0;                     // 0=Off, 1=Run, 2=Warn, 3=Fault, 4=Invalid, 5=Spare
    let _pb_boolState = false;                // true = Run, false = Off
    let _pn_setIntervalOn = 500;              // ms fault color is ON
    let _pn_setIntervalOff = 500;             // ms fault color is OFF
    let _pn_strokeWidth = 1;                  // Global stroke width for all states
    let _pc_fill_0 = 'none';                  // Off
    let _pc_fill_1 = 'none';                  // Run
    let _pc_fill_2 = 'none';                  // Warn
    let _pc_fill_3 = 'none';                  // Fault
    let _pc_fill_4 = 'none';                  // Invalid
    let _pc_fill_5 = 'none';                  // Spare
    let _pc_stroke_0 = '#7f7f7f';             // Off
    let _pc_stroke_1 = '#00ff00';             // Run
    let _pc_stroke_2 = '#ff9500';             // Warn
    let _pc_stroke_3 = '#ff0000';             // Fault
    let _pc_stroke_4 = '#3c3c3c';             // Invalid
    let _pc_stroke_5 = '#dcdcdc';             // Spare
    let _pb_preserveAspectRatio = true;       // true = preserve aspect ratio, false = stretch
    let _pn_rotateAngle = 0;                  // degrees, 0 = no rotation
    let _pn_rotateOffsetX = 0;                // offset from center (0 = center)
    let _pn_rotateOffsetY = 0;                // offset from center (0 = center)
    let _pb_flipHorizontal = false;           // true = flip X
    let _pb_flipVertical = false;             // true = flip Y
    let _pn_flipOffsetX = 0;                  // offset from center (0 = center)
    let _pn_flipOffsetY = 0;                  // offset from center (0 = center)
    let _pn_padding = 0;                      // padding around SVG (default 0)
    //!export-end

    let stateNumber = 0;
    let blinkInterval = null;
    let blinkTimer = null;
    let blinkObserver = null;
    let originalViewBox = null;

    // Get dynamic center from SVG viewBox (uses originalViewBox if available)
    function getCenter() {
      const svg = document.getElementById('fuxaWidget');
      const symbol = document.getElementById('fuxaSymbol');
      if (!svg) return { x: 25.5, y: 25.5 };
      if (symbol && typeof symbol.getBBox === 'function') {
        const bb = symbol.getBBox();
        return { x: bb.x + bb.width / 2, y: bb.y + bb.height / 2 };
      }
      const vbString = originalViewBox || svg.getAttribute('viewBox') || '0 0 51 51';
      const vb = vbString.split(/\s+/).map(parseFloat);
      return { x: (vb[0] + vb[2]) / 2, y: (vb[1] + vb[3]) / 2 };
    }

    // Apply transform to symbol group
    function applyTransform() {
      const symbol = document.getElementById('fuxaSymbol');
      if (!symbol) return;
      const center = getCenter();
      const cx = center.x + _pn_rotateOffsetX + _pn_flipOffsetX;
      const cy = center.y + _pn_rotateOffsetY + _pn_flipOffsetY;
      let transform = '';
      if (_pb_flipHorizontal || _pb_flipVertical) {
        const scaleX = _pb_flipHorizontal ? -1 : 1;
        const scaleY = _pb_flipVertical ? -1 : 1;
        transform += `scale(${scaleX}, ${scaleY}) translate(${scaleX === -1 ? -cx * 2 : 0}, ${scaleY === -1 ? -cy * 2 : 0}) `;
      }
      if (_pn_rotateAngle !== 0) {
        transform += `rotate(${_pn_rotateAngle}, ${cx}, ${cy}) `;
      }
      symbol.setAttribute('transform', transform.trim() || '');
    }

    // Update viewBox with padding
    function updatePadding() {
      const svg = document.getElementById('fuxaWidget');
      const symbol = document.getElementById('fuxaSymbol');
      if (!svg) return;
      const pad = Math.max(0, _pn_padding || 0);
      // Prefer persisted original viewBox (stable) — if not present, persist a computed one using getBBox
      const persisted = svg.getAttribute('data-fuxa-orig-viewbox');
      if (persisted) {
        const vb = persisted.split(/\s+/).map(parseFloat);
        const width = vb[2] - vb[0];
        const height = vb[3] - vb[1];
        const padded = Math.max(width, height);
        const size = padded + 2 * pad;
        const offsetX = (padded - width) / 2;
        const offsetY = (padded - height) / 2;
        svg.setAttribute('viewBox', `${vb[0] - pad - offsetX} ${vb[1] - pad - offsetY} ${size} ${size}`);
        return;
      }
      if (symbol && typeof symbol.getBBox === 'function') {
        // Use the actual content bounds to compute the original viewBox and persist it
        const bb = symbol.getBBox();
        const contentSize = Math.max(bb.width, bb.height);
        const size = contentSize + 2 * pad;
        const cx = bb.x + bb.width / 2;
        const cy = bb.y + bb.height / 2;
        const x = cx - size / 2;
        const y = cy - size / 2;
        const vbString = `${x} ${y} ${size} ${size}`;
        svg.setAttribute('data-fuxa-orig-viewbox', vbString);
        originalViewBox = vbString;
        svg.setAttribute('viewBox', vbString);
        return;
      }
      // Fallback to original viewBox if getBBox is not available
      const vbString = originalViewBox || svg.getAttribute('viewBox') || '0 0 51 51';
      const vb = vbString.split(/\s+/).map(parseFloat);
      const width = vb[2] - vb[0];
      const height = vb[3] - vb[1];
      const padded = Math.max(width, height);
      const size = padded + 2 * pad;
      const offsetX = (padded - width) / 2;
      const offsetY = (padded - height) / 2;
      svg.setAttribute('viewBox', `${vb[0] - pad - offsetX} ${vb[1] - pad - offsetY} ${size} ${size}`);
    }

    // Function to update preserveAspectRatio
    function updatePreserveAspectRatio() {
      const svg = document.getElementById('fuxaWidget');
      if (!svg) return;
      if (_pb_preserveAspectRatio) {
        svg.setAttribute('preserveAspectRatio', 'xMidYMid meet');
      } else {
        svg.setAttribute('preserveAspectRatio', 'none');
      }
    }

    // Function to update the color based on the set state
    function logic() {
      switch (stateNumber) {
        case 0: // off
          setBaseColor(_pc_stroke_0, _pc_fill_0);
          clearBlinking();
          break;
        case 1: // run
          setBaseColor(_pc_stroke_1, _pc_fill_1);
          clearBlinking();
          break;
        case 2: // warning
          setBaseColor(_pc_stroke_2, _pc_fill_2);
          clearBlinking();
          break;
        case 3: // fault
          const onRaw = +_pn_setIntervalOn;
          const offRaw = +_pn_setIntervalOff;
          const on = (onRaw > 0) ? Math.max(50, onRaw) : 0;
          const off = (offRaw > 0) ? Math.max(50, offRaw) : 0;

          if (on === 0 || off === 0) {
            setBaseColor(_pc_stroke_3, _pc_fill_3);
            clearBlinking();
          } else {
            startDualBlinking(_pc_stroke_0, _pc_stroke_3, _pc_fill_0, _pc_fill_3, on, off);
          }
          break;
        case 4: // invalid
          setBaseColor(_pc_stroke_4, _pc_fill_4);
          clearBlinking();
          break;
        case 5: // spare
          setBaseColor(_pc_stroke_5, _pc_fill_5);
          clearBlinking();
          break;
        default:
          console.log('Undefined State');
          clearBlinking();
      }
    }

    // Initial setup
    function init() {
      // ensure no residual timers from previous initializations
      clearBlinking();
      const svg = document.getElementById('fuxaWidget');
      if (svg) {
        // Use or persist the original viewBox to prevent cumulative padding growth
        if (!svg.getAttribute('data-fuxa-orig-viewbox')) {
          svg.setAttribute('data-fuxa-orig-viewbox', svg.getAttribute('viewBox') || '0 0 51 51');
        }
        originalViewBox = svg.getAttribute('data-fuxa-orig-viewbox');
      }
      updatePadding();
      updatePreserveAspectRatio();
      applyTransform();
      logic();
    }

    // Function to update values from Fuxa
    function putValue(id, value) {
      let needsTransform = false;

      if (id === '_pn_setState') {
        stateNumber = value;
        logic();
      }
      if (id === '_pb_boolState') {
        _pb_boolState = value;
        if (_pb_boolState === true) {
          stateNumber = 1;
        } else if (_pb_boolState === false) {
          stateNumber = 0;
        }
        logic();
      }
      if (id === '_pn_setIntervalOn') {
        _pn_setIntervalOn = value;
        if (stateNumber === 3) logic();
      }
      if (id === '_pn_setIntervalOff') {
        _pn_setIntervalOff = value;
        if (stateNumber === 3) logic();
      }
      if (id === '_pn_strokeWidth') _pn_strokeWidth = value;
      if (id === '_pc_fill_0') _pc_fill_0 = value;
      if (id === '_pc_fill_1') _pc_fill_1 = value;
      if (id === '_pc_fill_2') _pc_fill_2 = value;
      if (id === '_pc_fill_3') _pc_fill_3 = value;
      if (id === '_pc_fill_4') _pc_fill_4 = value;
      if (id === '_pc_fill_5') _pc_fill_5 = value;
      if (id === '_pc_stroke_0') _pc_stroke_0 = value;
      if (id === '_pc_stroke_1') _pc_stroke_1 = value;
      if (id === '_pc_stroke_2') _pc_stroke_2 = value;
      if (id === '_pc_stroke_3') _pc_stroke_3 = value;
      if (id === '_pc_stroke_4') _pc_stroke_4 = value;
      if (id === '_pc_stroke_5') _pc_stroke_5 = value;

      // ROTATE
      if (id === '_pn_rotateAngle') { _pn_rotateAngle = value; needsTransform = true; }
      if (id === '_pn_rotateOffsetX') { _pn_rotateOffsetX = value; needsTransform = true; }
      if (id === '_pn_rotateOffsetY') { _pn_rotateOffsetY = value; needsTransform = true; }

      // FLIP
      if (id === '_pb_flipHorizontal') {
        _pb_flipHorizontal = (value === true || value === 1 || value === '1');
        needsTransform = true;
      }
      if (id === '_pb_flipVertical') {
        _pb_flipVertical = (value === true || value === 1 || value === '1');
        needsTransform = true;
      }
      if (id === '_pn_flipOffsetX') { _pn_flipOffsetX = value; needsTransform = true; }
      if (id === '_pn_flipOffsetY') { _pn_flipOffsetY = value; needsTransform = true; }

      // PADDING
      if (id === '_pn_padding') {
        _pn_padding = Math.max(0, +value || 0);
        updatePadding();
        needsTransform = true;
      }

      // PRESERVE ASPECT RATIO
      if (id === '_pb_preserveAspectRatio') {
        _pb_preserveAspectRatio = (value === true || value === 1 || value === '1');
        updatePreserveAspectRatio();
      }

      if (needsTransform) {
        applyTransform();
      }
    }

    // Function to send values back to Fuxa (placeholder)
    function postValue(id, value) {
      console.log('Not defined!');
    }

    // Make postValue globally available only if not already set by Fuxa
    if (!window.postValue) {
      window.postValue = postValue;
    }

    // Initialize the SVG
    init();

    // Re-run init when the page becomes visible (e.g., returning from editor)
    document.addEventListener('visibilitychange', function() {
      if (document.visibilityState === 'visible') {
        setTimeout(() => init(), 10);
      }
    });

    // Function to update the color for the base shape group
    function setBaseColor(strokeColor, fillColor) {
      const symbol = document.getElementById('fuxaSymbol');
      if (!symbol) return;
      symbol.querySelectorAll('*').forEach(function(elem) {
        try {
          // Set both presentation attributes and inline styles so existing style attributes
          // (e.g., style="fill:none") are overridden by the inline style setting.
          if (fillColor !== undefined && fillColor !== null) {
            elem.setAttribute('fill', fillColor);
            elem.style.fill = fillColor;
          }
          if (strokeColor !== undefined && strokeColor !== null) {
            elem.setAttribute('stroke', strokeColor);
            elem.style.stroke = strokeColor;
          }
          elem.setAttribute('stroke-width', _pn_strokeWidth);
          elem.style.strokeWidth = String(_pn_strokeWidth);
        } catch (e) {
          // Ignore if an element doesn't accept a property
        }
      });
      applyTransform();
    }

    // DUAL BLINK: onTime (fault), offTime (off) - simple top-level tick-by-id function
    // This follows the original approach — a named top-level tick function that schedules itself.
    function fuxa_blink_tick(svgId) {
      const svg = document.getElementById(svgId);
      if (!svg) {
        clearBlinking();
        return;
      }
      if (!svg || !svg._fuxa_blink_params) return;
      const p = svg._fuxa_blink_params;
      if (svg._fuxa_blink_state) {
        setBaseColor(p.strokeOn, p.fillOn);
        svg._fuxa_blink_state = false;
        svg._fuxa_blink_timer = setTimeout(function() { fuxa_blink_tick(svgId); }, p.onTime);
      } else {
        setBaseColor(p.strokeOff, p.fillOff);
        svg._fuxa_blink_state = true;
        svg._fuxa_blink_timer = setTimeout(function() { fuxa_blink_tick(svgId); }, p.offTime);
      }
    }

    function startDualBlinking(strokeOff, strokeOn, fillOff, fillOn, onTime, offTime) {
      clearBlinking();
      // Ensure values are numbers
      onTime = Number(onTime) || 0;
      offTime = Number(offTime) || 0;
      const id = 'fuxaWidget';
      const svg = document.getElementById(id);
      if (!svg) return;
      svg._fuxa_blink_params = { strokeOff, strokeOn, fillOff, fillOn, onTime, offTime };
      svg._fuxa_blink_state = true;
      // start the tick by id (named function) for reliability
      fuxa_blink_tick(id);

      blinkObserver = new MutationObserver((mutations) => {
        mutations.forEach((mutation) => {
          mutation.removedNodes.forEach((node) => {
            if (node && node.id === 'fuxaWidget') {
              clearBlinking();
              if (blinkObserver) {
                blinkObserver.disconnect();
                blinkObserver = null;
              }
            }
          });
        });
      });
      blinkObserver.observe(document.body, { childList: true, subtree: true });
    }

    // FULL CLEAR BLINKING
    function clearBlinking() {
      if (blinkInterval) {
        clearInterval(blinkInterval);
        blinkInterval = null;
      }
      if (blinkTimer) {
        clearTimeout(blinkTimer);
        blinkTimer = null;
      }
      if (blinkObserver) {
        blinkObserver.disconnect();
        blinkObserver = null;
      }
      const svg = document.getElementById('fuxaWidget');
      if (svg) {
        if (svg._fuxa_blink_timer) { clearTimeout(svg._fuxa_blink_timer); svg._fuxa_blink_timer = null; }
        if (svg._fuxa_blink_params) { svg._fuxa_blink_params = null; }
        if (svg._fuxa_blink_state !== undefined) { svg._fuxa_blink_state = null; }
      }
    }]]></script>
</svg>
