<?xml version='1.0' encoding='UTF-8'?>
<svg xmlns="http://www.w3.org/2000/svg" xmlns:svg="http://www.w3.org/2000/svg" version="1.1" viewBox="0 0 50 50" id="fuxaWidget" style="border: none !important; outline: none !important; box-shadow: none !important; margin: 0; padding: 0; background: transparent;" width="100%" height="100%">
  <g id="fuxaSymbol">
    <defs id="defs1"/>
    <g data-cell-id="gQ551Ar7PwXLAaA90adm-641" id="g20" transform="translate(-0.5,-0.5)">
      <g id="cell-gQ551Ar7PwXLAaA90adm-641">
        <g transform="translate(0.5,0.5)" id="g19">
          <path d="M 25,0 C 11.2,0 0,11.2 0,25 0,38.8 11.2,50 25,50 38.8,50 50,38.8 50,25 50,11.2 38.8,0 25,0 Z m 1.77,1.07 C 32.94,1.52 38.45,4.3 42.44,8.53 H 33.83 C 31.94,5.48 29.56,2.85 26.77,1.07 Z M 23.11,1.08 C 20.32,2.86 17.95,5.49 16.06,8.53 H 7.55 C 11.52,4.32 16.99,1.56 23.11,1.08 Z m 1.84,0.11 c 2.99,1.54 5.6,4.18 7.67,7.34 H 17.27 c 2.07,-3.16 4.68,-5.8 7.68,-7.34 z M 6.65,9.54 h 8.81 c -0.67,1.18 -1.27,2.4 -1.79,3.65 -0.11,0.26 0.01,0.56 0.27,0.67 0.26,0.1 0.55,-0.02 0.66,-0.28 0.59,-1.39 1.27,-2.75 2.04,-4.04 h 16.62 c 0.76,1.29 1.45,2.65 2.03,4.04 0.11,0.26 0.41,0.38 0.67,0.28 0.25,-0.11 0.38,-0.41 0.27,-0.67 C 35.7,11.94 35.1,10.72 34.44,9.54 h 8.91 c 3.52,4.18 5.64,9.57 5.64,15.46 0,5.89 -2.12,11.29 -5.64,15.46 h -8.51 c 0.62,-1.09 1.2,-2.26 1.7,-3.5 0.11,-0.26 -0.02,-0.56 -0.28,-0.66 -0.26,-0.11 -0.55,0.02 -0.66,0.28 -0.56,1.39 -1.22,2.69 -1.95,3.88 H 16.24 c -0.72,-1.19 -1.38,-2.49 -1.95,-3.88 -0.11,-0.26 -0.4,-0.39 -0.66,-0.28 -0.26,0.1 -0.39,0.4 -0.28,0.66 0.51,1.24 1.08,2.41 1.71,3.5 H 6.65 C 3.13,36.29 1.01,30.89 1.01,25 1.01,19.11 3.13,13.72 6.65,9.54 Z m 0.23,10.61 c -0.13,0 -0.26,0.06 -0.36,0.15 -0.09,0.1 -0.15,0.23 -0.15,0.36 v 3.09 c 0,1.56 0.27,2.74 0.65,3.97 0.01,0.01 0.01,0.02 0.02,0.03 l 1.49,3.78 c 0.08,0.21 0.28,0.34 0.49,0.33 0.22,-0.01 0.41,-0.16 0.47,-0.37 l 1.66,-5.69 1.67,5.69 c 0.06,0.21 0.24,0.36 0.46,0.37 0.22,0.01 0.42,-0.12 0.5,-0.32 l 1.32,-3.35 c 0,0 0,0 0,0 0,0 0,0 0,0 0.56,-1.43 0.83,-2.86 0.83,-4.58 v -2.95 c 0,-0.13 -0.06,-0.26 -0.15,-0.36 -0.1,-0.09 -0.23,-0.15 -0.36,-0.15 -0.14,0 -0.27,0.06 -0.36,0.15 -0.1,0.1 -0.15,0.23 -0.15,0.36 v 2.95 c 0,1.62 -0.24,2.89 -0.75,4.21 l -0.78,1.97 -1.74,-5.95 c -0.06,-0.22 -0.26,-0.36 -0.49,-0.36 -0.22,0 -0.42,0.14 -0.48,0.36 L 8.93,29.78 7.99,27.4 C 7.63,26.23 7.39,25.19 7.39,23.75 V 20.66 C 7.39,20.53 7.34,20.4 7.24,20.3 7.15,20.21 7.02,20.15 6.88,20.15 Z m 12.78,0 c -0.14,0 -0.27,0.06 -0.36,0.15 -0.1,0.1 -0.15,0.23 -0.15,0.36 v 3.09 c 0,1.56 0.27,2.74 0.65,3.97 0,0.01 0.01,0.02 0.01,0.03 l 1.5,3.78 c 0.07,0.21 0.27,0.34 0.49,0.33 0.22,-0.01 0.4,-0.16 0.47,-0.37 l 1.66,-5.69 1.66,5.69 c 0.06,0.21 0.25,0.36 0.47,0.37 0.21,0.01 0.41,-0.12 0.49,-0.32 l 1.33,-3.35 c 0,0 0,0 0,0 0,0 0,0 0,0 0.56,-1.43 0.82,-2.86 0.82,-4.58 v -2.95 c 0,-0.13 -0.05,-0.26 -0.15,-0.36 -0.09,-0.09 -0.22,-0.15 -0.36,-0.15 -0.13,0 -0.26,0.06 -0.36,0.15 -0.09,0.1 -0.14,0.23 -0.14,0.36 v 2.95 c 0,1.62 -0.24,2.89 -0.76,4.21 l -0.78,1.97 -1.73,-5.95 c -0.07,-0.22 -0.26,-0.36 -0.49,-0.36 -0.23,0 -0.43,0.14 -0.49,0.36 l -1.73,5.94 -0.94,-2.38 c -0.37,-1.17 -0.6,-2.21 -0.6,-3.65 v -3.09 c 0,-0.13 -0.06,-0.26 -0.15,-0.36 -0.1,-0.09 -0.23,-0.15 -0.36,-0.15 z m 12.77,0 c -0.13,0 -0.26,0.06 -0.36,0.15 -0.09,0.1 -0.14,0.23 -0.14,0.36 v 3.09 c 0,1.56 0.26,2.74 0.65,3.97 0,0.01 0,0.02 0.01,0.03 l 1.49,3.78 c 0.08,0.21 0.28,0.34 0.5,0.33 0.21,-0.01 0.4,-0.16 0.46,-0.37 l 1.67,-5.69 1.66,5.69 c 0.06,0.21 0.25,0.36 0.46,0.37 0.22,0.01 0.42,-0.12 0.5,-0.32 l 1.32,-3.35 c 0,0 0,0 0,0 0,0 0,0 0,0 0.57,-1.43 0.83,-2.86 0.83,-4.58 v -2.95 c 0,-0.13 -0.06,-0.26 -0.15,-0.36 -0.1,-0.09 -0.23,-0.15 -0.36,-0.15 -0.13,0 -0.26,0.06 -0.36,0.15 -0.09,0.1 -0.15,0.23 -0.15,0.36 v 2.95 c 0,1.62 -0.23,2.89 -0.75,4.21 l -0.78,1.97 -1.74,-5.95 c -0.06,-0.22 -0.26,-0.36 -0.48,-0.36 -0.23,0 -0.43,0.14 -0.49,0.36 l -1.74,5.94 -0.94,-2.38 c -0.36,-1.17 -0.6,-2.21 -0.6,-3.65 v -3.09 c 0,-0.13 -0.05,-0.26 -0.15,-0.36 -0.09,-0.09 -0.22,-0.15 -0.36,-0.15 z M 7.56,41.48 h 8.11 c 2.09,3.31 4.65,5.83 7.2,7.42 -6.02,-0.53 -11.4,-3.28 -15.31,-7.42 z m 9.32,0 h 16.13 c -2.4,3.59 -5.37,6.13 -8.06,7.39 -2.7,-1.26 -5.67,-3.8 -8.07,-7.39 z m 17.35,0 h 8.21 c -3.94,4.17 -9.37,6.93 -15.43,7.43 2.55,-1.59 5.12,-4.11 7.22,-7.43 z" fill="#000000" stroke="none" pointer-events="all" id="path18"/>
        </g>
      </g>
    </g>
  </g>
  <script type="text/javascript"><![CDATA[/*
    # =============================================
    # ===             How to Use                ===
    # =============================================

    Variables with the following prefix:

    _pb_ = bool   parameter ( true or false )
    _pn_ = number parameter ( Int, Float, Real etc )
    _ps_ = string parameter ( string can be entered directly )
    _pc_ = color parameter in hex color code ( #00ff00ff )

    Indicate variable type to be used in Fuxa Properties and binding of Tags, Important! they have to be place within:

    //!export-start
    let _pn_setState = 0;
    //!export-end

    There are 2x Functions to handle sending and receiving data between Fuxa and the SVG

    // Recieve Variables From Fuxa
    function putValue(id, value) { } 
    
    // Send Variables To Fuxa
    function postValue(id, value) {
      console.error('Not defined!');
    }

    The ID is the name of the variable _pn_setState for example and value is the value to be sent or received from Fuxa


    This SVG uses an INT/Number Variable to change the State and State of the SVG:

    0 = Off
    1 = Run
    2 = Warning
    3 = Fault
    4 = Invalid
    5 = Spare

    You can also use the bool field and this will change the state between 0 = off and 1 = run 

    You can also set the color for each state in Fuxa using HEX color code #b4b4b4
    The Default Blink Interval for On and Off is 500ms but can also be changed in Fuxa in MS resolution

    <svg>
      SVG Content Here
      <script>
        JS Script Content Here
      </script>
    </svg>

    */

	  // Global Parameters and Variables

    //!export-start
    let _pn_setState = 0;                     // 0=Off, 1=Run, 2=Warn, 3=Fault, 4=Invalid, 5=Spare
    let _pb_boolState = false;                // true = Run, false = Off
    let _pn_setIntervalOn = 500;              // ms fault color is ON
    let _pn_setIntervalOff = 500;             // ms fault color is OFF
    let _pn_strokeWidth = 1;                  // Global stroke width for all states
    let _pc_fill_0 = 'none';                  // Off
    let _pc_fill_1 = 'none';                  // Run
    let _pc_fill_2 = 'none';                  // Warn
    let _pc_fill_3 = 'none';                  // Fault
    let _pc_fill_4 = 'none';                  // Invalid
    let _pc_fill_5 = 'none';                  // Spare
    let _pc_stroke_0 = '#7f7f7f';             // Off
    let _pc_stroke_1 = '#00ff00';             // Run
    let _pc_stroke_2 = '#ff9500';             // Warn
    let _pc_stroke_3 = '#ff0000';             // Fault
    let _pc_stroke_4 = '#3c3c3c';             // Invalid
    let _pc_stroke_5 = '#dcdcdc';             // Spare
    let _pb_preserveAspectRatio = true;       // true = preserve aspect ratio, false = stretch
    let _pn_rotateAngle = 0;                  // degrees, 0 = no rotation
    let _pn_rotateOffsetX = 0;                // offset from center (0 = center)
    let _pn_rotateOffsetY = 0;                // offset from center (0 = center)
    let _pb_flipHorizontal = false;           // true = flip X
    let _pb_flipVertical = false;             // true = flip Y
    let _pn_flipOffsetX = 0;                  // offset from center (0 = center)
    let _pn_flipOffsetY = 0;                  // offset from center (0 = center)
    let _pn_padding = 0;                      // padding around SVG (default 0)
    //!export-end

    let stateNumber = 0;
    let blinkInterval = null;
    let blinkTimer = null;
    let blinkObserver = null;
    let originalViewBox = null;

    // Get dynamic center from SVG viewBox (uses originalViewBox if available)
    function getCenter() {
      const svg = document.getElementById('fuxaWidget');
      const symbol = document.getElementById('fuxaSymbol');
      if (!svg) return { x: 25.5, y: 25.5 };
      if (symbol && typeof symbol.getBBox === 'function') {
        const bb = symbol.getBBox();
        return { x: bb.x + bb.width / 2, y: bb.y + bb.height / 2 };
      }
      const vbString = originalViewBox || svg.getAttribute('viewBox') || '0 0 51 51';
      const vb = vbString.split(/\s+/).map(parseFloat);
      return { x: (vb[0] + vb[2]) / 2, y: (vb[1] + vb[3]) / 2 };
    }

    // Apply transform to symbol group
    function applyTransform() {
      const symbol = document.getElementById('fuxaSymbol');
      if (!symbol) return;
      const center = getCenter();
      const cx = center.x + _pn_rotateOffsetX + _pn_flipOffsetX;
      const cy = center.y + _pn_rotateOffsetY + _pn_flipOffsetY;
      let transform = '';
      if (_pb_flipHorizontal || _pb_flipVertical) {
        const scaleX = _pb_flipHorizontal ? -1 : 1;
        const scaleY = _pb_flipVertical ? -1 : 1;
        transform += `scale(${scaleX}, ${scaleY}) translate(${scaleX === -1 ? -cx * 2 : 0}, ${scaleY === -1 ? -cy * 2 : 0}) `;
      }
      if (_pn_rotateAngle !== 0) {
        transform += `rotate(${_pn_rotateAngle}, ${cx}, ${cy}) `;
      }
      symbol.setAttribute('transform', transform.trim() || '');
    }

    // Update viewBox with padding
    function updatePadding() {
      const svg = document.getElementById('fuxaWidget');
      const symbol = document.getElementById('fuxaSymbol');
      if (!svg) return;
      const pad = Math.max(0, _pn_padding || 0);
      // Prefer persisted original viewBox (stable) — if not present, persist a computed one using getBBox
      const persisted = svg.getAttribute('data-fuxa-orig-viewbox');
      if (persisted) {
        const vb = persisted.split(/\s+/).map(parseFloat);
        const width = vb[2] - vb[0];
        const height = vb[3] - vb[1];
        const padded = Math.max(width, height);
        const size = padded + 2 * pad;
        const offsetX = (padded - width) / 2;
        const offsetY = (padded - height) / 2;
        svg.setAttribute('viewBox', `${vb[0] - pad - offsetX} ${vb[1] - pad - offsetY} ${size} ${size}`);
        return;
      }
      if (symbol && typeof symbol.getBBox === 'function') {
        // Use the actual content bounds to compute the original viewBox and persist it
        const bb = symbol.getBBox();
        const contentSize = Math.max(bb.width, bb.height);
        const size = contentSize + 2 * pad;
        const cx = bb.x + bb.width / 2;
        const cy = bb.y + bb.height / 2;
        const x = cx - size / 2;
        const y = cy - size / 2;
        const vbString = `${x} ${y} ${size} ${size}`;
        svg.setAttribute('data-fuxa-orig-viewbox', vbString);
        originalViewBox = vbString;
        svg.setAttribute('viewBox', vbString);
        return;
      }
      // Fallback to original viewBox if getBBox is not available
      const vbString = originalViewBox || svg.getAttribute('viewBox') || '0 0 51 51';
      const vb = vbString.split(/\s+/).map(parseFloat);
      const width = vb[2] - vb[0];
      const height = vb[3] - vb[1];
      const padded = Math.max(width, height);
      const size = padded + 2 * pad;
      const offsetX = (padded - width) / 2;
      const offsetY = (padded - height) / 2;
      svg.setAttribute('viewBox', `${vb[0] - pad - offsetX} ${vb[1] - pad - offsetY} ${size} ${size}`);
    }

    // Function to update preserveAspectRatio
    function updatePreserveAspectRatio() {
      const svg = document.getElementById('fuxaWidget');
      if (!svg) return;
      if (_pb_preserveAspectRatio) {
        svg.setAttribute('preserveAspectRatio', 'xMidYMid meet');
      } else {
        svg.setAttribute('preserveAspectRatio', 'none');
      }
    }

    // Function to update the color based on the set state
    function logic() {
      switch (stateNumber) {
        case 0: // off
          setBaseColor(_pc_stroke_0, _pc_fill_0);
          clearBlinking();
          break;
        case 1: // run
          setBaseColor(_pc_stroke_1, _pc_fill_1);
          clearBlinking();
          break;
        case 2: // warning
          setBaseColor(_pc_stroke_2, _pc_fill_2);
          clearBlinking();
          break;
        case 3: // fault
          const onRaw = +_pn_setIntervalOn;
          const offRaw = +_pn_setIntervalOff;
          const on = (onRaw > 0) ? Math.max(50, onRaw) : 0;
          const off = (offRaw > 0) ? Math.max(50, offRaw) : 0;

          if (on === 0 || off === 0) {
            setBaseColor(_pc_stroke_3, _pc_fill_3);
            clearBlinking();
          } else {
            startDualBlinking(_pc_stroke_0, _pc_stroke_3, _pc_fill_0, _pc_fill_3, on, off);
          }
          break;
        case 4: // invalid
          setBaseColor(_pc_stroke_4, _pc_fill_4);
          clearBlinking();
          break;
        case 5: // spare
          setBaseColor(_pc_stroke_5, _pc_fill_5);
          clearBlinking();
          break;
        default:
          console.log('Undefined State');
          clearBlinking();
      }
    }

    // Initial setup
    function init() {
      // ensure no residual timers from previous initializations
      clearBlinking();
      const svg = document.getElementById('fuxaWidget');
      if (svg) {
        // Use or persist the original viewBox to prevent cumulative padding growth
        if (!svg.getAttribute('data-fuxa-orig-viewbox')) {
          svg.setAttribute('data-fuxa-orig-viewbox', svg.getAttribute('viewBox') || '0 0 51 51');
        }
        originalViewBox = svg.getAttribute('data-fuxa-orig-viewbox');
      }
      updatePadding();
      updatePreserveAspectRatio();
      applyTransform();
      logic();
    }

    // Function to update values from Fuxa
    function putValue(id, value) {
      let needsTransform = false;

      if (id === '_pn_setState') {
        stateNumber = value;
        logic();
      }
      if (id === '_pb_boolState') {
        _pb_boolState = value;
        if (_pb_boolState === true) {
          stateNumber = 1;
        } else if (_pb_boolState === false) {
          stateNumber = 0;
        }
        logic();
      }
      if (id === '_pn_setIntervalOn') {
        _pn_setIntervalOn = value;
        if (stateNumber === 3) logic();
      }
      if (id === '_pn_setIntervalOff') {
        _pn_setIntervalOff = value;
        if (stateNumber === 3) logic();
      }
      if (id === '_pn_strokeWidth') _pn_strokeWidth = value;
      if (id === '_pc_fill_0') _pc_fill_0 = value;
      if (id === '_pc_fill_1') _pc_fill_1 = value;
      if (id === '_pc_fill_2') _pc_fill_2 = value;
      if (id === '_pc_fill_3') _pc_fill_3 = value;
      if (id === '_pc_fill_4') _pc_fill_4 = value;
      if (id === '_pc_fill_5') _pc_fill_5 = value;
      if (id === '_pc_stroke_0') _pc_stroke_0 = value;
      if (id === '_pc_stroke_1') _pc_stroke_1 = value;
      if (id === '_pc_stroke_2') _pc_stroke_2 = value;
      if (id === '_pc_stroke_3') _pc_stroke_3 = value;
      if (id === '_pc_stroke_4') _pc_stroke_4 = value;
      if (id === '_pc_stroke_5') _pc_stroke_5 = value;

      // ROTATE
      if (id === '_pn_rotateAngle') { _pn_rotateAngle = value; needsTransform = true; }
      if (id === '_pn_rotateOffsetX') { _pn_rotateOffsetX = value; needsTransform = true; }
      if (id === '_pn_rotateOffsetY') { _pn_rotateOffsetY = value; needsTransform = true; }

      // FLIP
      if (id === '_pb_flipHorizontal') {
        _pb_flipHorizontal = (value === true || value === 1 || value === '1');
        needsTransform = true;
      }
      if (id === '_pb_flipVertical') {
        _pb_flipVertical = (value === true || value === 1 || value === '1');
        needsTransform = true;
      }
      if (id === '_pn_flipOffsetX') { _pn_flipOffsetX = value; needsTransform = true; }
      if (id === '_pn_flipOffsetY') { _pn_flipOffsetY = value; needsTransform = true; }

      // PADDING
      if (id === '_pn_padding') {
        _pn_padding = Math.max(0, +value || 0);
        updatePadding();
        needsTransform = true;
      }

      // PRESERVE ASPECT RATIO
      if (id === '_pb_preserveAspectRatio') {
        _pb_preserveAspectRatio = (value === true || value === 1 || value === '1');
        updatePreserveAspectRatio();
      }

      if (needsTransform) {
        applyTransform();
      }
    }

    // Function to send values back to Fuxa (placeholder)
    function postValue(id, value) {
      console.log('Not defined!');
    }

    // Make postValue globally available only if not already set by Fuxa
    if (!window.postValue) {
      window.postValue = postValue;
    }

    // Initialize the SVG
    init();

    // Re-run init when the page becomes visible (e.g., returning from editor)
    document.addEventListener('visibilitychange', function() {
      if (document.visibilityState === 'visible') {
        setTimeout(() => init(), 10);
      }
    });

    // Function to update the color for the base shape group
    function setBaseColor(strokeColor, fillColor) {
      const symbol = document.getElementById('fuxaSymbol');
      if (!symbol) return;
      symbol.querySelectorAll('*').forEach(function(elem) {
        try {
          // Set both presentation attributes and inline styles so existing style attributes
          // (e.g., style="fill:none") are overridden by the inline style setting.
          if (fillColor !== undefined && fillColor !== null) {
            elem.setAttribute('fill', fillColor);
            elem.style.fill = fillColor;
          }
          if (strokeColor !== undefined && strokeColor !== null) {
            elem.setAttribute('stroke', strokeColor);
            elem.style.stroke = strokeColor;
          }
          elem.setAttribute('stroke-width', _pn_strokeWidth);
          elem.style.strokeWidth = String(_pn_strokeWidth);
        } catch (e) {
          // Ignore if an element doesn't accept a property
        }
      });
      applyTransform();
    }

    // DUAL BLINK: onTime (fault), offTime (off) - simple top-level tick-by-id function
    // This follows the original approach — a named top-level tick function that schedules itself.
    function fuxa_blink_tick(svgId) {
      const svg = document.getElementById(svgId);
      if (!svg) {
        clearBlinking();
        return;
      }
      if (!svg || !svg._fuxa_blink_params) return;
      const p = svg._fuxa_blink_params;
      if (svg._fuxa_blink_state) {
        setBaseColor(p.strokeOn, p.fillOn);
        svg._fuxa_blink_state = false;
        svg._fuxa_blink_timer = setTimeout(function() { fuxa_blink_tick(svgId); }, p.onTime);
      } else {
        setBaseColor(p.strokeOff, p.fillOff);
        svg._fuxa_blink_state = true;
        svg._fuxa_blink_timer = setTimeout(function() { fuxa_blink_tick(svgId); }, p.offTime);
      }
    }

    function startDualBlinking(strokeOff, strokeOn, fillOff, fillOn, onTime, offTime) {
      clearBlinking();
      // Ensure values are numbers
      onTime = Number(onTime) || 0;
      offTime = Number(offTime) || 0;
      const id = 'fuxaWidget';
      const svg = document.getElementById(id);
      if (!svg) return;
      svg._fuxa_blink_params = { strokeOff, strokeOn, fillOff, fillOn, onTime, offTime };
      svg._fuxa_blink_state = true;
      // start the tick by id (named function) for reliability
      fuxa_blink_tick(id);

      blinkObserver = new MutationObserver((mutations) => {
        mutations.forEach((mutation) => {
          mutation.removedNodes.forEach((node) => {
            if (node && node.id === 'fuxaWidget') {
              clearBlinking();
              if (blinkObserver) {
                blinkObserver.disconnect();
                blinkObserver = null;
              }
            }
          });
        });
      });
      blinkObserver.observe(document.body, { childList: true, subtree: true });
    }

    // FULL CLEAR BLINKING
    function clearBlinking() {
      if (blinkInterval) {
        clearInterval(blinkInterval);
        blinkInterval = null;
      }
      if (blinkTimer) {
        clearTimeout(blinkTimer);
        blinkTimer = null;
      }
      if (blinkObserver) {
        blinkObserver.disconnect();
        blinkObserver = null;
      }
      const svg = document.getElementById('fuxaWidget');
      if (svg) {
        if (svg._fuxa_blink_timer) { clearTimeout(svg._fuxa_blink_timer); svg._fuxa_blink_timer = null; }
        if (svg._fuxa_blink_params) { svg._fuxa_blink_params = null; }
        if (svg._fuxa_blink_state !== undefined) { svg._fuxa_blink_state = null; }
      }
    }]]></script>
</svg>
