<?xml version='1.0' encoding='UTF-8'?>
<svg xmlns="http://www.w3.org/2000/svg" xmlns:svg="http://www.w3.org/2000/svg" version="1.1" viewBox="0 0 48.849998 50" id="fuxaWidget" style="border: none !important; outline: none !important; box-shadow: none !important; margin: 0; padding: 0; background: transparent;" width="100%" height="100%">
  <g id="fuxaSymbol">
    <defs id="defs1"/>
    <g data-cell-id="gQ551Ar7PwXLAaA90adm-611" id="g20" transform="translate(-0.5,-0.5)">
      <g id="cell-gQ551Ar7PwXLAaA90adm-611">
        <g transform="translate(0.5,0.5)" id="g19">
          <path d="M 4.03,0 C 1.94,0 0.23,1.7 0.23,3.8 v 14.7 c 0,2.1 1.71,3.8 3.8,3.8 h 6.74 v 7.87 h -2.2 c -0.78,0 -1.51,0.19 -2.05,0.65 C 5.98,31.28 5.68,32 5.68,32.9 v 3.28 c -1.83,0.19 -3.25,1.74 -3.25,3.62 0,1.29 0.68,2.44 1.71,3.08 -1.43,0.49 -2.26,1.45 -2.89,2.24 v 0 L 1.24,45.13 C 0.21,46.53 0,48.24 0.22,49.61 L 0.29,50 h 0.39 11.09 l 0.09,-0.35 c 0.38,-1.54 -0.09,-3.24 -1,-4.57 v 0 0 C 10.34,44.33 9.38,43.36 7.99,42.88 9.02,42.23 9.71,41.09 9.71,39.79 9.71,37.97 8.36,36.46 6.6,36.19 V 32.9 c 0,-0.7 0.2,-1.1 0.52,-1.38 0.32,-0.27 0.82,-0.42 1.45,-0.42 h 15.31 v 5.09 c -1.78,0.24 -3.15,1.77 -3.15,3.6 0,1.3 0.69,2.45 1.72,3.09 -1.44,0.49 -2.27,1.45 -2.89,2.24 h -0.01 v 0.01 c -1.03,1.4 -1.25,3.11 -1.02,4.48 L 18.59,50 h 0.4 11.08 l 0.09,-0.35 c 0.38,-1.54 -0.09,-3.24 -0.99,-4.57 v 0 h -0.01 c -0.52,-0.75 -1.48,-1.72 -2.86,-2.2 1.03,-0.65 1.71,-1.79 1.71,-3.09 0,-1.85 -1.4,-3.39 -3.2,-3.61 V 31.1 h 15.53 c 0.49,0 0.95,0.16 1.29,0.48 0.34,0.32 0.58,0.8 0.58,1.53 v 3.07 c -1.79,0.23 -3.17,1.77 -3.17,3.61 0,1.3 0.68,2.45 1.71,3.09 -1.43,0.49 -2.26,1.45 -2.89,2.24 v 0 l -0.01,0.01 c -1.03,1.4 -1.24,3.11 -1.02,4.48 L 36.9,50 h 0.39 11.09 l 0.09,-0.35 c 0.38,-1.54 -0.09,-3.24 -1,-4.57 v 0 -0.01 c -0.52,-0.74 -1.48,-1.71 -2.87,-2.19 1.03,-0.65 1.72,-1.79 1.72,-3.09 0,-1.84 -1.39,-3.38 -3.18,-3.61 v -3.07 c 0,-0.94 -0.34,-1.7 -0.87,-2.2 -0.53,-0.5 -1.24,-0.74 -1.93,-0.74 H 38 V 22.3 h 6.84 c 2.1,0 3.8,-1.7 3.8,-3.8 V 3.8 C 48.64,1.7 46.94,0 44.84,0 H 30.26 c -2.09,0 -3.8,1.7 -3.8,3.8 v 14.7 c 0,2.1 1.71,3.8 3.8,3.8 h 6.81 v 7.87 H 11.7 V 22.3 h 6.91 c 2.1,0 3.8,-1.7 3.8,-3.8 V 3.8 C 22.41,1.7 20.71,0 18.61,0 Z m 0,0.93 h 14.58 c 1.6,0 2.87,1.27 2.87,2.87 v 14.7 c 0,1.6 -1.27,2.88 -2.87,2.88 H 4.03 C 2.43,21.38 1.16,20.1 1.16,18.5 V 3.8 c 0,-1.6 1.27,-2.87 2.87,-2.87 z m 26.23,0 h 14.58 c 1.6,0 2.87,1.27 2.87,2.87 v 14.7 c 0,1.11 -0.61,2.06 -1.51,2.54 -0.38,-0.6 -0.53,-0.95 -0.53,-1.96 0,0 0,0 0,0 0,0 0,0 0,0 L 45.65,11.91 C 45.65,10.2 44.87,8.33 43.51,6.85 42.15,5.38 40.18,4.3 37.82,4.3 c -2.61,0 -4.7,1.08 -6.12,2.55 -1.41,1.46 -2.19,3.3 -2.19,4.91 l -0.03,7.78 c 0,0 0,0 0,0 0,0.66 -0.28,1.08 -0.61,1.48 -0.89,-0.49 -1.48,-1.43 -1.48,-2.52 V 3.8 c 0,-1.6 1.27,-2.87 2.87,-2.87 z M 17.91,3.97 c -0.02,0 -0.03,0 -0.05,0 L 4.7,5.94 C 4.48,5.97 4.31,6.17 4.31,6.4 v 9.52 c 0,0.23 0.17,0.43 0.39,0.46 l 13.16,1.89 c 0.14,0.02 0.27,-0.02 0.37,-0.11 0.11,-0.09 0.17,-0.21 0.17,-0.35 V 4.43 C 18.4,4.31 18.34,4.18 18.25,4.1 18.16,4.01 18.04,3.96 17.91,3.97 Z m -0.44,1 V 10.6 H 10.76 V 5.97 Z m 20.35,0.26 c 2.08,0 3.8,0.94 5.01,2.25 1.21,1.31 1.89,3.01 1.89,4.43 0,0 0,0 0,0 l 0.02,7.17 c 0,1.02 0.21,1.64 0.56,2.26 -0.15,0.02 -0.3,0.04 -0.46,0.04 H 30.26 c -0.16,0 -0.31,-0.02 -0.47,-0.04 0.32,-0.45 0.62,-1.03 0.62,-1.8 v 0 l 0.03,-7.78 c 0,0 0,0 0,0 0,0 0,0 0,0 0,0 0,0 0,0 0,0 0,0 0,0 0,-1.3 0.67,-2.96 1.93,-4.26 1.26,-1.31 3.1,-2.27 5.45,-2.27 z M 9.83,6.11 V 10.6 H 5.23 V 6.8 Z m 25.18,3.33 c -0.37,0 -0.72,0.15 -0.98,0.41 -0.26,0.26 -0.41,0.61 -0.41,0.98 0,0.37 0.15,0.72 0.41,0.98 0.26,0.26 0.61,0.41 0.98,0.41 0.37,0 0.72,-0.15 0.98,-0.41 0.26,-0.26 0.41,-0.61 0.41,-0.98 0,-0.37 -0.15,-0.72 -0.41,-0.98 C 35.73,9.59 35.38,9.44 35.01,9.44 Z m 5,0 c -0.37,0 -0.72,0.15 -0.98,0.41 -0.27,0.26 -0.41,0.61 -0.41,0.98 0,0.37 0.14,0.72 0.41,0.98 0.26,0.26 0.61,0.41 0.98,0.41 0.37,0 0.72,-0.15 0.98,-0.41 0.26,-0.26 0.41,-0.61 0.41,-0.98 0,-0.77 -0.63,-1.39 -1.39,-1.39 z M 5.23,11.53 h 4.6 v 4.65 l -4.6,-0.66 z m 5.53,0 h 6.71 v 5.75 l -6.71,-0.97 z m 26.72,1.27 c -0.59,0 -1.19,0.13 -1.76,0.37 -0.01,0.01 -0.02,0.01 -0.03,0.02 -1.17,0.61 -2.24,1.29 -3.19,2.05 -0.11,0.09 -0.17,0.22 -0.17,0.36 0,0.17 0.08,0.32 0.22,0.4 0.98,0.6 1.97,1.3 3.06,1.75 0,0 0,0 0,0 1.37,0.55 2.7,0.5 3.78,-0.01 1.06,-0.51 2.07,-1.11 3.06,-1.67 C 42.59,16 42.68,15.86 42.69,15.7 42.7,15.55 42.64,15.4 42.51,15.3 41.59,14.58 40.54,13.78 39.24,13.22 38.67,12.93 38.08,12.8 37.48,12.8 Z m 0,0.92 v 0 c 0.45,0 0.9,0.1 1.35,0.33 0.01,0 0.02,0.01 0.02,0.01 0.95,0.41 1.75,0.97 2.51,1.55 -0.78,0.45 -1.57,0.91 -2.37,1.29 0,0 0,0 0,0 -0.83,0.39 -1.87,0.46 -3.03,-0.01 -0.74,-0.31 -1.5,-0.82 -2.28,-1.31 0.75,-0.55 1.52,-1.09 2.42,-1.55 0.47,-0.2 0.93,-0.31 1.38,-0.31 z M 6.07,37.08 c 1.5,0 2.71,1.21 2.71,2.72 0,1.5 -1.21,2.71 -2.71,2.71 -1.51,0 -2.72,-1.21 -2.72,-2.71 0,-1.51 1.21,-2.72 2.72,-2.72 z m 18.3,0 c 1.5,0 2.71,1.21 2.71,2.72 0,1.5 -1.21,2.71 -2.71,2.71 -1.5,0 -2.71,-1.21 -2.71,-2.71 0,-1.51 1.21,-2.72 2.71,-2.72 z m 18.31,0 c 1.5,0 2.71,1.21 2.71,2.72 0,1.5 -1.21,2.71 -2.71,2.71 -1.51,0 -2.72,-1.21 -2.72,-2.71 0,-1.51 1.21,-2.72 2.72,-2.72 z M 6.16,43.5 c 2.01,0 3.33,1.24 3.94,2.11 0.7,1.04 1.05,2.33 0.89,3.46 H 1.15 C 1.05,47.99 1.23,46.72 1.99,45.69 2.85,44.61 3.7,43.5 6.16,43.5 Z m 18.31,0 c 2.01,0 3.33,1.24 3.93,2.11 0.71,1.04 1.06,2.33 0.9,3.46 h -9.85 c -0.09,-1.08 0.09,-2.35 0.84,-3.38 0.86,-1.08 1.72,-2.19 4.18,-2.19 z m 18.3,0 c 2.01,0 3.33,1.24 3.94,2.11 0.7,1.04 1.05,2.33 0.89,3.46 h -9.84 c -0.1,-1.08 0.08,-2.35 0.84,-3.38 0.86,-1.08 1.71,-2.19 4.17,-2.19 z" fill="#000000" stroke="none" pointer-events="all" id="path18"/>
        </g>
      </g>
    </g>
  </g>
  <script type="text/javascript"><![CDATA[/*
    # =============================================
    # ===             How to Use                ===
    # =============================================

    Variables with the following prefix:

    _pb_ = bool   parameter ( true or false )
    _pn_ = number parameter ( Int, Float, Real etc )
    _ps_ = string parameter ( string can be entered directly )
    _pc_ = color parameter in hex color code ( #00ff00ff )

    Indicate variable type to be used in Fuxa Properties and binding of Tags, Important! they have to be place within:

    //!export-start
    let _pn_setState = 0;
    //!export-end

    There are 2x Functions to handle sending and receiving data between Fuxa and the SVG

    // Recieve Variables From Fuxa
    function putValue(id, value) { } 
    
    // Send Variables To Fuxa
    function postValue(id, value) {
      console.error('Not defined!');
    }

    The ID is the name of the variable _pn_setState for example and value is the value to be sent or received from Fuxa


    This SVG uses an INT/Number Variable to change the State and State of the SVG:

    0 = Off
    1 = Run
    2 = Warning
    3 = Fault
    4 = Invalid
    5 = Spare

    You can also use the bool field and this will change the state between 0 = off and 1 = run 

    You can also set the color for each state in Fuxa using HEX color code #b4b4b4
    The Default Blink Interval for On and Off is 500ms but can also be changed in Fuxa in MS resolution

    <svg>
      SVG Content Here
      <script>
        JS Script Content Here
      </script>
    </svg>

    */

	  // Global Parameters and Variables

    //!export-start
    let _pn_setState = 0;                     // 0=Off, 1=Run, 2=Warn, 3=Fault, 4=Invalid, 5=Spare
    let _pb_boolState = false;                // true = Run, false = Off
    let _pn_setIntervalOn = 500;              // ms fault color is ON
    let _pn_setIntervalOff = 500;             // ms fault color is OFF
    let _pn_strokeWidth = 1;                  // Global stroke width for all states
    let _pc_fill_0 = 'none';                  // Off
    let _pc_fill_1 = 'none';                  // Run
    let _pc_fill_2 = 'none';                  // Warn
    let _pc_fill_3 = 'none';                  // Fault
    let _pc_fill_4 = 'none';                  // Invalid
    let _pc_fill_5 = 'none';                  // Spare
    let _pc_stroke_0 = '#7f7f7f';             // Off
    let _pc_stroke_1 = '#00ff00';             // Run
    let _pc_stroke_2 = '#ff9500';             // Warn
    let _pc_stroke_3 = '#ff0000';             // Fault
    let _pc_stroke_4 = '#3c3c3c';             // Invalid
    let _pc_stroke_5 = '#dcdcdc';             // Spare
    let _pb_preserveAspectRatio = true;       // true = preserve aspect ratio, false = stretch
    let _pn_rotateAngle = 0;                  // degrees, 0 = no rotation
    let _pn_rotateOffsetX = 0;                // offset from center (0 = center)
    let _pn_rotateOffsetY = 0;                // offset from center (0 = center)
    let _pb_flipHorizontal = false;           // true = flip X
    let _pb_flipVertical = false;             // true = flip Y
    let _pn_flipOffsetX = 0;                  // offset from center (0 = center)
    let _pn_flipOffsetY = 0;                  // offset from center (0 = center)
    let _pn_padding = 0;                      // padding around SVG (default 0)
    //!export-end

    let stateNumber = 0;
    let blinkInterval = null;
    let blinkTimer = null;
    let blinkObserver = null;
    let originalViewBox = null;

    // Get dynamic center from SVG viewBox (uses originalViewBox if available)
    function getCenter() {
      const svg = document.getElementById('fuxaWidget');
      const symbol = document.getElementById('fuxaSymbol');
      if (!svg) return { x: 25.5, y: 25.5 };
      if (symbol && typeof symbol.getBBox === 'function') {
        const bb = symbol.getBBox();
        return { x: bb.x + bb.width / 2, y: bb.y + bb.height / 2 };
      }
      const vbString = originalViewBox || svg.getAttribute('viewBox') || '0 0 51 51';
      const vb = vbString.split(/\s+/).map(parseFloat);
      return { x: (vb[0] + vb[2]) / 2, y: (vb[1] + vb[3]) / 2 };
    }

    // Apply transform to symbol group
    function applyTransform() {
      const symbol = document.getElementById('fuxaSymbol');
      if (!symbol) return;
      const center = getCenter();
      const cx = center.x + _pn_rotateOffsetX + _pn_flipOffsetX;
      const cy = center.y + _pn_rotateOffsetY + _pn_flipOffsetY;
      let transform = '';
      if (_pb_flipHorizontal || _pb_flipVertical) {
        const scaleX = _pb_flipHorizontal ? -1 : 1;
        const scaleY = _pb_flipVertical ? -1 : 1;
        transform += `scale(${scaleX}, ${scaleY}) translate(${scaleX === -1 ? -cx * 2 : 0}, ${scaleY === -1 ? -cy * 2 : 0}) `;
      }
      if (_pn_rotateAngle !== 0) {
        transform += `rotate(${_pn_rotateAngle}, ${cx}, ${cy}) `;
      }
      symbol.setAttribute('transform', transform.trim() || '');
    }

    // Update viewBox with padding
    function updatePadding() {
      const svg = document.getElementById('fuxaWidget');
      const symbol = document.getElementById('fuxaSymbol');
      if (!svg) return;
      const pad = Math.max(0, _pn_padding || 0);
      // Prefer persisted original viewBox (stable) — if not present, persist a computed one using getBBox
      const persisted = svg.getAttribute('data-fuxa-orig-viewbox');
      if (persisted) {
        const vb = persisted.split(/\s+/).map(parseFloat);
        const width = vb[2] - vb[0];
        const height = vb[3] - vb[1];
        const padded = Math.max(width, height);
        const size = padded + 2 * pad;
        const offsetX = (padded - width) / 2;
        const offsetY = (padded - height) / 2;
        svg.setAttribute('viewBox', `${vb[0] - pad - offsetX} ${vb[1] - pad - offsetY} ${size} ${size}`);
        return;
      }
      if (symbol && typeof symbol.getBBox === 'function') {
        // Use the actual content bounds to compute the original viewBox and persist it
        const bb = symbol.getBBox();
        const contentSize = Math.max(bb.width, bb.height);
        const size = contentSize + 2 * pad;
        const cx = bb.x + bb.width / 2;
        const cy = bb.y + bb.height / 2;
        const x = cx - size / 2;
        const y = cy - size / 2;
        const vbString = `${x} ${y} ${size} ${size}`;
        svg.setAttribute('data-fuxa-orig-viewbox', vbString);
        originalViewBox = vbString;
        svg.setAttribute('viewBox', vbString);
        return;
      }
      // Fallback to original viewBox if getBBox is not available
      const vbString = originalViewBox || svg.getAttribute('viewBox') || '0 0 51 51';
      const vb = vbString.split(/\s+/).map(parseFloat);
      const width = vb[2] - vb[0];
      const height = vb[3] - vb[1];
      const padded = Math.max(width, height);
      const size = padded + 2 * pad;
      const offsetX = (padded - width) / 2;
      const offsetY = (padded - height) / 2;
      svg.setAttribute('viewBox', `${vb[0] - pad - offsetX} ${vb[1] - pad - offsetY} ${size} ${size}`);
    }

    // Function to update preserveAspectRatio
    function updatePreserveAspectRatio() {
      const svg = document.getElementById('fuxaWidget');
      if (!svg) return;
      if (_pb_preserveAspectRatio) {
        svg.setAttribute('preserveAspectRatio', 'xMidYMid meet');
      } else {
        svg.setAttribute('preserveAspectRatio', 'none');
      }
    }

    // Function to update the color based on the set state
    function logic() {
      switch (stateNumber) {
        case 0: // off
          setBaseColor(_pc_stroke_0, _pc_fill_0);
          clearBlinking();
          break;
        case 1: // run
          setBaseColor(_pc_stroke_1, _pc_fill_1);
          clearBlinking();
          break;
        case 2: // warning
          setBaseColor(_pc_stroke_2, _pc_fill_2);
          clearBlinking();
          break;
        case 3: // fault
          const onRaw = +_pn_setIntervalOn;
          const offRaw = +_pn_setIntervalOff;
          const on = (onRaw > 0) ? Math.max(50, onRaw) : 0;
          const off = (offRaw > 0) ? Math.max(50, offRaw) : 0;

          if (on === 0 || off === 0) {
            setBaseColor(_pc_stroke_3, _pc_fill_3);
            clearBlinking();
          } else {
            startDualBlinking(_pc_stroke_0, _pc_stroke_3, _pc_fill_0, _pc_fill_3, on, off);
          }
          break;
        case 4: // invalid
          setBaseColor(_pc_stroke_4, _pc_fill_4);
          clearBlinking();
          break;
        case 5: // spare
          setBaseColor(_pc_stroke_5, _pc_fill_5);
          clearBlinking();
          break;
        default:
          console.log('Undefined State');
          clearBlinking();
      }
    }

    // Initial setup
    function init() {
      // ensure no residual timers from previous initializations
      clearBlinking();
      const svg = document.getElementById('fuxaWidget');
      if (svg) {
        // Use or persist the original viewBox to prevent cumulative padding growth
        if (!svg.getAttribute('data-fuxa-orig-viewbox')) {
          svg.setAttribute('data-fuxa-orig-viewbox', svg.getAttribute('viewBox') || '0 0 51 51');
        }
        originalViewBox = svg.getAttribute('data-fuxa-orig-viewbox');
      }
      updatePadding();
      updatePreserveAspectRatio();
      applyTransform();
      logic();
    }

    // Function to update values from Fuxa
    function putValue(id, value) {
      let needsTransform = false;

      if (id === '_pn_setState') {
        stateNumber = value;
        logic();
      }
      if (id === '_pb_boolState') {
        _pb_boolState = value;
        if (_pb_boolState === true) {
          stateNumber = 1;
        } else if (_pb_boolState === false) {
          stateNumber = 0;
        }
        logic();
      }
      if (id === '_pn_setIntervalOn') {
        _pn_setIntervalOn = value;
        if (stateNumber === 3) logic();
      }
      if (id === '_pn_setIntervalOff') {
        _pn_setIntervalOff = value;
        if (stateNumber === 3) logic();
      }
      if (id === '_pn_strokeWidth') _pn_strokeWidth = value;
      if (id === '_pc_fill_0') _pc_fill_0 = value;
      if (id === '_pc_fill_1') _pc_fill_1 = value;
      if (id === '_pc_fill_2') _pc_fill_2 = value;
      if (id === '_pc_fill_3') _pc_fill_3 = value;
      if (id === '_pc_fill_4') _pc_fill_4 = value;
      if (id === '_pc_fill_5') _pc_fill_5 = value;
      if (id === '_pc_stroke_0') _pc_stroke_0 = value;
      if (id === '_pc_stroke_1') _pc_stroke_1 = value;
      if (id === '_pc_stroke_2') _pc_stroke_2 = value;
      if (id === '_pc_stroke_3') _pc_stroke_3 = value;
      if (id === '_pc_stroke_4') _pc_stroke_4 = value;
      if (id === '_pc_stroke_5') _pc_stroke_5 = value;

      // ROTATE
      if (id === '_pn_rotateAngle') { _pn_rotateAngle = value; needsTransform = true; }
      if (id === '_pn_rotateOffsetX') { _pn_rotateOffsetX = value; needsTransform = true; }
      if (id === '_pn_rotateOffsetY') { _pn_rotateOffsetY = value; needsTransform = true; }

      // FLIP
      if (id === '_pb_flipHorizontal') {
        _pb_flipHorizontal = (value === true || value === 1 || value === '1');
        needsTransform = true;
      }
      if (id === '_pb_flipVertical') {
        _pb_flipVertical = (value === true || value === 1 || value === '1');
        needsTransform = true;
      }
      if (id === '_pn_flipOffsetX') { _pn_flipOffsetX = value; needsTransform = true; }
      if (id === '_pn_flipOffsetY') { _pn_flipOffsetY = value; needsTransform = true; }

      // PADDING
      if (id === '_pn_padding') {
        _pn_padding = Math.max(0, +value || 0);
        updatePadding();
        needsTransform = true;
      }

      // PRESERVE ASPECT RATIO
      if (id === '_pb_preserveAspectRatio') {
        _pb_preserveAspectRatio = (value === true || value === 1 || value === '1');
        updatePreserveAspectRatio();
      }

      if (needsTransform) {
        applyTransform();
      }
    }

    // Function to send values back to Fuxa (placeholder)
    function postValue(id, value) {
      console.log('Not defined!');
    }

    // Make postValue globally available only if not already set by Fuxa
    if (!window.postValue) {
      window.postValue = postValue;
    }

    // Initialize the SVG
    init();

    // Re-run init when the page becomes visible (e.g., returning from editor)
    document.addEventListener('visibilitychange', function() {
      if (document.visibilityState === 'visible') {
        setTimeout(() => init(), 10);
      }
    });

    // Function to update the color for the base shape group
    function setBaseColor(strokeColor, fillColor) {
      const symbol = document.getElementById('fuxaSymbol');
      if (!symbol) return;
      symbol.querySelectorAll('*').forEach(function(elem) {
        try {
          // Set both presentation attributes and inline styles so existing style attributes
          // (e.g., style="fill:none") are overridden by the inline style setting.
          if (fillColor !== undefined && fillColor !== null) {
            elem.setAttribute('fill', fillColor);
            elem.style.fill = fillColor;
          }
          if (strokeColor !== undefined && strokeColor !== null) {
            elem.setAttribute('stroke', strokeColor);
            elem.style.stroke = strokeColor;
          }
          elem.setAttribute('stroke-width', _pn_strokeWidth);
          elem.style.strokeWidth = String(_pn_strokeWidth);
        } catch (e) {
          // Ignore if an element doesn't accept a property
        }
      });
      applyTransform();
    }

    // DUAL BLINK: onTime (fault), offTime (off) - simple top-level tick-by-id function
    // This follows the original approach — a named top-level tick function that schedules itself.
    function fuxa_blink_tick(svgId) {
      const svg = document.getElementById(svgId);
      if (!svg) {
        clearBlinking();
        return;
      }
      if (!svg || !svg._fuxa_blink_params) return;
      const p = svg._fuxa_blink_params;
      if (svg._fuxa_blink_state) {
        setBaseColor(p.strokeOn, p.fillOn);
        svg._fuxa_blink_state = false;
        svg._fuxa_blink_timer = setTimeout(function() { fuxa_blink_tick(svgId); }, p.onTime);
      } else {
        setBaseColor(p.strokeOff, p.fillOff);
        svg._fuxa_blink_state = true;
        svg._fuxa_blink_timer = setTimeout(function() { fuxa_blink_tick(svgId); }, p.offTime);
      }
    }

    function startDualBlinking(strokeOff, strokeOn, fillOff, fillOn, onTime, offTime) {
      clearBlinking();
      // Ensure values are numbers
      onTime = Number(onTime) || 0;
      offTime = Number(offTime) || 0;
      const id = 'fuxaWidget';
      const svg = document.getElementById(id);
      if (!svg) return;
      svg._fuxa_blink_params = { strokeOff, strokeOn, fillOff, fillOn, onTime, offTime };
      svg._fuxa_blink_state = true;
      // start the tick by id (named function) for reliability
      fuxa_blink_tick(id);

      blinkObserver = new MutationObserver((mutations) => {
        mutations.forEach((mutation) => {
          mutation.removedNodes.forEach((node) => {
            if (node && node.id === 'fuxaWidget') {
              clearBlinking();
              if (blinkObserver) {
                blinkObserver.disconnect();
                blinkObserver = null;
              }
            }
          });
        });
      });
      blinkObserver.observe(document.body, { childList: true, subtree: true });
    }

    // FULL CLEAR BLINKING
    function clearBlinking() {
      if (blinkInterval) {
        clearInterval(blinkInterval);
        blinkInterval = null;
      }
      if (blinkTimer) {
        clearTimeout(blinkTimer);
        blinkTimer = null;
      }
      if (blinkObserver) {
        blinkObserver.disconnect();
        blinkObserver = null;
      }
      const svg = document.getElementById('fuxaWidget');
      if (svg) {
        if (svg._fuxa_blink_timer) { clearTimeout(svg._fuxa_blink_timer); svg._fuxa_blink_timer = null; }
        if (svg._fuxa_blink_params) { svg._fuxa_blink_params = null; }
        if (svg._fuxa_blink_state !== undefined) { svg._fuxa_blink_state = null; }
      }
    }]]></script>
</svg>
