<?xml version="1.0" encoding="UTF-8" standalone="no"?>
<svg width="100%" height="100%" viewBox="0 0 200 200" xmlns="http://www.w3.org/2000/svg">
  <defs>
    <filter id="centerShadow" x="-50%" y="-50%" width="200%" height="200%">
      <feDropShadow dx="0" dy="2" stdDeviation="2" flood-color="#000000" flood-opacity="0.35"/>
    </filter>
  </defs>

  <circle id="outerRing" data-compass="outerRing" cx="100" cy="100" r="94" fill="#d9d9d9"/>
  <circle cx="100" cy="100" r="82" fill="none" stroke="#000000" stroke-opacity="0.18" stroke-width="2"/>

  <g id="compassDial" data-compass="dial" transform="rotate(0 100 100)">
    <circle id="dialBackground" data-compass="dialBackground" cx="100" cy="100" r="82" fill="#b53234"/>
    <g id="tickLayer" data-compass="tickLayer" stroke="#f2f2f2" stroke-width="1.3">
      <line class="compassTick" data-major="1" x1="100.00" y1="22.00" x2="100.00" y2="39.00" stroke-linecap="butt"/>
      <line class="compassTick" data-major="0" x1="102.72" y1="22.05" x2="102.41" y2="31.04" stroke-linecap="butt"/>
      <line class="compassTick" data-major="0" x1="105.44" y1="22.19" x2="104.81" y2="31.17" stroke-linecap="butt"/>
      <line class="compassTick" data-major="0" x1="108.15" y1="22.43" x2="107.21" y2="31.38" stroke-linecap="butt"/>
      <line class="compassTick" data-major="0" x1="110.86" y1="22.76" x2="109.60" y2="31.67" stroke-linecap="butt"/>
      <line class="compassTick" data-major="0" x1="113.54" y1="23.18" x2="111.46" y2="35.00" stroke-linecap="butt"/>
      <line class="compassTick" data-major="0" x1="116.22" y1="23.70" x2="114.35" y2="32.51" stroke-linecap="butt"/>
      <line class="compassTick" data-major="0" x1="118.87" y1="24.32" x2="116.69" y2="33.05" stroke-linecap="butt"/>
      <line class="compassTick" data-major="0" x1="121.50" y1="25.02" x2="119.02" y2="33.67" stroke-linecap="butt"/>
      <line class="compassTick" data-major="0" x1="124.10" y1="25.82" x2="121.32" y2="34.38" stroke-linecap="butt"/>
      <line class="compassTick" data-major="0" x1="126.68" y1="26.70" x2="122.57" y2="37.98" stroke-linecap="butt"/>
      <line class="compassTick" data-major="0" x1="129.22" y1="27.68" x2="125.85" y2="36.02" stroke-linecap="butt"/>
      <line class="compassTick" data-major="0" x1="131.73" y1="28.74" x2="128.06" y2="36.97" stroke-linecap="butt"/>
      <line class="compassTick" data-major="0" x1="134.19" y1="29.89" x2="130.25" y2="37.98" stroke-linecap="butt"/>
      <line class="compassTick" data-major="0" x1="136.62" y1="31.13" x2="132.39" y2="39.08" stroke-linecap="butt"/>
      <line class="compassTick" data-major="0" x1="139.00" y1="32.45" x2="133.00" y2="42.84" stroke-linecap="butt"/>
      <line class="compassTick" data-major="0" x1="141.33" y1="33.85" x2="136.56" y2="41.48" stroke-linecap="butt"/>
      <line class="compassTick" data-major="0" x1="143.62" y1="35.34" x2="138.58" y2="42.80" stroke-linecap="butt"/>
      <line class="compassTick" data-major="0" x1="145.85" y1="36.90" x2="140.56" y2="44.18" stroke-linecap="butt"/>
      <line class="compassTick" data-major="0" x1="148.02" y1="38.54" x2="142.48" y2="45.63" stroke-linecap="butt"/>
      <line class="compassTick" data-major="0" x1="150.14" y1="40.25" x2="142.42" y2="49.44" stroke-linecap="butt"/>
      <line class="compassTick" data-major="0" x1="152.19" y1="42.03" x2="146.17" y2="48.72" stroke-linecap="butt"/>
      <line class="compassTick" data-major="0" x1="154.18" y1="43.89" x2="147.93" y2="50.37" stroke-linecap="butt"/>
      <line class="compassTick" data-major="0" x1="156.11" y1="45.82" x2="149.63" y2="52.07" stroke-linecap="butt"/>
      <line class="compassTick" data-major="0" x1="157.97" y1="47.81" x2="151.28" y2="53.83" stroke-linecap="butt"/>
      <line class="compassTick" data-major="0" x1="159.75" y1="49.86" x2="150.56" y2="57.58" stroke-linecap="butt"/>
      <line class="compassTick" data-major="0" x1="161.46" y1="51.98" x2="154.37" y2="57.52" stroke-linecap="butt"/>
      <line class="compassTick" data-major="0" x1="163.10" y1="54.15" x2="155.82" y2="59.44" stroke-linecap="butt"/>
      <line class="compassTick" data-major="0" x1="164.66" y1="56.38" x2="157.20" y2="61.42" stroke-linecap="butt"/>
      <line class="compassTick" data-major="0" x1="166.15" y1="58.67" x2="158.52" y2="63.44" stroke-linecap="butt"/>
      <line class="compassTick" data-major="0" x1="167.55" y1="61.00" x2="157.16" y2="67.00" stroke-linecap="butt"/>
      <line class="compassTick" data-major="0" x1="168.87" y1="63.38" x2="160.92" y2="67.61" stroke-linecap="butt"/>
      <line class="compassTick" data-major="0" x1="170.11" y1="65.81" x2="162.02" y2="69.75" stroke-linecap="butt"/>
      <line class="compassTick" data-major="0" x1="171.26" y1="68.27" x2="163.03" y2="71.94" stroke-linecap="butt"/>
      <line class="compassTick" data-major="0" x1="172.32" y1="70.78" x2="163.98" y2="74.15" stroke-linecap="butt"/>
      <line class="compassTick" data-major="0" x1="173.30" y1="73.32" x2="162.02" y2="77.43" stroke-linecap="butt"/>
      <line class="compassTick" data-major="0" x1="174.18" y1="75.90" x2="165.62" y2="78.68" stroke-linecap="butt"/>
      <line class="compassTick" data-major="0" x1="174.98" y1="78.50" x2="166.33" y2="80.98" stroke-linecap="butt"/>
      <line class="compassTick" data-major="0" x1="175.68" y1="81.13" x2="166.95" y2="83.31" stroke-linecap="butt"/>
      <line class="compassTick" data-major="0" x1="176.30" y1="83.78" x2="167.49" y2="85.65" stroke-linecap="butt"/>
      <line class="compassTick" data-major="0" x1="176.82" y1="86.46" x2="165.00" y2="88.54" stroke-linecap="butt"/>
      <line class="compassTick" data-major="0" x1="177.24" y1="89.14" x2="168.33" y2="90.40" stroke-linecap="butt"/>
      <line class="compassTick" data-major="0" x1="177.57" y1="91.85" x2="168.62" y2="92.79" stroke-linecap="butt"/>
      <line class="compassTick" data-major="0" x1="177.81" y1="94.56" x2="168.83" y2="95.19" stroke-linecap="butt"/>
      <line class="compassTick" data-major="0" x1="177.95" y1="97.28" x2="168.96" y2="97.59" stroke-linecap="butt"/>
      <line class="compassTick" data-major="1" x1="178.00" y1="100.00" x2="161.00" y2="100.00" stroke-linecap="butt"/>
      <line class="compassTick" data-major="0" x1="177.95" y1="102.72" x2="168.96" y2="102.41" stroke-linecap="butt"/>
      <line class="compassTick" data-major="0" x1="177.81" y1="105.44" x2="168.83" y2="104.81" stroke-linecap="butt"/>
      <line class="compassTick" data-major="0" x1="177.57" y1="108.15" x2="168.62" y2="107.21" stroke-linecap="butt"/>
      <line class="compassTick" data-major="0" x1="177.24" y1="110.86" x2="168.33" y2="109.60" stroke-linecap="butt"/>
      <line class="compassTick" data-major="0" x1="176.82" y1="113.54" x2="165.00" y2="111.46" stroke-linecap="butt"/>
      <line class="compassTick" data-major="0" x1="176.30" y1="116.22" x2="167.49" y2="114.35" stroke-linecap="butt"/>
      <line class="compassTick" data-major="0" x1="175.68" y1="118.87" x2="166.95" y2="116.69" stroke-linecap="butt"/>
      <line class="compassTick" data-major="0" x1="174.98" y1="121.50" x2="166.33" y2="119.02" stroke-linecap="butt"/>
      <line class="compassTick" data-major="0" x1="174.18" y1="124.10" x2="165.62" y2="121.32" stroke-linecap="butt"/>
      <line class="compassTick" data-major="0" x1="173.30" y1="126.68" x2="162.02" y2="122.57" stroke-linecap="butt"/>
      <line class="compassTick" data-major="0" x1="172.32" y1="129.22" x2="163.98" y2="125.85" stroke-linecap="butt"/>
      <line class="compassTick" data-major="0" x1="171.26" y1="131.73" x2="163.03" y2="128.06" stroke-linecap="butt"/>
      <line class="compassTick" data-major="0" x1="170.11" y1="134.19" x2="162.02" y2="130.25" stroke-linecap="butt"/>
      <line class="compassTick" data-major="0" x1="168.87" y1="136.62" x2="160.92" y2="132.39" stroke-linecap="butt"/>
      <line class="compassTick" data-major="0" x1="167.55" y1="139.00" x2="157.16" y2="133.00" stroke-linecap="butt"/>
      <line class="compassTick" data-major="0" x1="166.15" y1="141.33" x2="158.52" y2="136.56" stroke-linecap="butt"/>
      <line class="compassTick" data-major="0" x1="164.66" y1="143.62" x2="157.20" y2="138.58" stroke-linecap="butt"/>
      <line class="compassTick" data-major="0" x1="163.10" y1="145.85" x2="155.82" y2="140.56" stroke-linecap="butt"/>
      <line class="compassTick" data-major="0" x1="161.46" y1="148.02" x2="154.37" y2="142.48" stroke-linecap="butt"/>
      <line class="compassTick" data-major="0" x1="159.75" y1="150.14" x2="150.56" y2="142.42" stroke-linecap="butt"/>
      <line class="compassTick" data-major="0" x1="157.97" y1="152.19" x2="151.28" y2="146.17" stroke-linecap="butt"/>
      <line class="compassTick" data-major="0" x1="156.11" y1="154.18" x2="149.63" y2="147.93" stroke-linecap="butt"/>
      <line class="compassTick" data-major="0" x1="154.18" y1="156.11" x2="147.93" y2="149.63" stroke-linecap="butt"/>
      <line class="compassTick" data-major="0" x1="152.19" y1="157.97" x2="146.17" y2="151.28" stroke-linecap="butt"/>
      <line class="compassTick" data-major="0" x1="150.14" y1="159.75" x2="142.42" y2="150.56" stroke-linecap="butt"/>
      <line class="compassTick" data-major="0" x1="148.02" y1="161.46" x2="142.48" y2="154.37" stroke-linecap="butt"/>
      <line class="compassTick" data-major="0" x1="145.85" y1="163.10" x2="140.56" y2="155.82" stroke-linecap="butt"/>
      <line class="compassTick" data-major="0" x1="143.62" y1="164.66" x2="138.58" y2="157.20" stroke-linecap="butt"/>
      <line class="compassTick" data-major="0" x1="141.33" y1="166.15" x2="136.56" y2="158.52" stroke-linecap="butt"/>
      <line class="compassTick" data-major="0" x1="139.00" y1="167.55" x2="133.00" y2="157.16" stroke-linecap="butt"/>
      <line class="compassTick" data-major="0" x1="136.62" y1="168.87" x2="132.39" y2="160.92" stroke-linecap="butt"/>
      <line class="compassTick" data-major="0" x1="134.19" y1="170.11" x2="130.25" y2="162.02" stroke-linecap="butt"/>
      <line class="compassTick" data-major="0" x1="131.73" y1="171.26" x2="128.06" y2="163.03" stroke-linecap="butt"/>
      <line class="compassTick" data-major="0" x1="129.22" y1="172.32" x2="125.85" y2="163.98" stroke-linecap="butt"/>
      <line class="compassTick" data-major="0" x1="126.68" y1="173.30" x2="122.57" y2="162.02" stroke-linecap="butt"/>
      <line class="compassTick" data-major="0" x1="124.10" y1="174.18" x2="121.32" y2="165.62" stroke-linecap="butt"/>
      <line class="compassTick" data-major="0" x1="121.50" y1="174.98" x2="119.02" y2="166.33" stroke-linecap="butt"/>
      <line class="compassTick" data-major="0" x1="118.87" y1="175.68" x2="116.69" y2="166.95" stroke-linecap="butt"/>
      <line class="compassTick" data-major="0" x1="116.22" y1="176.30" x2="114.35" y2="167.49" stroke-linecap="butt"/>
      <line class="compassTick" data-major="0" x1="113.54" y1="176.82" x2="111.46" y2="165.00" stroke-linecap="butt"/>
      <line class="compassTick" data-major="0" x1="110.86" y1="177.24" x2="109.60" y2="168.33" stroke-linecap="butt"/>
      <line class="compassTick" data-major="0" x1="108.15" y1="177.57" x2="107.21" y2="168.62" stroke-linecap="butt"/>
      <line class="compassTick" data-major="0" x1="105.44" y1="177.81" x2="104.81" y2="168.83" stroke-linecap="butt"/>
      <line class="compassTick" data-major="0" x1="102.72" y1="177.95" x2="102.41" y2="168.96" stroke-linecap="butt"/>
      <line class="compassTick" data-major="1" x1="100.00" y1="178.00" x2="100.00" y2="161.00" stroke-linecap="butt"/>
      <line class="compassTick" data-major="0" x1="97.28" y1="177.95" x2="97.59" y2="168.96" stroke-linecap="butt"/>
      <line class="compassTick" data-major="0" x1="94.56" y1="177.81" x2="95.19" y2="168.83" stroke-linecap="butt"/>
      <line class="compassTick" data-major="0" x1="91.85" y1="177.57" x2="92.79" y2="168.62" stroke-linecap="butt"/>
      <line class="compassTick" data-major="0" x1="89.14" y1="177.24" x2="90.40" y2="168.33" stroke-linecap="butt"/>
      <line class="compassTick" data-major="0" x1="86.46" y1="176.82" x2="88.54" y2="165.00" stroke-linecap="butt"/>
      <line class="compassTick" data-major="0" x1="83.78" y1="176.30" x2="85.65" y2="167.49" stroke-linecap="butt"/>
      <line class="compassTick" data-major="0" x1="81.13" y1="175.68" x2="83.31" y2="166.95" stroke-linecap="butt"/>
      <line class="compassTick" data-major="0" x1="78.50" y1="174.98" x2="80.98" y2="166.33" stroke-linecap="butt"/>
      <line class="compassTick" data-major="0" x1="75.90" y1="174.18" x2="78.68" y2="165.62" stroke-linecap="butt"/>
      <line class="compassTick" data-major="0" x1="73.32" y1="173.30" x2="77.43" y2="162.02" stroke-linecap="butt"/>
      <line class="compassTick" data-major="0" x1="70.78" y1="172.32" x2="74.15" y2="163.98" stroke-linecap="butt"/>
      <line class="compassTick" data-major="0" x1="68.27" y1="171.26" x2="71.94" y2="163.03" stroke-linecap="butt"/>
      <line class="compassTick" data-major="0" x1="65.81" y1="170.11" x2="69.75" y2="162.02" stroke-linecap="butt"/>
      <line class="compassTick" data-major="0" x1="63.38" y1="168.87" x2="67.61" y2="160.92" stroke-linecap="butt"/>
      <line class="compassTick" data-major="0" x1="61.00" y1="167.55" x2="67.00" y2="157.16" stroke-linecap="butt"/>
      <line class="compassTick" data-major="0" x1="58.67" y1="166.15" x2="63.44" y2="158.52" stroke-linecap="butt"/>
      <line class="compassTick" data-major="0" x1="56.38" y1="164.66" x2="61.42" y2="157.20" stroke-linecap="butt"/>
      <line class="compassTick" data-major="0" x1="54.15" y1="163.10" x2="59.44" y2="155.82" stroke-linecap="butt"/>
      <line class="compassTick" data-major="0" x1="51.98" y1="161.46" x2="57.52" y2="154.37" stroke-linecap="butt"/>
      <line class="compassTick" data-major="0" x1="49.86" y1="159.75" x2="57.58" y2="150.56" stroke-linecap="butt"/>
      <line class="compassTick" data-major="0" x1="47.81" y1="157.97" x2="53.83" y2="151.28" stroke-linecap="butt"/>
      <line class="compassTick" data-major="0" x1="45.82" y1="156.11" x2="52.07" y2="149.63" stroke-linecap="butt"/>
      <line class="compassTick" data-major="0" x1="43.89" y1="154.18" x2="50.37" y2="147.93" stroke-linecap="butt"/>
      <line class="compassTick" data-major="0" x1="42.03" y1="152.19" x2="48.72" y2="146.17" stroke-linecap="butt"/>
      <line class="compassTick" data-major="0" x1="40.25" y1="150.14" x2="49.44" y2="142.42" stroke-linecap="butt"/>
      <line class="compassTick" data-major="0" x1="38.54" y1="148.02" x2="45.63" y2="142.48" stroke-linecap="butt"/>
      <line class="compassTick" data-major="0" x1="36.90" y1="145.85" x2="44.18" y2="140.56" stroke-linecap="butt"/>
      <line class="compassTick" data-major="0" x1="35.34" y1="143.62" x2="42.80" y2="138.58" stroke-linecap="butt"/>
      <line class="compassTick" data-major="0" x1="33.85" y1="141.33" x2="41.48" y2="136.56" stroke-linecap="butt"/>
      <line class="compassTick" data-major="0" x1="32.45" y1="139.00" x2="42.84" y2="133.00" stroke-linecap="butt"/>
      <line class="compassTick" data-major="0" x1="31.13" y1="136.62" x2="39.08" y2="132.39" stroke-linecap="butt"/>
      <line class="compassTick" data-major="0" x1="29.89" y1="134.19" x2="37.98" y2="130.25" stroke-linecap="butt"/>
      <line class="compassTick" data-major="0" x1="28.74" y1="131.73" x2="36.97" y2="128.06" stroke-linecap="butt"/>
      <line class="compassTick" data-major="0" x1="27.68" y1="129.22" x2="36.02" y2="125.85" stroke-linecap="butt"/>
      <line class="compassTick" data-major="0" x1="26.70" y1="126.68" x2="37.98" y2="122.57" stroke-linecap="butt"/>
      <line class="compassTick" data-major="0" x1="25.82" y1="124.10" x2="34.38" y2="121.32" stroke-linecap="butt"/>
      <line class="compassTick" data-major="0" x1="25.02" y1="121.50" x2="33.67" y2="119.02" stroke-linecap="butt"/>
      <line class="compassTick" data-major="0" x1="24.32" y1="118.87" x2="33.05" y2="116.69" stroke-linecap="butt"/>
      <line class="compassTick" data-major="0" x1="23.70" y1="116.22" x2="32.51" y2="114.35" stroke-linecap="butt"/>
      <line class="compassTick" data-major="0" x1="23.18" y1="113.54" x2="35.00" y2="111.46" stroke-linecap="butt"/>
      <line class="compassTick" data-major="0" x1="22.76" y1="110.86" x2="31.67" y2="109.60" stroke-linecap="butt"/>
      <line class="compassTick" data-major="0" x1="22.43" y1="108.15" x2="31.38" y2="107.21" stroke-linecap="butt"/>
      <line class="compassTick" data-major="0" x1="22.19" y1="105.44" x2="31.17" y2="104.81" stroke-linecap="butt"/>
      <line class="compassTick" data-major="0" x1="22.05" y1="102.72" x2="31.04" y2="102.41" stroke-linecap="butt"/>
      <line class="compassTick" data-major="1" x1="22.00" y1="100.00" x2="39.00" y2="100.00" stroke-linecap="butt"/>
      <line class="compassTick" data-major="0" x1="22.05" y1="97.28" x2="31.04" y2="97.59" stroke-linecap="butt"/>
      <line class="compassTick" data-major="0" x1="22.19" y1="94.56" x2="31.17" y2="95.19" stroke-linecap="butt"/>
      <line class="compassTick" data-major="0" x1="22.43" y1="91.85" x2="31.38" y2="92.79" stroke-linecap="butt"/>
      <line class="compassTick" data-major="0" x1="22.76" y1="89.14" x2="31.67" y2="90.40" stroke-linecap="butt"/>
      <line class="compassTick" data-major="0" x1="23.18" y1="86.46" x2="35.00" y2="88.54" stroke-linecap="butt"/>
      <line class="compassTick" data-major="0" x1="23.70" y1="83.78" x2="32.51" y2="85.65" stroke-linecap="butt"/>
      <line class="compassTick" data-major="0" x1="24.32" y1="81.13" x2="33.05" y2="83.31" stroke-linecap="butt"/>
      <line class="compassTick" data-major="0" x1="25.02" y1="78.50" x2="33.67" y2="80.98" stroke-linecap="butt"/>
      <line class="compassTick" data-major="0" x1="25.82" y1="75.90" x2="34.38" y2="78.68" stroke-linecap="butt"/>
      <line class="compassTick" data-major="0" x1="26.70" y1="73.32" x2="37.98" y2="77.43" stroke-linecap="butt"/>
      <line class="compassTick" data-major="0" x1="27.68" y1="70.78" x2="36.02" y2="74.15" stroke-linecap="butt"/>
      <line class="compassTick" data-major="0" x1="28.74" y1="68.27" x2="36.97" y2="71.94" stroke-linecap="butt"/>
      <line class="compassTick" data-major="0" x1="29.89" y1="65.81" x2="37.98" y2="69.75" stroke-linecap="butt"/>
      <line class="compassTick" data-major="0" x1="31.13" y1="63.38" x2="39.08" y2="67.61" stroke-linecap="butt"/>
      <line class="compassTick" data-major="0" x1="32.45" y1="61.00" x2="42.84" y2="67.00" stroke-linecap="butt"/>
      <line class="compassTick" data-major="0" x1="33.85" y1="58.67" x2="41.48" y2="63.44" stroke-linecap="butt"/>
      <line class="compassTick" data-major="0" x1="35.34" y1="56.38" x2="42.80" y2="61.42" stroke-linecap="butt"/>
      <line class="compassTick" data-major="0" x1="36.90" y1="54.15" x2="44.18" y2="59.44" stroke-linecap="butt"/>
      <line class="compassTick" data-major="0" x1="38.54" y1="51.98" x2="45.63" y2="57.52" stroke-linecap="butt"/>
      <line class="compassTick" data-major="0" x1="40.25" y1="49.86" x2="49.44" y2="57.58" stroke-linecap="butt"/>
      <line class="compassTick" data-major="0" x1="42.03" y1="47.81" x2="48.72" y2="53.83" stroke-linecap="butt"/>
      <line class="compassTick" data-major="0" x1="43.89" y1="45.82" x2="50.37" y2="52.07" stroke-linecap="butt"/>
      <line class="compassTick" data-major="0" x1="45.82" y1="43.89" x2="52.07" y2="50.37" stroke-linecap="butt"/>
      <line class="compassTick" data-major="0" x1="47.81" y1="42.03" x2="53.83" y2="48.72" stroke-linecap="butt"/>
      <line class="compassTick" data-major="0" x1="49.86" y1="40.25" x2="57.58" y2="49.44" stroke-linecap="butt"/>
      <line class="compassTick" data-major="0" x1="51.98" y1="38.54" x2="57.52" y2="45.63" stroke-linecap="butt"/>
      <line class="compassTick" data-major="0" x1="54.15" y1="36.90" x2="59.44" y2="44.18" stroke-linecap="butt"/>
      <line class="compassTick" data-major="0" x1="56.38" y1="35.34" x2="61.42" y2="42.80" stroke-linecap="butt"/>
      <line class="compassTick" data-major="0" x1="58.67" y1="33.85" x2="63.44" y2="41.48" stroke-linecap="butt"/>
      <line class="compassTick" data-major="0" x1="61.00" y1="32.45" x2="67.00" y2="42.84" stroke-linecap="butt"/>
      <line class="compassTick" data-major="0" x1="63.38" y1="31.13" x2="67.61" y2="39.08" stroke-linecap="butt"/>
      <line class="compassTick" data-major="0" x1="65.81" y1="29.89" x2="69.75" y2="37.98" stroke-linecap="butt"/>
      <line class="compassTick" data-major="0" x1="68.27" y1="28.74" x2="71.94" y2="36.97" stroke-linecap="butt"/>
      <line class="compassTick" data-major="0" x1="70.78" y1="27.68" x2="74.15" y2="36.02" stroke-linecap="butt"/>
      <line class="compassTick" data-major="0" x1="73.32" y1="26.70" x2="77.43" y2="37.98" stroke-linecap="butt"/>
      <line class="compassTick" data-major="0" x1="75.90" y1="25.82" x2="78.68" y2="34.38" stroke-linecap="butt"/>
      <line class="compassTick" data-major="0" x1="78.50" y1="25.02" x2="80.98" y2="33.67" stroke-linecap="butt"/>
      <line class="compassTick" data-major="0" x1="81.13" y1="24.32" x2="83.31" y2="33.05" stroke-linecap="butt"/>
      <line class="compassTick" data-major="0" x1="83.78" y1="23.70" x2="85.65" y2="32.51" stroke-linecap="butt"/>
      <line class="compassTick" data-major="0" x1="86.46" y1="23.18" x2="88.54" y2="35.00" stroke-linecap="butt"/>
      <line class="compassTick" data-major="0" x1="89.14" y1="22.76" x2="90.40" y2="31.67" stroke-linecap="butt"/>
      <line class="compassTick" data-major="0" x1="91.85" y1="22.43" x2="92.79" y2="31.38" stroke-linecap="butt"/>
      <line class="compassTick" data-major="0" x1="94.56" y1="22.19" x2="95.19" y2="31.17" stroke-linecap="butt"/>
      <line class="compassTick" data-major="0" x1="97.28" y1="22.05" x2="97.59" y2="31.04" stroke-linecap="butt"/>
    </g>
    <g id="labelLayer" data-compass="labelLayer" font-family="Arial, Helvetica, sans-serif" font-weight="600" font-size="12" fill="#f2f2f2" text-anchor="middle" dominant-baseline="middle">
      <text class="compassLabel" x="100.00" y="45.00">N</text>
      <text class="compassLabel" x="141.01" y="58.99">NE</text>
      <text class="compassLabel" x="155.00" y="100.00">E</text>
      <text class="compassLabel" x="141.01" y="141.01">SE</text>
      <text class="compassLabel" x="100.00" y="155.00">S</text>
      <text class="compassLabel" x="58.99" y="141.01">SW</text>
      <text class="compassLabel" x="45.00" y="100.00">W</text>
      <text class="compassLabel" x="58.99" y="58.99">NW</text>
    </g>
  </g>

  <line id="topMarker" data-compass="topMarker" x1="100" y1="11" x2="100" y2="35" stroke="#b76a4e" stroke-width="3" stroke-linecap="round"/>
  <circle cx="100" cy="100" r="10" fill="#000000" opacity="0.18"/>
  <circle id="centerCap" data-compass="centerCap" cx="100" cy="100" r="10" fill="#eeeeee" filter="url(#centerShadow)"/>

  <script type="text/javascript">
    <![CDATA[
    let initValue = 0;
    //!export-start
    let _pn_value = initValue;
    let _pn_min = 0;
    let _pn_max = 360;
    let _pn_animationMs = 700;
    let _pc_outerColor = "#d9d9d9ff";
    let _pc_dialColor = "#b53234ff";
    let _pc_tickColor = "#f2f2f2ff";
    let _pc_textColor = "#f2f2f2ff";
    let _pc_markerColor = "#b76a4eff";
    let _pc_centerColor = "#eeeeeeff";
    let _pn_labelSize = 12;
    let _pn_tickWidth = 1.3;
    //!export-end

    let compassTimer = null;
    let compassWatchTimer = null;
    let compassCurrentAngle = 0;
    let compassTargetValue = null;

    function init() {
      applyCompassStyle();
      compassCurrentAngle = valueToDialAngle(_pn_value);
      compassTargetValue = normalizeValue(_pn_value);
      setDialAngle(compassCurrentAngle);
    }

    function applyCompassStyle() {
      setAttrSafe('outerRing', 'fill', _pc_outerColor);
      setAttrSafe('dialBackground', 'fill', _pc_dialColor);
      setAttrSafe('topMarker', 'stroke', _pc_markerColor);
      setAttrSafe('centerCap', 'fill', _pc_centerColor);
      setAttrSafe('labelLayer', 'fill', _pc_textColor);
      setAttrSafe('labelLayer', 'font-size', _pn_labelSize);

      const root = getSvgRoot();
      const ticks = root ? root.querySelectorAll('[data-major]') : [];
      for (let i = 0; i < ticks.length; i++) {
        const width = ticks[i].getAttribute('data-major') === '1' ? _pn_tickWidth * 1.8 : _pn_tickWidth;
        ticks[i].setAttribute('stroke', _pc_tickColor);
        ticks[i].setAttribute('stroke-width', width);
      }
    }

    function normalizeValue(value) {
      let num = parseFloat(value);
      if (isNaN(num)) { num = 0; }
      const min = parseFloat(_pn_min);
      const max = parseFloat(_pn_max);
      const safeMin = isNaN(min) ? 0 : min;
      const safeMax = isNaN(max) || max === safeMin ? 360 : max;
      const clamped = Math.max(safeMin, Math.min(safeMax, num));
      return ((clamped - safeMin) / (safeMax - safeMin)) * 360;
    }

    function valueToDialAngle(value) {
      return -normalizeDegree(value);
    }

    function normalizeDegree(value) {
      let degree = parseFloat(value);
      if (isNaN(degree)) { degree = 0; }
      degree = degree % 360;
      return degree < 0 ? degree + 360 : degree;
    }

    function animateDialTo(targetAngle) {
      if (compassTimer) { clearInterval(compassTimer); }
      const startAngle = compassCurrentAngle;
      const deltaAngle = shortestAngleDelta(startAngle, targetAngle);
      const duration = Math.max(0, parseFloat(_pn_animationMs) || 0);
      const startTime = Date.now();
      if (duration === 0) {
        compassCurrentAngle = startAngle + deltaAngle;
        setDialAngle(compassCurrentAngle);
        return;
      }
      compassTimer = setInterval(function () {
        const progress = Math.min(1, (Date.now() - startTime) / duration);
        const eased = easeOutCubic(progress);
        compassCurrentAngle = startAngle + (deltaAngle * eased);
        setDialAngle(compassCurrentAngle);
        if (progress >= 1) {
          clearInterval(compassTimer);
          compassTimer = null;
          compassCurrentAngle = startAngle + deltaAngle;
          setDialAngle(compassCurrentAngle);
        }
      }, 16);
    }

    function shortestAngleDelta(fromAngle, toAngle) {
      return ((toAngle - fromAngle + 540) % 360) - 180;
    }

    function easeOutCubic(value) {
      const inv = 1 - value;
      return 1 - inv * inv * inv;
    }

    function setDialAngle(angle) {
      const dial = getSvgElement('dial');
      if (dial) {
        dial.setAttribute('transform', 'rotate(' + angle + ' 100 100)');
      }
    }

    function getSvgRoot() {
      const dial = document.getElementById('compassDial');
      if (dial && dial.ownerSVGElement) { return dial.ownerSVGElement; }
      const outer = document.getElementById('outerRing');
      if (outer && outer.ownerSVGElement) { return outer.ownerSVGElement; }
      const allSvg = document.getElementsByTagName('svg');
      return allSvg && allSvg.length ? allSvg[allSvg.length - 1] : null;
    }

    function getSvgElement(name) {
      if (name === 'dial') {
        const dial = document.getElementById('compassDial');
        if (dial) { return dial; }
      }

      const byId = document.getElementById(name);
      if (byId) { return byId; }

      const root = getSvgRoot();
      if (!root || !root.querySelector) { return null; }
      return root.querySelector('[data-compass="' + name + '"]');
    }

    function setAttrSafe(name, attr, value) {
      const element = getSvgElement(name);
      if (element) { element.setAttribute(attr, value); }
    }

    function setNumericValue(value) {
      const normalizedValue = normalizeValue(value);
      _pn_value = parseFloat(value);
      if (isNaN(_pn_value)) { _pn_value = 0; }
      compassTargetValue = normalizedValue;
      animateDialTo(valueToDialAngle(normalizedValue));
    }

    function putValue(id, value) {
      switch (id) {
        case '_pn_value':
          setNumericValue(value);
          break;
        case '_pn_min':
          _pn_min = parseFloat(value);
          setNumericValue(_pn_value);
          break;
        case '_pn_max':
          _pn_max = parseFloat(value);
          setNumericValue(_pn_value);
          break;
        case '_pn_animationMs':
          _pn_animationMs = parseFloat(value);
          break;
        case '_pc_outerColor':
          _pc_outerColor = value;
          applyCompassStyle();
          break;
        case '_pc_dialColor':
          _pc_dialColor = value;
          applyCompassStyle();
          break;
        case '_pc_tickColor':
          _pc_tickColor = value;
          applyCompassStyle();
          break;
        case '_pc_textColor':
          _pc_textColor = value;
          applyCompassStyle();
          break;
        case '_pc_markerColor':
          _pc_markerColor = value;
          applyCompassStyle();
          break;
        case '_pc_centerColor':
          _pc_centerColor = value;
          applyCompassStyle();
          break;
        case '_pn_labelSize':
          _pn_labelSize = parseFloat(value);
          applyCompassStyle();
          break;
        case '_pn_tickWidth':
          _pn_tickWidth = parseFloat(value);
          applyCompassStyle();
          break;
      }
    }

    setTimeout(function () { init(); }, 100);
    ]]>
  </script>
</svg>
